<svg width="254" height="293" viewBox="0 0 254 293" fill="none" xmlns="http://www.w3.org/2000/svg">
<path d="M33.2585 73.5449C31.0509 71.7571 26.8055 72.8298 23.1544 75.8888C20.6496 71.9558 16.9137 69.7707 14.2391 70.8831C11.1399 72.1544 10.588 77.319 12.9654 82.3644C14.8759 86.4564 18.1448 89.1976 20.9468 89.4359C23.7063 89.9524 27.697 88.2441 30.7962 84.8673C34.7444 80.6959 35.8058 75.6107 33.2585 73.5449Z" fill="white"/>
<path d="M39.3282 39.7359C37.2904 39.2989 34.9979 41.2456 33.8092 44.3046C30.8799 42.5963 27.7807 42.3579 26.4646 43.9073C24.9787 45.6553 26.4222 49.0719 29.6912 51.4953C32.3233 53.4817 35.3375 54.1968 37.2055 53.4817C39.1159 52.9652 41.0264 50.661 41.7906 47.602C42.767 43.7881 41.6632 40.2524 39.3282 39.7359Z" fill="white"/>
<path d="M142.407 38.663C144.147 43.6289 153.912 71.2794 136.166 84.9458C124.151 94.1626 103.306 94.4009 96.259 85.9389C88.4899 76.6029 103.901 64.2873 100.971 38.663C98.8062 19.9909 84.9662 9.74119 89.8059 4.4574C93.4995 0.405175 103.646 3.38475 107.34 4.4574C123.812 9.22473 136.888 22.9705 142.407 38.663Z" fill="#0B206D"/>
<path d="M108.274 73.3062C112.732 86.6149 127.251 130.196 101.311 162.813C80.2117 189.391 42.1303 196.224 37.7575 190.821C36.5263 189.271 36.2291 184.663 32.0261 182.438C30.328 181.564 29.8186 182.001 28.5449 181.048C25.4882 178.744 27.3138 175.287 24.5542 171.712C22.7287 169.368 21.4126 170.162 19.0777 167.739C16.0634 164.6 15.5115 160.389 15.5964 158.165C15.8511 151.689 22.2193 149.703 26.5496 143.704C35.5923 131.15 22.3466 119.748 30.5403 106.399C36.5688 96.5469 45.4841 100.043 49.4748 90.548C53.975 79.901 45.1021 70.2869 51.9797 61.8646C54.2722 59.0836 55.7156 59.5207 58.9421 56.9781C72.5699 46.1721 64.7159 23.8849 70.1501 21.7396C76.1361 19.3559 97.7453 41.7624 108.274 73.3062Z" fill="#0B206D"/>
<path d="M38.9906 193.124C36.9528 193.124 35.382 192.648 34.1508 191.654C32.6225 190.423 31.6036 188.397 30.7121 186.649C29.9903 185.219 29.2686 183.749 28.5894 183.391C27.9101 183.034 27.528 182.954 27.061 182.835C26.4666 182.716 25.8298 182.557 24.9383 181.881C23.0279 180.451 22.6883 178.584 22.3911 176.836C22.1364 175.366 21.8816 173.856 20.7354 172.387C19.9712 171.354 19.3344 171.076 18.4853 170.678C17.6362 170.281 16.5749 169.804 15.3012 168.493C12.3719 165.434 11.4379 161.183 11.5228 158.243C11.6926 153.754 14.537 151.212 17.5937 148.55C19.3344 147.001 21.1599 145.411 22.6882 143.266C27.061 137.227 25.9572 131.467 24.7685 125.349C23.6222 119.231 22.3911 112.874 26.6365 106.002C29.7781 100.916 33.6839 99.1683 37.1227 97.619C40.6039 96.0696 43.6182 94.7188 45.4862 90.2693C47.4815 85.5815 46.7173 81.0128 45.9532 76.603C45.0616 71.4781 44.1701 66.1546 48.1183 61.3476C48.7127 60.6325 49.307 60.0365 49.9014 59.5598C52.4911 57.6131 54.8685 56.4213 55.4629 56.1432C56.8638 55.5473 60.5574 51.1375 69.4728 28.4927C69.685 27.9763 70.2794 27.7379 70.8313 27.8968C71.3832 28.0955 71.6804 28.6516 71.4681 29.1681C62.0008 53.2034 58.3073 57.0967 56.3544 57.9707C56.312 57.9707 54.0194 59.0433 51.2174 61.1092C50.708 61.5065 50.241 61.9435 49.774 62.5394C46.3777 66.7108 47.1419 71.1603 47.9909 76.2852C48.7976 80.973 49.6042 85.7801 47.3966 90.9844C45.189 96.1888 41.4955 97.8176 37.9718 99.4067C34.6603 100.877 31.2215 102.426 28.4196 106.955C24.5987 113.192 25.66 118.913 26.8063 124.952C27.995 131.189 29.2262 137.625 24.3864 144.339C22.7307 146.643 20.7354 148.391 18.9947 149.94C16.0654 152.523 13.7304 154.589 13.603 158.283C13.5606 159.157 13.5606 163.766 16.8296 167.142C17.806 168.175 18.5702 168.533 19.3768 168.89C20.3108 169.327 21.2873 169.764 22.3911 171.195C23.8345 173.102 24.1741 174.889 24.4289 176.518C24.6836 178.107 24.8958 179.379 26.2119 180.332C26.7214 180.69 27.0186 180.769 27.4856 180.888C27.995 181.007 28.6319 181.166 29.5658 181.643C30.8819 182.318 31.6885 183.947 32.5801 185.814C33.3867 187.404 34.2783 189.191 35.467 190.185C37.1227 191.535 40.3492 191.496 45.0192 189.986C45.5711 189.827 46.1654 190.065 46.3777 190.622C46.5475 191.138 46.2503 191.694 45.6984 191.893C43.1511 192.727 40.9011 193.124 38.9906 193.124Z" fill="#0B206D"/>
<path d="M161.555 174.532C168.39 172.347 175.183 170.162 182.018 168.017C183.758 153.953 184.438 137.307 182.527 118.794C181.763 111.246 180.617 104.175 179.301 97.54C175.947 85.6614 166.055 80.179 160.791 81.8873C156.121 83.4366 152.767 91.4616 154.847 100.798C157.055 125.349 159.305 149.941 161.555 174.532Z" fill="#FBE0E5"/>
<path d="M163.89 213.744C169.494 223.835 155.823 245.725 151.833 251.843C145.125 255.101 132.941 259.829 117.275 259.55C85.8164 258.994 65.8629 238.574 62.0845 234.601C65.4808 231.463 67.4337 228.523 68.6225 226.378C73.25 217.995 76.3491 203.097 77.5378 200.674C78.5142 198.688 78.7265 198.29 79.1935 197.337C84.4154 186.292 81.2738 175.606 79.1935 160.628C78.5142 155.583 77.9624 150.259 77.4529 144.856C76.3916 133.335 75.5849 121.695 74.0566 112.399L73.9717 111.803C73.5047 109.181 72.9952 106.758 72.4433 104.612C72.231 103.619 72.0612 102.626 71.9339 101.633C71.849 101.196 71.764 100.759 71.7216 100.322C71.382 97.223 71.382 93.9256 72.0612 90.7871C72.4009 90.1514 72.8254 89.5158 73.4197 88.8404C78.5991 82.7224 88.2787 83.2785 96.3875 78.0742C96.8545 77.8358 97.2365 77.518 97.7035 77.2002C97.8733 77.081 97.9583 77.0413 98.0432 76.9221C104.793 76.1673 110.44 76.5248 114.218 76.8029C133.153 78.1537 133.068 83.9539 146.144 82.4045C153.828 81.4908 158.328 80.8551 163.338 83.5963C164.993 84.5101 170.173 87.1321 172.508 97.4613C172.508 97.5805 172.55 97.66 172.55 97.7792C167.286 111.167 163.38 122.49 160.621 130.912C159.177 135.322 157.904 139.374 156.8 143.148C153.87 152.762 151.918 160.549 150.686 166.866C147.078 184.743 149.116 190.98 151.196 195.192C153.573 200.118 155.696 201.588 158.838 205.759C158.88 205.759 160.918 208.381 163.89 213.744Z" fill="#FBE0E5"/>
<path d="M99.4873 128.051C99.4873 135.639 94.2655 142.075 87.0058 144.379C85.1378 144.975 83.1 145.333 80.9773 145.333C79.8311 145.333 78.6848 145.214 77.581 145.015C68.9203 143.466 62.4248 136.434 62.4248 128.012C62.4248 120.98 66.8825 114.981 73.2931 112.24C73.5478 112.16 73.7601 112.081 73.9299 112.001C76.0951 111.167 78.43 110.73 80.9348 110.73C87.3454 110.73 92.9493 113.789 96.3032 118.397C98.2986 121.139 99.4873 124.476 99.4873 128.051Z" fill="#FBE0E5"/>
<path d="M114.388 120.98C114.388 128.608 121.011 134.805 129.162 134.805C137.313 134.805 143.936 128.608 143.936 120.98C143.936 113.352 137.313 107.155 129.162 107.155C120.968 107.155 114.388 113.313 114.388 120.98Z" fill="#FBE0E5"/>
<path d="M172.594 97.6992C127.72 99.2486 110.314 94.4415 79.1947 100.321C77.9635 100.56 75.3314 101.076 71.9351 101.871C71.2133 100.282 69.9821 96.9047 71.1709 93.0908C71.2982 92.7332 71.5529 91.9784 72.1049 91.025C72.4445 90.3893 72.8691 89.7537 73.4634 89.0783C78.6428 82.9602 88.3224 83.5164 96.4311 78.3121C96.8981 78.0737 97.2802 77.7559 97.7472 77.4381C97.917 77.3189 98.0019 77.2792 98.0869 77.16C99.3605 76.1668 100.294 74.975 100.974 73.7037C102.927 70.1679 102.927 66.1554 102.927 64.9238C102.927 62.421 102.375 60.1565 101.653 58.2496C100.379 55.0316 98.5538 52.8069 97.6623 51.8137C104.54 47.9204 108.148 45.8943 108.148 45.8943C108.148 45.8943 111.884 43.1133 119.356 37.5117C120.885 41.2461 123.135 46.5696 126.107 52.9261C132.39 66.354 135.701 72.9488 139.649 75.849C150.985 84.1521 164.528 77.5175 170.726 85.622C173.74 89.4358 173.273 94.4813 172.594 97.6992Z" fill="#FBE0E5"/>
<path d="M116.045 81.8076C115.154 83.1583 113.71 83.8337 112.352 83.4761C110.399 82.9994 109.677 80.7746 109.635 80.6157L116.045 81.8076Z" fill="#F26E58"/>
<path d="M108.275 85.8994C107.85 86.1775 107.256 86.5748 106.449 86.8926C103.775 88.0447 101.567 87.8461 100.039 87.6474C94.4346 86.9721 89.2128 85.8597 87.4722 85.4624C91.5053 85.661 95.5384 85.8597 99.5716 86.0583L108.275 85.8994Z" fill="#F26E58"/>
<path d="M116.044 85.8994C116.681 86.1775 117.615 86.5748 118.804 86.8926C122.837 88.0447 126.233 87.8461 128.568 87.6474C137.102 86.9721 144.998 85.8597 147.673 85.4624C141.559 85.661 135.404 85.8597 129.29 86.0583L116.044 85.8994Z" fill="#F26E58"/>
<path d="M140.461 192.673C144.638 168.5 127.082 145.736 101.251 141.828C75.4191 137.92 51.0928 154.348 46.9167 178.521C42.7405 202.694 60.2957 225.458 86.1274 229.366C111.959 233.274 136.285 216.846 140.461 192.673Z" fill="#FBE0E5"/>
<path d="M112.945 68.6979C111.205 73.1474 106.195 75.531 101.737 74.0214C101.483 73.9419 101.185 73.8228 100.973 73.7036C102.926 70.1678 102.926 66.1553 102.926 64.9237C102.926 62.4209 102.374 60.1564 101.652 58.2495C103.605 57.3358 105.898 57.1768 108.021 57.9317C112.521 59.4413 114.686 64.2484 112.945 68.6979Z" fill="#F26E58"/>
<path d="M123.347 48.0394C119.951 58.885 111.035 66.0758 109.847 66.9101C108.87 67.6252 107.809 68.1813 106.663 68.6581C106.663 68.6581 104.922 69.3732 102.969 69.5718C97.5349 70.2472 89.2564 64.6058 88.5771 64.1291C84.7138 61.4674 81.6995 59.3618 79.6193 55.4685C77.9635 52.3697 78.2607 50.7409 75.7559 45.7352C74.3974 43.0734 73.5483 41.9213 72.487 40.1733C72.4445 40.0938 72.402 40.0144 72.3171 39.9349C71.935 39.2993 71.5105 38.5842 71.0435 37.7896C70.619 37.0745 70.1944 36.3197 69.8124 35.4854C67.6896 31.2346 65.8216 25.5138 67.6471 19.9916C67.6471 19.9916 69.5151 14.2708 76.138 9.38431C77.9635 8.03357 80.0863 6.88147 80.0863 6.88147C80.6382 6.56365 81.1476 6.32528 81.6146 6.08691C85.86 4.25944 96.8556 0.24694 107.342 4.45808C124.408 11.2515 127.508 34.532 123.347 48.0394Z" fill="#FBE0E5"/>
<path d="M108.87 34.93C108.148 36.0026 106.492 38.0685 103.605 39.0617C102.417 39.4589 99.7419 40.4919 98.1287 39.1809C97.3645 38.5849 96.9824 37.552 97.0673 36.6383C97.1522 35.5656 97.8315 34.8108 98.256 34.4135C100.082 32.5463 103.648 31.6723 106.45 32.9833C107.638 33.5395 108.403 34.3341 108.87 34.93Z" fill="#F26E58"/>
<path d="M99.9119 40.1739C99.2751 40.1739 98.6383 40.1342 97.9591 40.015C97.6619 39.9753 97.4496 39.7369 97.5345 39.4588C97.5769 39.1807 97.8741 39.0218 98.1288 39.0615C99.7421 39.2999 101.313 39.2204 102.841 38.8232C106.492 37.8697 108.573 35.4463 109.507 34.0956C109.676 33.8572 110.016 33.8175 110.228 33.9367C110.483 34.0956 110.568 34.3737 110.398 34.612C109.379 36.082 107.087 38.7437 103.096 39.7766C102.077 40.0547 100.973 40.1739 99.9119 40.1739Z" fill="#0B206D"/>
<path d="M76.8998 47.7207C79.6593 48.2769 81.7395 47.8001 82.716 47.4823C83.6924 47.1645 86.8765 46.1316 87.0039 44.3041C87.0463 43.3903 86.3246 42.4369 85.6029 41.9204C85.3481 41.7615 84.8387 41.4437 84.032 41.3245C81.5697 40.9272 76.6026 41.9601 76.0507 44.7808C75.9233 45.1384 75.7959 46.211 76.8998 47.7207Z" fill="#F26E58"/>
<path d="M78.5138 48.7151C76.8157 48.7151 75.4147 48.3973 74.4382 48.1192C74.141 48.0397 74.0137 47.7616 74.0986 47.4835C74.1835 47.2054 74.4807 47.0862 74.7779 47.1657C76.4336 47.6424 79.7025 48.2384 83.1413 46.7684C84.5848 46.1725 85.8159 45.2588 86.9198 44.1464C87.132 43.9478 87.4292 43.908 87.6839 44.1067C87.8962 44.3053 87.9387 44.5834 87.7264 44.8218C86.5801 46.0533 85.1791 47.0465 83.6083 47.7219C81.8253 48.437 80.0847 48.7151 78.5138 48.7151Z" fill="#0B206D"/>
<path d="M109.718 26.5863C107.426 26.785 104.327 27.2617 100.803 28.4138C97.7889 29.407 95.4114 30.6386 93.6708 31.6715C93.5434 31.2742 93.4585 30.8372 93.4161 30.3207C93.3312 29.0892 93.6283 28.0563 93.9255 27.3809C96.3454 26.6261 98.3833 26.0699 99.8691 25.7123C103.52 24.8383 104.624 24.878 105.346 24.9575C107.384 25.1561 108.869 25.9904 109.718 26.5863Z" fill="#0B206D"/>
<path d="M92.5684 27.7387C92.4835 28.136 92.3561 28.7716 92.3986 29.4867C92.441 30.758 92.8656 31.8704 92.9929 31.8704C93.1627 31.8307 93.0779 30.3607 93.0354 29.9237C92.993 29.2881 92.908 28.7319 93.0778 27.8976C93.1203 27.699 93.1628 27.5401 93.2052 27.4209L92.5684 27.7387Z" fill="#0B206D"/>
<path d="M81.3584 37.3129C79.3206 37.6704 76.6884 38.3458 73.8016 39.5774C73.3346 39.776 72.91 39.9747 72.4855 40.1733C72.443 40.0938 72.4005 40.0144 72.3156 39.9349C71.9335 39.2993 71.509 38.5842 71.042 37.7896C71.4665 37.5513 71.9336 37.2732 72.4855 36.9951C73.844 36.28 75.6695 35.3265 78.0045 34.373C78.6837 34.6511 79.7027 35.1676 80.5518 36.1608C80.9338 36.5581 81.1886 36.9553 81.3584 37.3129Z" fill="#0B206D"/>
<path d="M79.2779 33.7373C79.66 33.9757 80.1694 34.3332 80.6789 34.8894C81.5704 35.8429 82.1223 36.9155 81.9949 36.995C81.8676 37.0744 80.8063 35.9621 80.5091 35.6045C80.0421 35.1278 79.7024 34.651 78.9807 34.1743C78.8109 34.0551 78.6411 33.9757 78.5562 33.8962L79.2779 33.7373Z" fill="#0B206D"/>
<path d="M93.7134 48.2785C92.737 48.199 91.8879 48.4374 91.1237 48.795C90.3596 49.1525 89.5954 49.5895 89.0435 50.3443C90.0199 50.4238 90.869 50.1854 91.6332 49.8279C92.3973 49.4703 93.1191 49.0333 93.7134 48.2785Z" fill="#F26E58"/>
<path d="M91.2936 57.7319C90.9964 57.7319 90.7842 57.5333 90.7417 57.2552C90.7417 56.9771 90.954 56.7387 91.2512 56.7387C93.9258 56.699 96.6004 56.0634 98.9778 54.9112C101.058 53.8783 102.884 52.4879 104.412 50.7796C104.582 50.5809 104.921 50.5412 105.176 50.7001C105.388 50.859 105.431 51.1768 105.261 51.4152C103.648 53.2427 101.737 54.7126 99.4873 55.7852C96.9825 57.0168 94.1381 57.6922 91.2936 57.7319Z" fill="#0B206D"/>
<path d="M92.3128 57.9322C92.7798 58.687 95.8789 58.0116 98.5536 56.8992C100.889 55.9458 104.242 54.0786 103.903 53.1251C103.818 52.9265 103.351 52.8073 102.332 52.5292C98.3837 51.4565 97.7469 51.3374 97.1526 51.6552C96.9403 51.7744 96.3884 52.1319 95.7516 52.3703C95.4968 52.4497 95.1996 52.5292 95.1996 52.5292C94.1383 52.8073 94.0109 52.6881 93.6713 52.8867C93.0345 53.4429 92.6949 55.3101 92.6949 55.3101C92.61 55.5485 92.5251 55.9458 92.4401 56.3828C92.2703 57.2568 92.1854 57.7335 92.3128 57.9322Z" fill="#F26E58"/>
<path d="M98.2126 60.5119C97.9579 60.5119 97.7455 60.353 97.7031 60.1147C97.6182 59.8366 97.8305 59.5982 98.0852 59.5188C98.6371 59.3996 99.2315 59.2407 99.7834 59.0023C101.015 58.5256 102.161 57.8105 103.137 56.857C103.349 56.6583 103.689 56.6583 103.901 56.857C104.114 57.0556 104.114 57.3734 103.901 57.5721C102.84 58.605 101.566 59.3996 100.208 59.916C99.6136 60.1544 98.9768 60.353 98.3399 60.4722C98.255 60.5119 98.2126 60.5119 98.2126 60.5119Z" fill="#0B206D"/>
<path d="M96.3454 118.914C95.9633 118.874 95.7511 118.596 95.836 118.318L96.8124 113.193C96.8549 112.915 97.1095 112.716 97.4492 112.795C97.7464 112.835 97.9162 113.113 97.8738 113.391L96.8973 118.516C96.8549 118.715 96.6001 118.914 96.3454 118.914Z" fill="#0B206D"/>
<path d="M96.8543 113.431C96.6845 113.431 96.5147 113.351 96.3873 113.192L94.2646 110.054C94.0948 109.816 94.1797 109.498 94.4345 109.379C94.6892 109.22 95.0288 109.299 95.1562 109.537L97.2789 112.676C97.4487 112.914 97.3638 113.232 97.109 113.351C97.0666 113.391 96.9392 113.431 96.8543 113.431Z" fill="#0B206D"/>
<path d="M97.3634 113.789C97.236 113.789 97.1087 113.749 97.0238 113.67C96.8116 113.511 96.7691 113.193 96.9813 112.955L100.632 109.022C100.802 108.823 101.142 108.784 101.397 108.982C101.609 109.141 101.651 109.459 101.439 109.697L97.788 113.63C97.6606 113.71 97.4908 113.789 97.3634 113.789Z" fill="#0B206D"/>
<path d="M156.843 143.147C153.913 152.761 151.96 160.547 150.729 166.864C141.389 159.236 122.964 146.881 97.2794 144.537C93.6708 144.219 90.232 144.1 87.0055 144.18C83.6941 144.219 80.5524 144.497 77.6231 144.815C75.7126 144.617 71.7219 144.06 67.9435 141.279C67.1794 140.723 61.1084 136.115 61.1084 128.606C61.1084 123.998 63.4009 120.74 64.5472 119.072C67.519 114.9 71.4672 112.874 73.3352 112.08C73.59 112.199 73.8022 112.318 74.0994 112.397C77.4957 113.947 82.2931 115.854 88.3216 117.085C91.166 117.681 93.8406 117.999 96.3878 118.158C103.096 118.674 109.039 118.039 114.855 117.403C118.591 117.006 119.907 116.966 121.733 116.41C124.79 115.536 127.082 114.185 128.526 113.232C137.951 123.243 147.375 133.175 156.843 143.147Z" fill="#EA8C9D"/>
<path d="M74.0571 114.384C73.7599 114.384 73.4627 114.344 73.1655 114.225C72.1042 113.788 71.6372 112.596 72.1042 111.603L86.9207 80.973C87.3877 79.9798 88.6613 79.5428 89.7227 79.9798C90.7841 80.4168 91.251 81.6086 90.7841 82.6018L75.9675 113.232C75.6703 113.947 74.8637 114.384 74.0571 114.384Z" fill="#EA8C9D"/>
<path d="M126.234 119.312C125.894 119.312 125.555 119.232 125.258 119.074C124.239 118.557 123.814 117.365 124.366 116.372L145.805 78.1143C146.357 77.1608 147.631 76.7635 148.692 77.28C149.711 77.7965 150.136 78.9883 149.584 79.9815L128.144 118.239C127.762 118.915 126.998 119.312 126.234 119.312Z" fill="#EA8C9D"/>
<path d="M89.4243 215.054C90.7829 217.279 92.0989 219.543 93.4575 221.768C112.392 217.835 136.166 210.366 159.941 195.389C165.672 191.813 170.851 188.079 175.606 184.384C183.333 180.809 185.243 172.386 182.017 168.016C178.833 163.646 169.833 162.295 163.507 167.659C157.266 170.122 152.554 172.545 149.837 174.055C127.463 186.37 122.029 199.322 99.9529 210.485C95.3254 212.789 91.4197 214.299 89.4243 215.054Z" fill="#FBE0E5"/>
<path d="M94.2225 213.624C94.0103 213.624 93.8404 213.505 93.7555 213.346C93.6282 213.108 93.7555 212.79 94.0102 212.671C95.9207 211.837 97.8736 210.923 99.7416 210.009C110.992 204.288 117.827 198.21 125.044 191.814C131.752 185.815 138.715 179.617 149.625 173.619L150.22 173.301C150.474 173.142 150.814 173.261 150.941 173.46C151.069 173.698 150.984 174.016 150.771 174.135L150.177 174.453C139.351 180.412 132.474 186.57 125.808 192.529C118.549 199.005 111.671 205.123 100.293 210.883C98.4255 211.837 96.4726 212.75 94.5197 213.585C94.3499 213.624 94.265 213.624 94.2225 213.624Z" fill="#0B206D"/>
<path d="M98.4678 221.173C98.2131 221.173 98.0008 221.015 97.9584 220.816C97.8735 220.538 98.0433 220.26 98.3405 220.22C118.294 215.612 137.016 208.262 153.913 198.489C154.168 198.33 154.507 198.409 154.635 198.648C154.804 198.886 154.72 199.204 154.465 199.323C137.483 209.176 118.676 216.525 98.5952 221.173C98.5527 221.173 98.5103 221.173 98.4678 221.173Z" fill="#0B206D"/>
<path d="M93.1189 213.862C89.5952 211.518 85.3498 209.016 80.3826 206.711C73.8447 203.652 67.7738 201.706 62.7217 200.434C62 200.832 61.6179 201.269 61.4481 201.706C61.2783 202.182 61.4056 202.699 61.6604 203.295C59.4952 201.785 58.0942 200.077 57.33 198.925C55.9715 196.899 54.2733 195.945 53.594 196.303C52.9148 196.66 52.8299 198.528 53.8912 200.673C53.5941 200.871 53.3394 201.11 53.1695 201.348C52.2355 202.5 52.3629 204.129 52.8723 205.798C52.745 206.513 52.7025 207.268 52.7025 208.062C52.745 212.512 54.9951 216.008 56.6083 217.994C54.5705 217.2 52.4903 216.365 50.4525 215.571C48.9666 215.412 48.4571 215.61 48.3298 215.849C47.7354 217.16 56.5234 223.794 66.9247 225.264C71.5946 225.94 75.7551 225.264 84.0337 223.874C89.7225 222.96 94.3501 221.808 97.5766 220.974C96.0907 218.55 94.6048 216.206 93.1189 213.862Z" fill="#FBE0E5"/>
<path d="M70.533 225.94C69.2594 225.94 68.0707 225.861 66.7971 225.662C57.7119 224.391 49.4333 219.107 47.9899 216.644C47.7352 216.247 47.6927 215.849 47.82 215.571C48.1172 214.856 49.3484 214.856 50.4522 214.975C50.622 215.015 55.0797 216.763 55.0797 216.763C53.1693 213.982 52.1504 210.963 52.1079 207.943C52.1079 207.189 52.1504 206.434 52.2777 205.719C51.6834 203.653 51.8108 202.064 52.7023 200.951C52.8297 200.753 52.9995 200.594 53.2117 200.435C52.2353 198.29 52.2778 196.303 53.2967 195.787C54.358 195.231 56.3109 196.462 57.7544 198.568C58.2638 199.323 59.2402 200.634 60.8535 201.945C60.8535 201.786 60.896 201.627 60.9384 201.508C61.3205 200.435 62.2969 199.998 62.5092 199.958C62.6366 199.918 62.7215 199.918 62.8488 199.958C70.9576 202.024 78.7267 205.043 85.859 208.937C88.4487 210.327 90.996 211.876 93.4158 213.505C93.6706 213.664 93.713 213.982 93.5432 214.181C93.3734 214.419 93.0338 214.459 92.8215 214.3C90.4016 212.711 87.8968 211.161 85.3496 209.811C78.3022 205.997 70.7453 203.017 62.7639 200.991C62.5516 201.11 62.1271 201.388 61.9573 201.865C61.8299 202.183 61.9149 202.58 62.1271 203.097C62.212 203.295 62.1695 203.534 61.9573 203.693C61.745 203.851 61.4903 203.851 61.3205 203.693C59.0704 202.064 57.627 200.355 56.8628 199.164C55.5467 197.217 54.1033 196.581 53.8061 196.701C53.5514 196.82 53.2967 198.329 54.358 200.435C54.4854 200.673 54.4004 200.912 54.1882 201.031C53.9334 201.19 53.7636 201.388 53.5938 201.587C52.8721 202.461 52.8297 203.812 53.3816 205.6C53.424 205.679 53.424 205.798 53.3816 205.878C53.2967 206.593 53.2117 207.268 53.2542 207.983C53.2966 211.281 54.6127 214.618 57.0326 217.637C57.1599 217.796 57.1599 218.074 57.0326 218.233C56.9052 218.392 56.6505 218.471 56.3958 218.392L50.2824 216.008C49.0087 215.889 48.754 216.048 48.754 216.048C48.8389 217.16 57.0326 223.318 66.9669 224.709C71.467 225.344 75.5001 224.709 83.5664 223.398L83.9061 223.358C87.9817 222.682 92.0149 221.848 95.9631 220.855C96.2603 220.775 96.515 220.934 96.5999 221.213C96.6848 221.491 96.515 221.769 96.2178 221.808C92.2696 222.841 88.194 223.676 84.0759 224.351L83.7363 224.391C77.7503 225.344 73.9718 225.94 70.533 225.94Z" fill="#0B206D"/>
<path d="M73.8012 211.042C71.636 210.287 69.7256 209.373 67.9425 208.3C65.6924 206.95 63.6121 205.4 61.7442 203.613C61.5319 203.414 61.5319 203.096 61.7442 202.898C61.9564 202.699 62.2961 202.699 62.5084 202.898C64.3339 204.646 66.3292 206.155 68.5369 207.466C70.2775 208.499 72.103 209.373 74.0134 210.088C74.2681 210.207 74.438 210.486 74.3106 210.724C74.1833 210.923 74.0135 211.042 73.8012 211.042Z" fill="#0B206D"/>
<path d="M62.0833 214.419C61.9134 214.419 61.7436 214.339 61.6163 214.18L53.083 201.07C52.9132 200.832 52.998 200.514 53.2528 200.395C53.5075 200.275 53.8472 200.315 53.9746 200.554L62.5078 213.664C62.6776 213.902 62.5927 214.22 62.338 214.339C62.2955 214.419 62.2106 214.419 62.0833 214.419Z" fill="#0B206D"/>
<path d="M66.6252 215.452C66.4978 215.452 61.9552 214.419 61.9552 214.419C61.658 214.339 61.4882 214.101 61.5731 213.823C61.658 213.545 61.9127 213.386 62.2099 213.465L66.7525 214.498C67.0497 214.578 67.2195 214.816 67.1346 215.094C67.0922 215.293 66.8799 215.452 66.6252 215.452Z" fill="#0B206D"/>
<path d="M60.5979 217.638C60.4281 217.638 60.2583 217.558 60.1309 217.399L52.3618 205.958C52.192 205.719 52.2769 205.402 52.5316 205.282C52.7863 205.123 53.1259 205.203 53.2533 205.441L61.0649 216.883C61.2347 217.121 61.1498 217.439 60.8951 217.558C60.8102 217.638 60.7253 217.638 60.5979 217.638Z" fill="#0B206D"/>
<path d="M65.5639 218.907C65.4365 218.907 60.4694 217.636 60.4694 217.636C60.1722 217.557 60.0024 217.279 60.0873 217.04C60.1722 216.762 60.4694 216.643 60.7241 216.683L65.6488 217.954C65.946 218.033 66.1158 218.312 66.0309 218.55C65.9885 218.749 65.7762 218.907 65.5639 218.907Z" fill="#0B206D"/>
<path d="M67.0088 222.285C64.971 222.047 63.0181 221.57 61.1926 220.895C59.4944 220.259 57.8812 219.425 56.3953 218.392C56.1405 218.233 56.0981 217.915 56.2679 217.716C56.4377 217.478 56.7773 217.438 56.9896 217.597C58.3906 218.551 59.919 219.345 61.5322 219.981C63.2729 220.656 65.1408 221.093 67.0088 221.292C67.306 221.332 67.5183 221.57 67.4758 221.848C67.5183 222.087 67.2635 222.285 67.0088 222.285Z" fill="#0B206D"/>
<path d="M60.8114 153.319C58.7311 151.292 57.6697 148.432 58.1367 145.572C58.816 141.559 62.2973 138.46 66.6276 137.984C70.7032 136.951 74.7788 135.957 78.8119 134.925C79.4063 134.845 84.2036 134.13 87.048 137.07C87.6848 137.745 88.1519 138.46 88.4066 139.175C90.6142 141.122 95.6238 145.651 98.1286 149.425C98.6805 150.299 99.3173 151.412 98.8927 152.325C98.2559 153.597 96.0483 153.716 95.6662 153.716C95.7511 154.232 95.6663 154.669 95.4964 154.987C94.6049 157.013 90.4444 157.768 85.18 156.973C80.128 156.417 75.0335 155.901 69.9814 155.345C70.406 155.662 77.5807 160.946 76.2222 163.727C75.925 164.323 75.2457 164.879 74.4816 164.919C72.8683 165.078 71.6371 162.933 69.7691 160.668C68.538 159.238 66.67 157.252 63.7832 155.186C62.6369 154.749 61.6605 154.113 60.8114 153.319Z" fill="#FBE0E5"/>
<path d="M74.6928 165.474C73.2069 165.474 72.1455 164.123 70.8294 162.415C70.4898 161.978 70.1077 161.501 69.7256 161.024C68.0699 159.078 66.117 157.25 63.8245 155.621C62.9754 155.264 62.0838 154.747 61.2772 154.072C61.0649 153.873 61.0225 153.556 61.2348 153.357C61.4471 153.158 61.7867 153.119 61.999 153.317C62.7207 153.913 63.4849 154.39 64.3764 154.747C66.7963 156.456 68.8765 158.363 70.5747 160.389C70.9992 160.865 71.3389 161.342 71.721 161.779C72.9097 163.329 73.8437 164.56 74.8626 164.441C75.457 164.401 75.9664 163.924 76.1787 163.527C77.0702 161.7 73.037 157.846 70.1077 155.741C69.9379 155.621 69.853 155.383 69.9379 155.145C70.0228 154.946 70.2776 154.827 70.4898 154.827L85.6884 156.456C90.6555 157.171 94.6887 156.495 95.4529 154.747C95.5802 154.43 95.6227 154.112 95.5802 153.714C95.5802 153.595 95.6227 153.436 95.7076 153.317C95.7925 153.198 95.9623 153.158 96.0897 153.158C96.4718 153.158 98.3822 153.039 98.8492 152.046C99.1888 151.37 98.6794 150.417 98.1275 149.583C97.2359 148.232 95.9198 146.643 94.1792 144.815C93.9669 144.617 94.0094 144.299 94.2217 144.1C94.434 143.902 94.7736 143.941 94.9859 144.14C96.7265 145.968 98.1275 147.636 99.0191 149.027C99.6983 150.059 100.335 151.291 99.7832 152.403C99.1888 153.595 97.5756 153.953 96.5991 154.072C96.5991 154.43 96.5142 154.787 96.3868 155.065C95.4104 157.29 91.1225 158.164 85.5186 157.369L72.103 155.939C74.3531 157.767 78.2589 161.461 77.1127 163.845C76.7306 164.64 75.839 165.275 74.9475 165.355C74.8626 165.474 74.7777 165.474 74.6928 165.474Z" fill="#0B206D"/>
<path d="M95.6663 154.231C95.5814 154.231 79.1941 152.086 79.1941 152.086C78.8969 152.046 78.6846 151.808 78.7271 151.529C78.7695 151.251 79.0243 151.053 79.3214 151.092L95.7088 153.238C96.0059 153.277 96.2182 153.516 96.1758 153.794C96.1758 154.032 95.9635 154.231 95.6663 154.231Z" fill="#0B206D"/>
<path d="M99.1041 151.053C98.9343 151.013 81.5705 145.491 81.5705 145.491C81.2734 145.412 81.146 145.134 81.2309 144.856C81.3158 144.617 81.6129 144.458 81.9101 144.538L99.2739 150.06C99.5287 150.139 99.6985 150.417 99.6136 150.696C99.5287 150.934 99.3163 151.053 99.1041 151.053Z" fill="#0B206D"/>
<path d="M93.7126 144.578C93.6277 144.578 93.5428 144.578 93.5003 144.538L80.5093 138.778C80.2546 138.659 80.1272 138.381 80.2545 138.103C80.3819 137.864 80.6791 137.745 80.9763 137.864L93.9673 143.625C94.222 143.744 94.3494 144.022 94.222 144.3C94.0946 144.499 93.9249 144.578 93.7126 144.578Z" fill="#0B206D"/>
<path d="M106.662 2.03464C114.983 4.69639 119.78 9.90073 121.054 12.1652C121.351 12.6817 121.521 13.1187 121.69 13.5557C122.879 16.8133 123.091 19.4354 123.134 20.1902C123.431 25.3151 127.507 27.7782 128.441 33.6579C129.587 40.8089 125.214 47.8407 123.771 47.6023C122.752 47.4434 123.856 43.0734 121.988 37.5512C120.12 32.0688 116.299 28.1755 112.945 25.5932C106.407 22.5739 99.9115 19.5546 93.3736 16.5352C89.765 21.1437 86.1988 24.163 83.6091 26.1096C81.4015 27.7385 80.892 27.8179 78.1325 29.844C70.9152 35.0881 69.9813 37.7499 68.368 37.3526C65.3962 36.6772 64.1651 26.9439 66.967 18.6408C67.6888 16.4955 70.1086 9.90072 77.156 4.97448C89.4253 -3.52725 104.284 1.27981 106.662 2.03464Z" fill="#0B206D"/>
<path d="M122.751 29.4871C124.619 33.2613 123.727 37.3929 120.755 38.7039C117.783 40.015 113.835 37.9889 111.925 34.2147C110.057 30.4406 110.948 26.3089 113.92 24.9979C116.934 23.6869 120.883 25.713 122.751 29.4871Z" fill="#FBE0E5"/>
<path d="M118.803 39.5774C118.506 39.5774 118.209 39.5377 117.912 39.498C117.615 39.4583 117.445 39.2199 117.487 38.9418C117.53 38.6637 117.827 38.5048 118.082 38.5445C118.973 38.6637 119.78 38.5843 120.544 38.2664C122.157 37.5513 123.134 35.8828 123.219 33.7375C123.219 33.4594 123.473 33.2607 123.771 33.2607C124.068 33.2607 124.323 33.4991 124.323 33.7772C124.238 36.28 123.006 38.3062 121.054 39.1802C120.332 39.4583 119.568 39.5774 118.803 39.5774Z" fill="#0B206D"/>
<path d="M123.728 33.181C123.473 33.181 123.218 32.9823 123.218 32.744C123.133 31.9097 122.921 31.0754 122.581 30.2411C122.454 30.0027 122.624 29.6849 122.879 29.6055C123.133 29.4863 123.473 29.6452 123.558 29.8836C123.94 30.7973 124.195 31.711 124.28 32.6645C124.322 32.9426 124.11 33.181 123.813 33.2207C123.728 33.181 123.728 33.181 123.728 33.181Z" fill="#0B206D"/>
<path d="M122.368 29.2885C122.199 29.2885 121.986 29.2091 121.901 29.0502C119.991 25.9117 116.679 24.402 114.175 25.4747C113.623 25.713 113.156 26.0706 112.731 26.5473C112.561 26.746 112.222 26.7857 111.967 26.6268C111.755 26.4679 111.712 26.15 111.882 25.9117C112.392 25.3158 112.986 24.8788 113.708 24.6007C116.722 23.2896 120.628 24.9979 122.793 28.5734C122.92 28.8118 122.835 29.1296 122.581 29.2488C122.538 29.2488 122.453 29.2885 122.368 29.2885Z" fill="#0B206D"/>
<path d="M117.869 36.1222C117.571 36.1222 117.359 35.9235 117.317 35.6454L116.892 28.1766C116.892 27.8985 117.104 27.6602 117.402 27.6602C117.699 27.6602 117.953 27.8588 117.953 28.1369L118.378 35.6057C118.42 35.8838 118.208 36.0824 117.869 36.1222Z" fill="#0B206D"/>
<path d="M117.401 31.8304C117.316 31.8304 117.189 31.7907 117.104 31.7509L114.812 30.3208C114.557 30.1618 114.514 29.844 114.642 29.6454C114.812 29.407 115.151 29.3673 115.364 29.4865L117.656 30.9167C117.911 31.0756 117.953 31.3934 117.826 31.592C117.741 31.7509 117.571 31.8304 117.401 31.8304Z" fill="#0B206D"/>
<path d="M165.546 169.21L161.004 169.13C160.706 169.13 160.494 168.892 160.494 168.614C160.494 168.336 160.749 168.137 161.046 168.137L165.589 168.217C165.886 168.217 166.098 168.455 166.098 168.733C166.056 169.011 165.843 169.21 165.546 169.21Z" fill="#0B206D"/>
<path d="M158.244 138.977C157.989 138.977 157.734 138.778 157.734 138.54L156.334 123.086C156.291 122.808 156.503 122.57 156.8 122.53C157.14 122.53 157.352 122.728 157.395 122.967L158.796 138.421C158.838 138.699 158.626 138.937 158.329 138.977C158.286 138.977 158.286 138.977 158.244 138.977Z" fill="#0B206D"/>
<path d="M149.92 197.813C137.736 209.89 125.382 228.92 121.476 239.09C120.245 242.268 119.268 246.201 116.127 252.955C112.263 261.298 109.546 264.436 110.905 266.025C112.094 267.416 115.532 266.74 127.844 262.807C138.076 259.55 143.17 257.921 146.651 256.491C156.119 252.637 175.69 244.016 186.516 237.262C215.682 219.067 242.598 176.161 232.579 165.316C222.687 154.629 175.053 172.943 149.92 197.813Z" fill="white"/>
<path d="M110.905 266.544C110.735 266.544 110.523 266.464 110.438 266.266C110.311 266.027 110.395 265.709 110.65 265.59C132.047 254.586 152.298 241.595 170.935 226.856C193.903 208.7 214.493 187.883 232.154 165C232.324 164.761 232.664 164.722 232.876 164.881C233.131 165.039 233.173 165.357 233.003 165.556C215.3 188.518 194.667 209.415 171.614 227.611C152.935 242.35 132.599 255.42 111.16 266.425C111.075 266.504 110.99 266.544 110.905 266.544Z" fill="#93CDDB"/>
<path d="M64.971 228.244C76.9007 232.455 91.2926 241.155 97.2362 246.598C99.1042 248.306 101.057 250.531 105.387 253.987C110.694 258.238 113.496 259.47 113.157 260.94C112.859 262.211 110.397 262.767 101.1 263.84C93.3729 264.754 89.5096 265.191 86.7925 265.27C79.363 265.548 63.7823 265.707 54.5273 264.555C29.5218 261.337 -2.31885 241.473 0.525578 231.502C3.32755 221.689 40.3476 219.544 64.971 228.244Z" fill="white"/>
<path d="M113.114 261.457C95.4955 260.622 77.9195 258.159 60.8953 254.107C39.8381 249.101 19.4601 241.632 0.27077 231.979C0.0160451 231.859 -0.0688438 231.542 0.0585188 231.303C0.185881 231.065 0.525507 230.985 0.780232 231.105C19.8846 240.758 40.1777 248.148 61.1501 253.153C78.1317 257.206 95.6229 259.669 113.156 260.503C113.454 260.503 113.666 260.741 113.666 261.02C113.666 261.258 113.411 261.457 113.114 261.457Z" fill="#93CDDB"/>
<path d="M132.007 235.394C125.978 241.194 116.299 247.193 111.077 249.139C109.421 249.775 107.426 250.292 103.945 251.841C99.6567 253.748 98.0859 255.059 97.2368 254.463C96.4727 253.947 96.7699 252.357 98.5954 246.676C100.081 241.949 100.845 239.605 101.525 237.976C103.35 233.606 107.468 224.508 110.78 219.463C119.695 205.836 141.517 192.726 147.333 197.096C153.107 201.427 144.488 223.475 132.007 235.394Z" fill="#ACE3EC"/>
<path d="M97.2372 255.457C97.0674 255.457 96.8976 255.418 96.7702 255.338C96.2608 255.1 96.0485 254.504 96.3032 253.987C101.652 243.976 108.106 234.402 115.45 225.582C124.535 214.697 135.064 204.844 146.696 196.303C147.163 195.945 147.843 196.025 148.182 196.462C148.564 196.899 148.479 197.534 148.012 197.852C136.465 206.274 126.106 216.008 117.106 226.814C109.846 235.514 103.478 244.969 98.2137 254.901C98.0015 255.259 97.6618 255.457 97.2372 255.457Z" fill="white"/>
<path d="M123.472 275.481C115.406 272.542 105.726 266.622 101.736 262.888C100.505 261.736 99.1884 260.186 96.2591 257.842C92.6929 254.942 90.7825 254.068 91.0372 253.115C91.2495 252.28 92.9052 251.883 99.2309 251.208C104.453 250.652 107.085 250.373 108.91 250.294C113.92 250.135 124.491 250.095 130.732 250.969C147.629 253.274 169.068 266.86 167.073 273.614C165.162 280.209 140.114 281.48 123.472 275.481Z" fill="#ACE3EC"/>
<path d="M167.115 274.568C166.946 274.568 166.776 274.528 166.606 274.449C153.785 267.854 140.114 262.729 126.02 259.273C114.6 256.452 102.797 254.704 90.995 254.068C90.4006 254.029 89.9761 253.552 90.0185 253.035C90.061 252.479 90.528 252.042 91.1224 252.122C103.094 252.757 115.024 254.545 126.572 257.405C140.836 260.941 154.676 266.106 167.625 272.78C168.134 273.058 168.347 273.654 168.049 274.131C167.837 274.409 167.497 274.568 167.115 274.568Z" fill="white"/>
<path d="M105.856 228.243C104.285 234.798 100.252 242.942 97.4925 246.438C96.6434 247.55 95.4546 248.742 93.7565 251.245C91.6338 254.344 91.1243 255.893 90.2328 255.814C89.4686 255.774 88.9591 254.542 87.5581 249.775C86.4119 245.842 85.86 243.856 85.5628 242.465C84.7986 238.612 83.4826 230.547 83.4826 225.66C83.4401 212.431 92.6951 194.315 98.851 195.03C104.922 195.745 109.082 214.775 105.856 228.243Z" fill="#ACE3EC"/>
<path d="M89.2133 256.848C88.6614 256.848 88.1944 256.451 88.152 255.935C87.2605 246.678 87.3454 237.302 88.4068 228.085C89.7228 216.684 92.5673 205.48 96.8127 194.674C97.025 194.158 97.6193 193.88 98.1712 194.079C98.7231 194.277 99.0203 194.833 98.808 195.35C94.6051 205.957 91.8031 217.041 90.5295 228.284C89.4681 237.382 89.3832 246.599 90.2747 255.736C90.3172 256.292 89.8926 256.769 89.2983 256.809C89.2558 256.848 89.2558 256.848 89.2133 256.848Z" fill="white"/>
<path d="M74.8212 263.402C80.9346 259.867 89.9774 256.887 94.5624 256.251C96.0059 256.053 97.7465 256.013 100.846 255.417C104.666 254.662 106.237 253.907 106.789 254.583C107.299 255.139 106.704 256.331 104.03 260.582C101.822 264.078 100.718 265.865 99.8267 267.018C97.4068 270.196 92.185 276.711 88.449 280.167C78.3874 289.464 58.0518 295.9 54.3158 291.291C50.6223 286.762 62.2547 270.672 74.8212 263.402Z" fill="#ACE3EC"/>
<path d="M55.0385 293C54.614 293 54.2318 292.762 54.062 292.404C53.8073 291.888 54.062 291.332 54.6139 291.093C65.652 286.485 76.0957 280.605 85.563 273.653C93.2472 268.011 100.38 261.615 106.748 254.663C107.13 254.266 107.809 254.186 108.234 254.544C108.658 254.901 108.743 255.537 108.361 255.934C101.908 263.006 94.6907 269.481 86.8791 275.202C77.242 282.274 66.6709 288.233 55.463 292.921C55.3356 292.96 55.1659 293 55.0385 293Z" fill="white"/>
<path d="M102.671 230.351C108.275 234.006 107.341 244.256 100.634 253.314C93.9259 262.372 83.9492 266.742 78.3453 263.087C72.7413 259.432 73.6753 249.182 80.383 240.124C87.0908 231.106 97.0675 226.696 102.671 230.351Z" fill="white"/>
<path d="M117.871 267.377C116.3 273.614 105.687 276.594 94.139 274.051C82.6339 271.509 74.5676 264.358 76.1384 258.121C77.7092 251.883 88.3228 248.904 99.8703 251.446C111.375 253.989 119.442 261.1 117.871 267.377Z" fill="white"/>
<path d="M119.74 266.82C113.329 269.124 104.711 262.608 100.466 252.239C96.2202 241.91 97.9608 231.661 104.371 229.356C110.782 227.052 119.4 233.567 123.646 243.936C127.849 254.266 126.108 264.515 119.74 266.82Z" fill="white"/>
<path d="M105.94 245.804C106.28 247.115 105.813 247.949 105.728 249.658C105.643 251.723 106.195 254.584 109.04 258.159C107.214 257.722 104.497 257.365 101.44 258.08C98.6383 258.715 97.6194 259.748 95.5816 259.748C93.8835 259.709 91.506 258.994 88.6191 255.577C89.8503 255.219 93.2892 254.067 95.8364 250.77C99.2752 246.281 98.3411 241.315 98.1713 240.48C101.44 241.354 105.176 242.944 105.94 245.804Z" fill="#0B206D"/>
<path d="M189.574 60.9917C176.498 60.9917 165.332 51.6159 164.101 39.2209C162.827 26.071 173.186 14.3911 187.239 13.1992C201.291 12.0074 213.772 21.7009 215.046 34.8508C216.32 48.0007 205.961 59.6806 191.909 60.8725C191.102 60.9519 190.338 60.9917 189.574 60.9917ZM189.616 21.0256C189.107 21.0256 188.555 21.0653 188.045 21.105C178.663 21.8996 171.7 29.7259 172.549 38.5058C173.399 47.2856 181.72 53.8009 191.144 53.0064C200.527 52.2118 207.489 44.3855 206.64 35.6057C206.216 31.3548 204.05 27.5012 200.569 24.76C197.428 22.2969 193.607 21.0256 189.616 21.0256Z" fill="#EB9B9B"/>
<path d="M194.839 94.8376C192.674 94.8376 190.806 93.2882 190.636 91.2224L187.325 57.1757C187.113 54.9907 188.811 53.044 191.146 52.8454C193.523 52.6467 195.561 54.2358 195.773 56.4209L199.085 90.4675C199.297 92.6526 197.599 94.5992 195.264 94.7979C195.094 94.8376 194.967 94.8376 194.839 94.8376Z" fill="#EB9B9B"/>
<path d="M181.295 84.0728C179.129 84.0728 177.261 82.5234 177.092 80.4575C176.879 78.2725 178.578 76.3259 180.912 76.1272L205.706 74.0216C208.083 73.823 210.121 75.4121 210.333 77.5971C210.545 79.7822 208.847 81.7288 206.512 81.9275L181.719 84.033C181.549 84.0728 181.422 84.0728 181.295 84.0728Z" fill="#EB9B9B"/>
<path d="M228.377 126.462C221.924 126.462 215.853 124.237 211.056 120.145C206.046 115.815 203.117 109.896 202.819 103.499C202.225 90.3098 213.221 79.1066 227.358 78.5901C234.193 78.3517 240.731 80.5765 245.741 84.9068C250.75 89.2371 253.68 95.1565 253.977 101.553C254.571 114.742 243.575 125.946 229.438 126.462C229.098 126.422 228.716 126.462 228.377 126.462ZM211.31 103.142C211.48 107.432 213.475 111.365 216.829 114.266C220.183 117.166 224.556 118.675 229.099 118.477C238.523 118.119 245.868 110.65 245.486 101.831C245.316 97.5402 243.363 93.6072 239.967 90.707C236.613 87.8069 232.198 86.2973 227.698 86.4959C218.273 86.8535 210.928 94.3223 211.31 103.142Z" fill="#ACE3EC"/>
<path d="M227.527 86.5761C225.277 86.5761 223.367 84.9075 223.282 82.7622L221.796 48.5964C221.711 46.4114 223.536 44.5442 225.871 44.4647C228.164 44.3456 230.202 46.0936 230.287 48.2786L231.773 82.4444C231.857 84.6295 230.032 86.4967 227.697 86.5761C227.654 86.5761 227.57 86.5761 227.527 86.5761Z" fill="#ACE3EC"/>
<path d="M214.113 64.8051C213.179 64.8051 212.245 64.527 211.481 63.9709C209.655 62.6201 209.316 60.1173 210.759 58.409L222.519 44.5043C223.283 43.5905 224.429 43.0344 225.66 42.9946C226.934 42.9946 228.08 43.3919 228.929 44.2262L242.048 57.1774C243.661 58.7665 243.576 61.2694 241.878 62.779C240.18 64.2887 237.505 64.2092 235.892 62.6201L226.17 53.006L217.467 63.3352C216.618 64.2887 215.386 64.8051 214.113 64.8051Z" fill="#ACE3EC"/>
</svg>
