<svg width="332" height="336" viewBox="0 0 332 336" fill="none" xmlns="http://www.w3.org/2000/svg">
<path d="M218.446 298.872C218.446 300.754 218.148 304.212 215.811 306.297C213.176 308.637 209.397 308.078 206.612 307.62C193.137 305.687 186.026 304.619 179.91 304.924C171.606 305.331 172.501 307.772 162.457 308.637C153.954 309.349 149.777 307.925 142.368 307.315C135.755 306.755 126.059 306.806 113.727 310.01C94.4838 273.187 74.9919 226.852 61.4669 171.516C56.395 150.713 52.7154 130.878 50.0303 112.212C117.556 145.22 136.65 177.772 141.125 201.931C142.716 210.424 142.02 215.46 144.556 225.225C154.352 263.066 189.756 285.648 218.446 298.872Z" fill="#FBE0E5"/>
<path d="M94.3363 161.597C89.1649 149.391 78.9217 141.558 68.4299 141.812C62.7613 141.965 58.2862 144.406 55.6011 146.339C52.8165 139.015 49.3358 127.012 49.9822 112.16C51.2253 83.4239 67.0376 64.2493 73.3526 56.5184C95.5297 29.562 124.519 21.882 135.16 19.5933C127.701 36.53 120.243 53.4159 112.784 70.3526C106.668 100.818 100.502 131.233 94.3363 161.597Z" fill="#FBE0E5"/>
<path d="M127.749 106.159C123.821 99.8523 119.843 93.5964 115.915 87.2896C122.926 77.3208 129.987 67.3521 136.998 57.4342C142.816 50.4153 150.821 48.0757 155.844 50.8731C161.214 53.8739 161.512 61.9099 161.612 64.809C162.059 75.8967 154.899 83.7802 152.81 85.9164C144.407 92.6809 136.053 99.3945 127.749 106.159Z" fill="#FBE0E5"/>
<path d="M132.574 123.655C128.645 117.348 124.667 111.092 120.739 104.785C127.75 94.8167 134.811 84.8479 141.822 74.93C147.64 67.9112 155.646 65.5716 160.668 68.3689C166.038 71.3697 166.336 79.4058 166.436 82.3049C166.883 93.3926 159.723 101.276 157.635 103.412C149.231 110.177 140.927 116.941 132.574 123.655Z" fill="#FBE0E5"/>
<path d="M135.606 140.439C131.628 134.133 127.7 127.877 123.771 121.57C130.783 111.601 137.843 101.632 144.855 91.7144C150.672 84.6956 158.678 82.356 163.7 85.1534C169.07 88.1542 169.369 96.1902 169.468 99.0893C169.916 110.177 162.755 118.06 160.667 120.197C152.313 126.961 143.96 133.675 135.606 140.439Z" fill="#FBE0E5"/>
<path d="M130.884 105.498C130.734 105.498 130.535 105.447 130.436 105.294C130.187 105.04 130.187 104.633 130.436 104.379L150.823 84.492C151.072 84.2377 151.469 84.2886 151.718 84.492C151.967 84.7463 151.967 85.1532 151.718 85.4075L131.331 105.294C131.182 105.396 131.033 105.498 130.884 105.498Z" fill="#0B206D"/>
<path d="M137.098 122.333C136.949 122.333 136.75 122.282 136.65 122.129C136.402 121.875 136.451 121.468 136.65 121.214L160.22 98.428C160.468 98.1737 160.866 98.2246 161.115 98.428C161.363 98.6823 161.313 99.0892 161.115 99.3435L137.545 122.129C137.396 122.282 137.247 122.333 137.098 122.333Z" fill="#0B206D"/>
<path d="M198.359 321.556C186.773 322.268 171.408 320.081 164.298 317.639C162.06 316.876 159.574 315.707 154.601 314.333C148.485 312.655 145.701 312.604 145.402 311.282C145.154 310.112 146.944 308.79 154.204 304.568C160.22 301.059 163.253 299.329 165.441 298.261C171.458 295.362 184.287 289.717 192.392 287.377C214.37 281.172 248.63 286.512 250.271 295.871C251.961 305.128 222.226 320.081 198.359 321.556Z" fill="white"/>
<path d="M145.403 311.892C145.155 311.892 144.906 311.739 144.807 311.485C144.707 311.18 144.856 310.773 145.155 310.671C160.022 305.127 175.586 300.906 191.299 298.261C210.741 294.955 230.581 293.938 250.322 295.26C250.67 295.26 250.918 295.566 250.918 295.922C250.918 296.278 250.62 296.583 250.272 296.532C230.581 295.26 210.84 296.278 191.547 299.533C175.884 302.177 160.42 306.348 145.602 311.892C145.552 311.892 145.503 311.892 145.403 311.892Z" fill="#93CDDB"/>
<path d="M210.192 133.37C204.474 129.657 195.274 133.827 188.164 142.677C181.053 133.776 171.854 129.657 166.136 133.37C159.572 137.591 160.169 150.561 167.479 162.31C173.346 171.77 181.7 177.415 188.214 177.11C194.678 177.466 203.081 171.77 208.949 162.31C216.109 150.561 216.706 137.642 210.192 133.37Z" fill="white"/>
<path d="M280.652 39.7852C277.221 36.7336 270.657 38.5646 265.088 43.7524C261.21 37.1405 255.491 33.4276 251.315 35.3095C246.541 37.4456 245.696 46.1429 249.375 54.6875C252.359 61.5538 257.381 66.1821 261.707 66.6399C265.983 67.5045 272.099 64.6054 276.922 58.909C282.939 51.8902 284.58 43.2947 280.652 39.7852Z" fill="white"/>
<path d="M208.602 0.0627791C204.475 -0.598415 200.248 4.02994 198.359 10.7945C192.243 7.53936 186.027 7.48849 183.69 10.9979C181.005 15.0159 184.436 22.1873 191.298 27.0191C196.867 30.8846 202.933 32.0035 206.514 30.2234C210.243 28.7993 213.624 23.5097 214.718 16.6943C216.061 8.30227 213.326 0.825695 208.602 0.0627791Z" fill="white"/>
<path d="M134.363 264.337C138.042 275.425 139.832 290.988 139.186 298.566C138.987 300.957 138.44 303.703 138.341 308.942C138.241 315.35 138.888 318.097 137.645 318.758C136.551 319.318 134.761 317.944 128.644 312.044C123.573 307.162 121.037 304.72 119.445 302.839C115.02 297.753 106.02 286.868 101.595 279.595C89.7104 259.963 86.2296 225.072 95.2297 220.901C104.13 216.782 126.755 241.551 134.363 264.337Z" fill="white"/>
<path d="M135.954 319.368C135.755 319.368 135.556 319.267 135.456 319.114C126.009 306.144 117.854 292.208 111.141 277.611C102.837 259.607 96.7212 240.534 92.9421 221.003C92.8924 220.647 93.0913 220.342 93.4393 220.24C93.8371 220.189 94.0858 220.393 94.1852 220.749C97.9643 240.228 104.031 259.2 112.285 277.103C118.948 291.598 127.103 305.483 136.501 318.351C136.699 318.656 136.65 319.012 136.351 319.216C136.202 319.368 136.103 319.368 135.954 319.368Z" fill="#93CDDB"/>
<path d="M86.3307 259.098C100.452 269.067 116.215 286.156 122.132 295.87C123.972 298.922 125.762 302.737 130.188 309.094C135.657 316.927 138.889 319.572 137.945 321.555C137.149 323.234 133.718 323.234 121.237 321.708C110.895 320.436 105.673 319.826 102.093 319.063C92.2976 317.029 71.9604 312.146 60.2752 307.416C28.7997 294.65 -5.90781 255.843 1.25248 242.568C8.2636 229.446 57.242 238.601 86.3307 259.098Z" fill="#ACE3EC"/>
<path d="M137.944 322.827C137.844 322.827 137.695 322.827 137.595 322.776C114.871 315.808 92.7939 306.45 71.9594 295.057C46.2023 280.968 22.1357 263.625 0.406227 243.484C-0.091016 243.026 -0.140762 242.212 0.306757 241.704C0.754275 241.195 1.54989 241.144 2.04714 241.602C23.5777 261.59 47.4951 278.832 73.1031 292.819C93.7884 304.161 115.717 313.418 138.292 320.335C138.938 320.538 139.336 321.25 139.137 321.912C138.988 322.471 138.491 322.827 137.944 322.827Z" fill="white"/>
<path d="M168.524 245.569C156.292 257.827 143.562 277.459 139.435 288.038C138.143 291.344 136.999 295.464 133.717 302.483C129.64 311.129 126.905 314.333 128.148 316.113C129.242 317.639 132.573 317.029 144.656 313.367C154.651 310.315 159.673 308.789 163.104 307.416C172.403 303.703 191.646 295.311 202.337 288.598C231.226 270.491 258.923 226.191 249.674 214.341C240.475 202.693 193.784 220.24 168.524 245.569Z" fill="#ACE3EC"/>
<path d="M128.149 317.385C127.701 317.385 127.254 317.131 127.055 316.673C126.756 316.063 127.005 315.3 127.602 314.944C148.635 304.161 168.724 291.192 187.221 276.442C210.094 258.183 230.73 237.025 248.68 213.578C249.128 213.018 249.874 212.917 250.421 213.374C250.967 213.781 251.067 214.595 250.619 215.155C232.57 238.805 211.785 260.116 188.762 278.477C170.116 293.379 149.928 306.399 128.745 317.284C128.497 317.334 128.298 317.385 128.149 317.385Z" fill="white"/>
<path d="M174.789 307.06C175.982 305.891 176.778 304.416 176.778 302.788C176.778 299.889 174.441 297.498 171.258 296.583C171.756 295.871 172.104 295.159 172.104 294.396C172.104 292.667 170.761 291.141 168.573 289.971C168.076 285.343 165.49 281.63 162.01 280.511C161.413 277.612 158.877 275.476 155.894 275.476C154.651 275.476 153.457 275.883 152.512 276.493C151.12 272.526 148.932 269.983 146.446 269.983C144.308 269.983 142.369 271.915 140.927 275.018C139.882 274.509 138.689 274.255 137.446 274.255C135.656 274.255 134.015 274.814 132.623 275.832C131.877 275.679 131.131 275.527 130.335 275.527C126.407 275.527 123.225 277.764 123.225 280.511C123.225 280.969 123.324 281.376 123.523 281.833C118.352 284.224 114.772 288.903 114.772 294.396C114.772 295.464 114.921 296.481 115.169 297.448C111.987 299.787 110.744 303.653 112.435 306.247C112.484 306.348 112.584 306.399 112.683 306.501C111.788 307.366 111.241 308.332 111.241 309.349C111.241 311.028 112.683 312.502 114.971 313.672C114.921 314.079 114.871 314.486 114.871 314.893C114.871 319.674 118.65 323.59 123.374 323.59C123.821 323.59 124.269 323.539 124.717 323.438C125.065 330.456 128.545 336 132.822 336C134.711 336 136.402 334.881 137.794 333.101C138.391 333.254 139.037 333.305 139.683 333.305C140.827 333.305 141.971 333.101 142.965 332.694C145.004 334.729 147.938 336 151.17 336C157.336 336 162.308 331.525 162.308 325.981C162.308 325.625 162.209 325.319 162.209 324.963C163.651 325.574 165.341 325.981 167.131 325.981C172.551 325.981 176.927 322.776 176.927 318.86C176.927 317.843 176.629 316.927 176.131 316.063C176.629 314.944 176.927 313.774 176.927 312.553C176.778 310.519 176.032 308.586 174.789 307.06Z" fill="white"/>
<path d="M139.434 298.211C139.434 299.736 138.24 300.957 136.749 300.957C135.257 300.957 134.063 299.736 134.063 298.211C134.063 296.685 135.257 295.464 136.749 295.464C138.24 295.464 139.434 296.685 139.434 298.211Z" fill="#0B206D"/>
<path d="M132.773 312.146C130.286 312.146 128.297 310.112 128.297 307.569C128.297 305.026 130.286 302.991 132.773 302.991C135.259 302.991 137.248 305.026 137.248 307.569C137.248 310.112 135.209 312.146 132.773 312.146Z" fill="#0B206D"/>
<path d="M155.992 311.231C155.992 314.995 153.009 318.046 149.329 318.046C145.649 318.046 142.666 314.995 142.666 311.231C142.666 307.467 145.649 304.416 149.329 304.416C152.959 304.365 155.992 307.416 155.992 311.231Z" fill="#0B206D"/>
<path d="M149.279 296.329C149.279 297.855 148.086 299.075 146.594 299.075C145.103 299.075 143.909 297.855 143.909 296.329C143.909 294.803 145.103 293.582 146.594 293.582C148.086 293.582 149.279 294.803 149.279 296.329Z" fill="#0B206D"/>
<path d="M155.198 299.024C158.439 299.024 161.065 296.337 161.065 293.023C161.065 289.708 158.439 287.021 155.198 287.021C151.958 287.021 149.331 289.708 149.331 293.023C149.331 296.337 151.958 299.024 155.198 299.024Z" fill="#0B206D"/>
<path d="M142.419 302.33C142.419 303.449 141.524 304.365 140.43 304.365C139.336 304.365 138.441 303.449 138.441 302.33C138.441 301.211 139.336 300.296 140.43 300.296C141.524 300.296 142.419 301.211 142.419 302.33Z" fill="#0B206D"/>
<path d="M151.419 305.229C152.572 305.229 153.507 304.273 153.507 303.093C153.507 301.913 152.572 300.957 151.419 300.957C150.266 300.957 149.331 301.913 149.331 303.093C149.331 304.273 150.266 305.229 151.419 305.229Z" fill="#0B206D"/>
<path d="M140.777 294.599C143.001 294.599 144.804 292.755 144.804 290.48C144.804 288.204 143.001 286.36 140.777 286.36C138.552 286.36 136.749 288.204 136.749 290.48C136.749 292.755 138.552 294.599 140.777 294.599Z" fill="#0B206D"/>
<path d="M57.6376 43.0403C62.7095 58.8581 92.4447 53.4668 136.301 75.5913C146.246 80.6266 153.904 85.5092 158.28 88.51C177.075 95.834 195.871 103.209 214.667 110.533C220.335 112.364 225.954 114.195 231.573 116.026C261.408 125.74 291.292 135.455 321.127 145.169C322.121 144.966 327.143 143.999 330.077 139.422C333.06 134.641 332.563 127.927 328.635 122.841C300.392 109.923 272.148 96.953 243.905 83.9834C238.435 81.4912 232.965 78.999 227.545 76.456C209.396 68.9285 191.197 61.4011 173.048 53.8737C161.81 52.1444 152.611 49.7539 145.849 47.8212C139.086 45.8376 133.716 44.2609 127.102 41.1075C116.263 35.9706 114.622 32.6646 105.224 27.1208C94.7817 20.9666 80.1628 12.3202 69.5715 17.5589C61.6156 21.4752 54.6542 33.7327 57.6376 43.0403Z" fill="#EDA3A4"/>
<path d="M57.6376 43.0403C62.7095 58.8581 92.4447 53.4668 136.301 75.5913C146.246 80.6266 153.904 85.5092 158.28 88.51C177.075 95.834 195.871 103.209 214.667 110.533C220.335 112.364 225.954 114.195 231.573 116.026C235.7 105.345 239.778 94.6642 243.905 83.9834C238.435 81.4912 232.965 78.999 227.545 76.456C209.396 68.9285 191.197 61.4011 173.048 53.8737C161.81 52.1444 152.611 49.7539 145.849 47.8212C139.086 45.8376 133.716 44.2609 127.102 41.1075C116.263 35.9706 114.622 32.6646 105.224 27.1208C94.7817 20.9666 80.1628 12.3202 69.5715 17.5589C61.6156 21.4752 54.6542 33.7327 57.6376 43.0403Z" fill="#0B206D"/>
<path d="M226.379 117.52L235.309 121.115L250.532 81.55L241.602 77.9554L226.379 117.52Z" fill="#EDA3A4"/>
<path d="M167.735 82.5034L204.576 97.7183L212.284 78.1926L175.442 62.9777L167.735 82.5034Z" fill="white"/>
<path opacity="0.48" d="M170.355 82.255L202.816 95.6609L209.592 78.4934L177.131 65.0875L170.355 82.255Z" fill="#61CADB"/>
<path d="M193.331 88.9207L195.683 89.8918L200.56 77.535L198.209 76.5639L193.331 88.9207Z" fill="#3F469A"/>
<path d="M179.448 83.1936L181.8 84.1648L186.677 71.808L184.326 70.8368L179.448 83.1936Z" fill="#3F469A"/>
<path d="M140.032 208.796C120.391 197.403 100.8 186.011 81.1589 174.669C79.9655 151.018 78.8218 127.368 77.6284 103.667C96.1258 83.8307 108.109 65.419 115.817 51.5339C127.005 31.5455 135.955 9.21756 141.275 10.6417C143.165 11.1503 143.961 14.4562 144.358 17.3553C146.397 21.9328 148.038 27.2224 148.734 33.0714C152.364 62.3674 130.784 85.1531 126.358 89.6797C131.629 102.141 137.198 118.467 140.43 138.201C145.204 167.345 142.916 192.063 140.032 208.796Z" fill="#FBE0E5"/>
<path d="M140.628 34.8518L127.999 30.8847C131.032 23.6624 134.015 16.4402 137.048 9.16702C137.595 8.35324 139.932 4.94555 142.071 5.35244C144.258 5.81019 145.999 10.2351 145.651 16.5927C143.91 22.7469 142.269 28.7994 140.628 34.8518Z" fill="white"/>
<path d="M97.2201 161.699C96.9218 161.699 96.6732 161.496 96.6235 161.241C94.6842 153.765 93.0433 146.034 91.651 138.303C88.0212 117.348 86.1813 106.82 89.1151 94.8169C91.7504 84.187 97.6676 74.3199 106.767 65.5718C107.016 65.3175 107.414 65.3684 107.662 65.5718C107.911 65.8261 107.861 66.233 107.662 66.4873C98.7615 75.0829 92.9438 84.7464 90.3582 95.1221C87.4742 106.871 89.2643 117.298 92.8941 138.1C94.2367 145.831 95.8776 153.511 97.8168 160.987C97.9162 161.343 97.7174 161.699 97.3693 161.75C97.3196 161.699 97.2699 161.699 97.2201 161.699Z" fill="#0B206D"/>
<path d="M126.407 90.392C126.258 90.392 126.109 90.3412 126.01 90.2394C125.761 89.9851 125.711 89.6291 125.96 89.3239L134.115 79.7112C134.363 79.4569 134.761 79.4061 135.01 79.6604C135.258 79.9147 135.308 80.2707 135.059 80.5759L126.905 90.1886C126.755 90.2903 126.606 90.392 126.407 90.392Z" fill="#0B206D"/>
<path d="M140.133 136.981C139.884 136.981 139.636 136.828 139.536 136.523L125.812 89.9345C125.713 89.5784 125.912 89.2224 126.21 89.1207C126.558 89.019 126.906 89.2224 127.006 89.5276L140.73 136.116C140.829 136.472 140.63 136.828 140.332 136.93C140.282 136.981 140.183 136.981 140.133 136.981Z" fill="#0B206D"/>
</svg>
