<svg width="299" height="257" viewBox="0 0 299 257" fill="none" xmlns="http://www.w3.org/2000/svg">
<path d="M208.318 92.3661H85.4878C83.6595 92.3661 82.2051 91.0214 82.2051 89.3308V3.03533C82.2051 1.34477 83.6595 0 85.4878 0H208.318C210.146 0 211.601 1.34477 211.601 3.03533V89.3308C211.642 91.0214 210.146 92.3661 208.318 92.3661Z" fill="white"/>
<path d="M202.998 87.6786H90.8056C89.2266 87.6786 87.9385 86.4875 87.9385 85.0275V7.33849C87.9385 5.87846 89.2266 4.68738 90.8056 4.68738H202.998C204.577 4.68738 205.866 5.87846 205.866 7.33849V85.0275C205.907 86.4875 204.619 87.6786 202.998 87.6786Z" fill="#ACE3EC"/>
<path opacity="0.52" d="M195.478 56.5955C190.242 60.745 175.158 71.58 152.512 73.2321C123.176 75.3838 102.69 60.5529 98.3271 57.2102C109.297 44.4158 120.225 31.6597 131.154 18.8652H162.9C173.787 31.4676 184.632 44.0315 195.478 56.5955Z" fill="#61CADB"/>
<path d="M167.637 42.6101C166.224 46.7212 160.822 48.8728 156.418 48.2965C151.556 47.6818 148.855 43.8396 148.481 42.6101C148.398 42.3795 148.024 41.1885 148.564 40.8042C148.772 40.6506 148.938 40.7274 149.146 40.5353C149.437 40.1895 149.063 39.7669 149.271 39.1521C149.395 38.7679 149.645 38.8447 149.936 38.3452C150.351 37.6537 150.102 37.1926 150.434 36.9236C150.85 36.5778 151.598 37.0389 152.304 37.0773C154.216 37.231 154.922 34.2341 157.041 33.1583C159.784 31.7751 165.061 33.3888 167.139 37.0389C167.263 37.3463 168.593 39.8053 167.637 42.6101Z" fill="white"/>
<path d="M156.999 46.6827C158.661 49.5259 150.309 60.2071 140.71 59.8229C135.557 59.5924 129.366 56.2113 129.2 52.1386C129.117 49.7564 131.07 46.9516 133.23 46.7211C136.015 46.4137 137.51 50.4864 140.668 50.1406C142.331 49.9485 142.746 48.719 144.533 47.4895C148.688 44.6463 155.835 44.6847 156.999 46.6827Z" fill="white"/>
<path d="M137.635 46.9904C137.635 49.411 136.638 51.3705 135.35 51.3705C134.103 51.3705 133.064 49.411 133.064 46.9904C133.064 44.5698 134.062 42.6103 135.35 42.6103C136.638 42.5719 137.635 44.5314 137.635 46.9904Z" fill="white"/>
<path d="M136.057 42.764C135.974 44.0703 135.517 44.7235 135.101 45.0309C134.146 45.7993 133.19 45.223 131.694 46.0683C130.821 46.5677 130.988 46.8751 129.783 47.6051C129.076 48.0278 127.954 48.7194 127.289 48.3736C126.915 48.1815 126.915 47.7204 126.832 46.6446C126.624 43.4172 126.417 42.9945 126.832 42.7256C127.497 42.3413 128.993 42.9177 129.242 43.7245C129.45 44.3393 128.827 44.9925 128.951 45.0693C129.076 45.1461 129.616 44.1856 130.655 43.4556C131.985 42.495 133.938 42.034 135.558 42.5719C135.766 42.6487 135.932 42.7256 136.057 42.764Z" fill="white"/>
<path d="M138.591 49.1035C136.514 50.602 134.228 51.1015 133.439 50.1793C132.649 49.2572 133.688 47.2977 135.766 45.7993C137.843 44.3008 140.129 43.8013 140.918 44.7235C141.666 45.6456 140.627 47.6051 138.591 49.1035Z" fill="white"/>
<path d="M141.127 45.3382C139.963 46.1066 139.132 46.1451 138.592 46.0682C137.346 45.8377 137.221 44.8003 135.6 44.224C134.645 43.8782 134.479 44.1855 133.107 43.7629C132.318 43.5324 131.03 43.1097 130.905 42.4181C130.863 42.0339 131.237 41.765 132.11 41.035C134.686 38.8833 134.977 38.4607 135.434 38.6144C136.182 38.8449 136.598 40.3049 136.057 40.9581C135.642 41.496 134.728 41.4576 134.728 41.5729C134.728 41.7265 135.891 41.496 137.138 41.8034C138.8 42.1876 140.379 43.3018 140.919 44.8003C141.085 45.0308 141.127 45.2229 141.127 45.3382Z" fill="white"/>
<path d="M149.935 46.1832C149.935 47.4512 148.065 48.4886 145.78 48.4886C143.494 48.4886 141.625 47.4512 141.625 46.1832C141.625 44.9153 143.494 43.8779 145.78 43.8779C148.065 43.8779 149.935 44.9153 149.935 46.1832Z" fill="white"/>
<path d="M144.908 63.5498C144.742 63.5498 144.576 63.5498 144.41 63.5498C139.216 63.4729 135.226 62.935 133.232 62.474C131.279 62.0129 129.326 61.4366 127.705 60.7834C124.007 59.285 121.763 58.4013 120.517 56.4033C118.855 53.7906 119.81 50.909 121.14 46.9131C122.303 43.3399 123.342 40.2277 126.417 37.9609C128.329 36.5777 129.866 36.3471 131.362 36.155C132.816 35.9629 134.229 35.7324 136.057 34.5029C137.969 33.1965 138.717 31.8518 139.382 30.6223C140.047 29.3928 140.67 28.2401 142.415 27.6638C144.451 26.9722 145.905 27.7022 147.734 28.6628C149.313 29.4696 151.266 30.4686 154.216 30.8528C157.416 31.2755 159.826 30.776 161.737 30.3917C163.981 29.9307 165.726 29.5465 167.513 30.8144C169.715 32.3513 169.965 35.0024 170.38 39.4209C170.629 42.1104 170.588 47.5663 167.679 53.5601C166.599 55.7502 166.1 56.8644 164.77 58.1323C162.194 60.5913 158.953 61.2829 153.593 62.3971C149.728 63.1272 147.651 63.5498 144.908 63.5498ZM128.079 59.8997C129.658 60.5145 131.528 61.1292 133.44 61.5519C135.393 62.0129 139.299 62.5124 144.41 62.5892C147.277 62.6661 149.313 62.205 153.343 61.3982C159.119 60.2071 161.737 59.5924 164.023 57.4023C165.228 56.2496 165.726 55.2123 166.723 53.0991C169.508 47.2974 169.549 42.0336 169.341 39.4209C168.967 35.1561 168.76 32.7739 166.89 31.506C165.477 30.5454 164.064 30.8144 161.987 31.2754C159.992 31.6981 157.457 32.1976 154.091 31.7749C150.933 31.3523 148.897 30.3149 147.277 29.4696C145.532 28.5859 144.368 28.0096 142.789 28.5475C141.418 29.0086 140.961 29.8538 140.337 31.0449C139.673 32.2744 138.842 33.8113 136.722 35.2329C134.686 36.6161 133.107 36.8466 131.57 37.0771C130.115 37.2693 128.786 37.4614 127.082 38.6909C124.256 40.7656 123.259 43.7241 122.137 47.1437C120.891 50.909 120.018 53.637 121.431 55.8654C122.47 57.6328 124.464 58.4397 128.079 59.8997Z" fill="white"/>
<path d="M145.78 65.7013C144.949 65.7013 144.45 65.7013 144.408 65.7013C138.757 65.5092 132.94 64.9713 127.164 64.0107C126.873 63.9723 126.707 63.7034 126.749 63.4344C126.79 63.1655 127.081 62.9733 127.33 63.0502C133.064 63.9723 138.84 64.5486 144.45 64.7407C144.658 64.7407 149.769 64.8944 155.919 64.126C157.913 63.8955 160.24 63.5112 162.858 62.3202C164.063 61.7823 165.102 61.3212 166.224 60.3991C168.509 58.5164 169.299 56.1727 170.545 51.9079C171.044 50.1789 171.418 48.5267 171.709 46.7593C171.75 46.4904 172 46.2983 172.29 46.3367C172.581 46.3751 172.789 46.6056 172.748 46.8746C172.457 48.642 172.083 50.371 171.584 52.1384C170.421 56.0574 169.589 58.9006 166.972 61.0907C165.767 62.0896 164.686 62.5891 163.398 63.1655C160.614 64.395 158.204 64.7792 156.126 65.0481C151.639 65.6244 147.774 65.7013 145.78 65.7013Z" fill="white"/>
<path d="M123.299 61.5904C122.759 61.5904 122.261 61.5136 121.804 61.3599C118.77 60.4762 117.731 57.1335 117.316 55.8656C116.443 53.0223 116.984 50.6402 117.316 49.3723C117.898 46.8749 119.103 44.5311 120.889 42.4563C121.056 42.2642 121.388 42.2258 121.596 42.3795C121.804 42.5332 121.845 42.8406 121.679 43.0711C120.017 45.0306 118.853 47.2207 118.313 49.6028C118.022 50.8707 117.524 53.0608 118.313 55.635C118.646 56.7877 119.601 59.7462 122.095 60.5146C122.635 60.6683 123.216 60.7067 123.84 60.6683C124.172 60.6299 124.38 60.822 124.421 61.0909C124.463 61.3599 124.255 61.5904 123.964 61.6288C123.757 61.5904 123.507 61.5904 123.299 61.5904Z" fill="white"/>
<path d="M149.395 69.8511C147.275 69.8127 145.987 69.3516 144.491 68.7753C143.494 68.3911 142.372 67.9684 140.876 67.6226C139.297 67.2384 138.591 67.2384 137.51 67.2384C136.555 67.2384 135.308 67.2384 132.981 66.931C129.075 66.47 124.172 65.8552 119.559 63.0889C117.814 62.0515 116.318 61.1678 115.113 59.3619C112.703 55.8271 113.41 51.9081 113.825 49.5644C114.158 47.5664 114.615 45.1074 116.568 42.8405C117.316 41.9953 117.897 41.5342 118.645 40.9963C119.393 40.42 120.266 39.7668 121.554 38.4605C122.593 37.4231 123.008 36.8083 123.299 36.3473C123.632 35.8478 123.881 35.502 124.587 35.0025C126.208 33.8883 127.621 33.7346 129.034 33.5809C130.072 33.4656 131.111 33.3504 132.15 32.8125C134.02 31.8519 135.391 29.8924 136.181 26.8955C136.264 26.6265 136.513 26.4728 136.804 26.5497C137.095 26.6265 137.261 26.8571 137.178 27.126C136.305 30.3534 134.768 32.5435 132.649 33.6577C131.402 34.2725 130.239 34.4262 129.158 34.5414C127.828 34.6951 126.623 34.8104 125.252 35.7709C124.67 36.1551 124.546 36.3857 124.213 36.8467C123.881 37.3078 123.424 37.961 122.385 39.0752C121.014 40.4584 120.1 41.1884 119.352 41.7263C118.645 42.2258 118.105 42.6484 117.44 43.4169C115.654 45.5301 115.238 47.7585 114.906 49.7181C114.49 51.9465 113.867 55.635 116.027 58.8625C117.108 60.4762 118.479 61.2446 120.183 62.282C124.629 64.9331 129.158 65.5094 133.189 65.9705C135.474 66.2395 136.638 66.2395 137.593 66.2779C138.674 66.2779 139.505 66.2779 141.209 66.7005C142.788 67.0847 143.951 67.5074 144.948 67.8916C146.403 68.4295 147.566 68.8906 149.311 68.8906C151.431 68.8906 152.885 68.3527 155.004 67.5074L155.253 67.3921C161.611 64.9331 164.603 64.011 166.223 63.5499C167.678 63.1273 168.052 63.012 168.924 62.3973C174.077 58.6703 175.157 51.7928 175.116 46.6827C175.116 46.4138 175.365 46.1832 175.614 46.1832C175.905 46.1832 176.154 46.4138 176.154 46.6443C176.196 51.985 175.074 59.1314 169.589 63.1273C168.592 63.8573 168.093 64.011 166.597 64.4336C165.018 64.9331 162.027 65.8168 155.711 68.2758L155.461 68.3911C153.176 69.2364 151.597 69.8511 149.395 69.8511Z" fill="white"/>
<path d="M171.834 44.723C171.46 44.6846 171.294 44.4157 171.335 44.1467C171.792 41.5724 171.834 38.9982 171.418 36.5392C171.003 34.1186 170.712 32.3512 169.258 30.8143C167.513 28.9701 165.186 28.4706 163.897 28.2016C161.321 27.6637 159.825 28.048 158.246 28.4706C156.792 28.8548 155.296 29.239 153.011 28.8164C150.933 28.4322 149.645 27.6253 148.481 26.8953C147.235 26.1269 146.154 25.4353 144.284 25.4353C142.581 25.4353 141.002 25.9348 139.423 26.8953C139.173 27.049 138.841 26.9722 138.716 26.7416C138.55 26.5111 138.633 26.2037 138.883 26.0884C140.628 25.0511 142.415 24.5132 144.243 24.4747C146.528 24.4747 147.816 25.2432 149.146 26.0884C150.268 26.78 151.39 27.5101 153.301 27.8559C155.337 28.2401 156.667 27.8943 158.038 27.5101C159.659 27.0874 161.363 26.6264 164.188 27.2411C165.476 27.5101 168.136 28.0864 170.089 30.1612C171.751 31.9286 172.083 33.8881 172.499 36.3855C172.914 38.9598 172.914 41.6109 172.416 44.3004C172.291 44.5309 172.083 44.723 171.834 44.723Z" fill="white"/>
<path d="M162.028 68.545C161.821 68.545 161.613 68.3913 161.53 68.1992C161.447 67.9302 161.613 67.6613 161.904 67.6228C162.693 67.4307 163.815 67.1233 165.186 66.7007C167.389 66.0475 168.511 65.7017 169.383 65.3175C171.378 64.3954 172.707 63.0891 173.497 62.2054C175.325 60.0921 175.824 57.9789 176.281 56.2884C176.696 54.6747 176.78 53.3299 176.821 52.5999C176.904 51.6778 176.863 51.063 176.863 49.9872L176.821 48.6809C176.78 46.9903 176.821 46.1066 176.821 45.4919C176.821 45.0308 176.821 44.7234 176.821 44.3008C176.738 41.9955 175.99 39.5749 174.577 37.0775C174.453 36.8469 174.536 36.5396 174.785 36.4243C175.034 36.309 175.367 36.3859 175.492 36.6164C176.987 39.2291 177.777 41.8033 177.86 44.2623C177.86 44.685 177.86 45.0308 177.86 45.4919C177.86 46.1066 177.818 46.9903 177.86 48.6424L177.902 49.9488C177.943 51.063 177.943 51.6778 177.86 52.6383C177.818 53.4067 177.694 54.8284 177.32 56.4805C176.904 58.1711 176.323 60.5148 174.37 62.7817C173.497 63.7807 172.043 65.1638 169.882 66.1628C168.926 66.6239 167.804 66.9312 165.519 67.6228C164.147 68.0455 162.984 68.3528 162.195 68.545C162.111 68.545 162.07 68.545 162.028 68.545Z" fill="white"/>
<path d="M145.656 20.4791C143.911 20.4791 142.166 20.4791 140.421 20.4407C137.928 20.4023 135.393 20.287 132.9 20.1717C132.609 20.1717 132.401 19.9412 132.401 19.6723C132.401 19.4033 132.65 19.2112 132.941 19.2112C135.434 19.3265 137.969 19.4033 140.462 19.4802C147.692 19.6338 155.006 19.4802 162.153 19.0191C162.485 18.9807 162.693 19.2112 162.693 19.4802C162.693 19.7491 162.485 19.9796 162.194 19.9796C156.751 20.3254 151.183 20.4791 145.656 20.4791Z" fill="white"/>
<path d="M148.274 22.6689C144.243 22.6689 140.794 22.3231 138.01 22.0158C135.558 21.7468 133.065 21.401 130.697 20.9784C130.406 20.94 130.24 20.671 130.281 20.402C130.323 20.1331 130.614 19.941 130.904 20.0178C133.273 20.4405 135.683 20.7863 138.135 21.0168C142.415 21.4779 147.733 22.0158 154.382 21.3626C157.54 21.0552 160.698 20.4789 163.814 19.7105C164.105 19.6336 164.396 19.7873 164.438 20.0562C164.521 20.3252 164.355 20.5942 164.064 20.6326C160.906 21.4394 157.664 22.0158 154.465 22.3231C152.304 22.5921 150.227 22.6689 148.274 22.6689Z" fill="white"/>
<path d="M147.152 24.1292C141.21 24.1292 135.268 23.5144 129.451 22.2849C129.16 22.2081 128.993 21.9775 129.077 21.7086C129.16 21.4396 129.409 21.286 129.7 21.3628C135.434 22.5539 141.293 23.1686 147.152 23.1686C152.886 23.1686 158.538 22.5923 164.106 21.4396C164.396 21.4012 164.646 21.5549 164.729 21.8239C164.77 22.0928 164.604 22.3233 164.355 22.4002C158.745 23.5528 152.969 24.1292 147.235 24.1292C147.194 24.1292 147.194 24.1292 147.152 24.1292Z" fill="white"/>
<path d="M117.815 64.8562C117.69 64.8562 117.566 64.8178 117.483 64.7409C115.571 63.0888 111.042 58.6319 110.294 52.6765C109.962 50.2175 110.336 47.9122 110.626 46.2216C111.208 42.5331 112.039 41.7263 112.33 41.4573C113.078 40.7273 113.784 40.5736 114.532 40.3815C115.197 40.2278 115.987 39.9973 117.067 39.3441C118.438 38.4988 119.311 37.4614 120.267 36.3856C121.139 35.3866 121.43 34.8487 121.679 34.4261C121.887 34.0419 122.095 33.6577 122.635 33.1966C123.716 32.2361 124.671 32.044 125.876 31.8134C126.832 31.6213 127.996 31.4292 129.658 30.7376C131.154 30.1229 133.896 28.9702 134.062 27.3565C134.104 27.0491 134.021 26.8186 133.938 26.5496C133.854 26.1654 133.73 25.7428 133.979 25.2433C134.519 24.3212 136.015 24.0138 138.633 24.2827C138.924 24.3212 139.132 24.5517 139.09 24.8206C139.049 25.0896 138.799 25.2433 138.508 25.2433C135.683 24.9359 135.018 25.4738 134.893 25.7043C134.81 25.858 134.852 25.9733 134.935 26.3191C135.018 26.6265 135.101 26.9723 135.059 27.4718C134.852 29.6234 131.86 30.8913 130.073 31.6213C128.286 32.3513 127.081 32.5819 126.084 32.774C124.921 33.0045 124.256 33.1198 123.383 33.8882C122.968 34.2724 122.843 34.5029 122.635 34.8872C122.386 35.3098 122.053 35.9246 121.139 37.0004C120.142 38.153 119.228 39.2288 117.732 40.151C116.527 40.9194 115.613 41.1499 114.906 41.342C114.2 41.5341 113.743 41.6494 113.203 42.1873C112.455 42.8789 112.039 44.8768 111.79 46.4137C111.541 48.0659 111.167 50.2943 111.457 52.6381C112.164 58.2861 116.485 62.5509 118.314 64.0878C118.521 64.2799 118.521 64.5872 118.355 64.7794C118.064 64.8178 117.94 64.8562 117.815 64.8562Z" fill="white"/>
<path d="M115.822 37.9225C115.614 37.9225 115.406 37.7688 115.323 37.5767C115.24 37.3078 115.406 37.0388 115.655 37.0004C116.943 36.6546 118.065 36.0398 118.896 35.233C119.603 34.5414 120.018 33.7729 120.309 33.1966C120.766 32.3513 120.891 31.8134 121.016 31.3524C121.14 30.8529 121.265 30.4302 121.764 29.9308C122.221 29.4697 122.553 29.3929 123.176 29.1623C123.633 29.0086 124.215 28.8165 125.171 28.4323C126.708 27.8176 127.456 27.4718 128.038 26.9723C128.869 26.2423 129.326 25.0896 129.451 23.7064C129.451 23.4375 129.7 23.2454 129.991 23.2454C130.323 23.2838 130.531 23.5143 130.531 23.7448C130.407 25.397 129.783 26.7417 128.786 27.6254C128.08 28.2786 127.207 28.6244 125.628 29.2776C124.631 29.7002 123.966 29.8923 123.55 30.046C122.969 30.2381 122.802 30.2766 122.553 30.5455C122.221 30.8529 122.179 31.0834 122.054 31.5445C121.93 32.0055 121.764 32.6203 121.265 33.5808C120.932 34.1956 120.517 35.0409 119.686 35.8477C118.73 36.7698 117.442 37.4999 115.988 37.8841C115.905 37.9225 115.863 37.9225 115.822 37.9225Z" fill="white"/>
<path d="M173.828 35.6942C173.578 35.6942 173.371 35.5405 173.329 35.31C173.038 34.1189 172.623 33.0046 172.041 31.8904C171.251 30.3535 169.548 27.2029 166.307 26.0119C165.642 25.7813 164.894 25.6277 159.824 25.8966C157.456 26.0119 155.087 26.1656 152.802 26.3577C152.511 26.3961 152.262 26.204 152.262 25.935C152.22 25.6661 152.428 25.4355 152.719 25.3971C155.004 25.205 157.373 25.0513 159.741 24.9361C165.102 24.6671 165.808 24.8208 166.639 25.1282C170.296 26.4345 172.166 29.9693 172.955 31.4678C173.578 32.6204 174.035 33.8499 174.326 35.0794C174.368 35.3484 174.202 35.5789 173.911 35.6558C173.869 35.6558 173.869 35.6942 173.828 35.6942Z" fill="white"/>
<path d="M174.036 47.2592C173.703 47.2208 173.495 46.9902 173.537 46.7213C173.703 45.4534 173.828 44.1854 173.869 42.9175C173.911 41.7649 173.869 40.6506 173.745 39.498C173.745 39.229 173.952 38.9985 174.243 38.9985C174.493 38.9217 174.784 39.1906 174.784 39.4211C174.867 40.5738 174.908 41.7649 174.908 42.9175C174.867 44.2239 174.742 45.5686 174.576 46.8366C174.493 47.1055 174.285 47.2592 174.036 47.2592Z" fill="white"/>
<path d="M156.418 71.196C156.169 71.196 155.919 71.0039 155.878 70.7734C155.878 70.5044 156.086 70.2739 156.377 70.2739C160.573 69.9665 164.521 69.0828 168.219 67.6612C170.505 66.7775 172.333 65.8554 173.829 64.7796C175.74 63.4348 177.859 61.8979 178.815 59.2852C179.106 58.5168 179.147 57.2105 179.189 54.7899L179.231 53.9062C179.272 51.8314 179.231 50.2177 179.106 48.335C178.94 45.3381 178.898 43.8397 178.69 42.687C178.233 40.3048 177.319 37.9227 175.906 35.6174C175.782 35.3869 175.865 35.0795 176.114 34.9642C176.363 34.8489 176.654 34.9258 176.82 35.1563C178.316 37.5385 179.272 40.0359 179.729 42.5333C179.937 43.7628 180.02 45.2613 180.186 48.2966C180.269 50.1793 180.352 51.8314 180.311 53.9446L180.269 54.7899C180.186 57.3641 180.186 58.6321 179.812 59.5542C178.773 62.4358 176.363 64.1264 174.452 65.4711C172.873 66.5854 170.962 67.5844 168.593 68.4681C164.853 69.9665 160.74 70.8502 156.418 71.196Z" fill="white"/>
<path d="M176.696 65.6245C176.488 65.6245 176.322 65.5093 176.239 65.3556C176.114 65.125 176.239 64.8177 176.488 64.7024C177.07 64.4335 177.61 64.1261 178.109 63.7803C179.688 62.6276 180.353 61.206 180.685 60.5144C181.184 59.477 181.35 58.6317 181.558 57.6712C181.807 56.4033 181.932 55.0201 181.89 53.5601C181.848 51.4469 181.475 49.8331 181.308 49.1415C180.685 46.2599 180.186 43.0325 179.729 39.2287C179.688 38.9598 179.895 38.7292 180.186 38.6908C180.519 38.6524 180.727 38.8445 180.768 39.1135C181.184 42.8404 181.724 46.1447 182.347 48.911C182.513 49.641 182.887 51.2932 182.929 53.4832C182.97 55.0201 182.846 56.4801 182.596 57.7865C182.389 58.8239 182.222 59.7076 181.641 60.8602C181.267 61.6287 180.519 63.1655 178.774 64.4719C178.233 64.8945 177.61 65.2403 176.945 65.5093C176.862 65.5861 176.779 65.6245 176.696 65.6245Z" fill="white"/>
<path d="M182.222 62.3206C182.098 62.3206 181.973 62.2821 181.848 62.1669C181.64 61.9748 181.64 61.6674 181.848 61.4753C182.098 61.2448 182.347 60.9758 182.513 60.7068C182.97 60.0537 183.344 59.17 183.593 58.1326C183.676 57.6715 183.718 57.441 183.76 56.7494L183.801 56.0194C183.926 54.7515 184.009 54.0983 184.092 53.5988C184.175 53.0993 184.217 52.7919 184.217 52.2156C184.3 50.6019 184.134 49.3724 184.051 48.8729C183.801 47.0287 183.302 45.1844 182.513 43.417C182.388 43.1865 182.555 42.8791 182.804 42.8023C183.095 42.687 183.386 42.8407 183.469 43.0712C184.3 44.9539 184.84 46.8366 185.048 48.7576C185.131 49.2956 185.297 50.6019 185.214 52.2925C185.172 52.9072 185.131 53.253 185.089 53.7525C185.006 54.252 184.923 54.8667 184.798 56.1346L184.715 56.8262C184.674 57.5178 184.632 57.7868 184.508 58.3247C184.258 59.5158 183.843 60.5147 183.261 61.2447C183.012 61.5521 182.762 61.8595 182.471 62.1669C182.513 62.2821 182.388 62.3206 182.222 62.3206Z" fill="white"/>
<path d="M185.547 61.1676C185.089 61.0139 184.965 60.7449 185.048 60.5144C185.422 59.6307 185.713 58.747 185.921 57.8249C186.087 57.0564 186.087 56.6338 186.045 55.6348C186.045 55.0969 186.045 54.3669 186.045 53.3679C186.045 52.5995 186.087 52.0232 186.087 51.5621C186.128 50.6016 186.128 50.2558 186.045 49.5642C185.921 48.6421 185.63 47.7584 185.256 46.8746C185.131 46.6441 185.297 46.3367 185.547 46.2599C185.796 46.1446 186.128 46.2983 186.211 46.5289C186.627 47.4894 186.918 48.45 187.084 49.4489C187.209 50.2174 187.209 50.6784 187.167 51.6005C187.167 52.0232 187.126 52.5995 187.126 53.3679C187.126 54.3669 187.126 55.0969 187.126 55.6348C187.126 56.5954 187.126 57.0949 186.959 57.9786C186.793 58.9775 186.461 59.9381 186.045 60.8986C185.921 61.0523 185.754 61.1676 185.547 61.1676Z" fill="white"/>
<path d="M188.29 58.9777C187.833 58.8624 187.708 58.5551 187.791 58.3245C188.04 57.6714 188.29 57.0182 188.414 56.365C188.705 55.0971 188.747 54.0213 188.747 53.5218C188.747 52.4076 188.539 51.2549 188.207 50.1791C188.124 49.9102 188.29 49.6412 188.581 49.6028C188.871 49.5259 189.162 49.6796 189.204 49.9486C189.578 51.1012 189.744 52.3307 189.786 53.5218C189.786 54.2134 189.744 55.2892 189.453 56.5956C189.287 57.3256 189.038 58.0172 188.747 58.7088C188.705 58.8624 188.497 58.9777 188.29 58.9777Z" fill="white"/>
<path d="M112.786 64.0877C112.662 64.0877 112.537 64.0493 112.454 63.9725C111.748 63.4346 111.124 62.7814 110.626 62.1282C110.376 61.744 109.628 60.7835 108.714 57.4792C108.465 56.5571 108.216 55.5965 107.966 54.2133C107.592 52.0617 107.426 49.8717 107.468 47.6432C107.468 47.3742 107.717 47.1821 108.008 47.1821C108.299 47.1821 108.548 47.4127 108.548 47.6816C108.507 49.8717 108.673 52.0233 109.047 54.0981C109.296 55.4428 109.545 56.3649 109.795 57.2486C110.667 60.3992 111.291 61.2829 111.54 61.5903C111.997 62.2051 112.537 62.743 113.161 63.2425C113.368 63.3961 113.41 63.7035 113.244 63.9341C113.077 64.0493 112.911 64.0877 112.786 64.0877Z" fill="white"/>
<path d="M107.968 61.1293C107.802 61.1293 107.635 61.0525 107.511 60.8988C107.012 60.1304 106.597 59.2851 106.223 58.4782C105.433 56.634 105.142 55.0203 105.018 53.9829C104.851 52.5997 104.893 51.2165 105.101 49.8333C105.142 49.5643 105.392 49.3722 105.682 49.4107C105.973 49.4491 106.181 49.6796 106.14 49.9486C105.932 51.2549 105.932 52.5612 106.056 53.8676C106.181 54.8281 106.43 56.365 107.178 58.094C107.511 58.9009 107.926 59.6693 108.383 60.3993C108.508 60.6298 108.425 60.9372 108.176 61.0525C108.176 61.0909 108.051 61.1293 107.968 61.1293Z" fill="white"/>
<path d="M103.771 58.9777C103.687 58.9777 103.563 58.9392 103.48 58.9008C103.106 58.7087 102.275 57.3255 102.067 55.8655C101.859 54.4439 102.233 53.2528 102.607 52.4844C102.732 52.2538 103.023 52.1386 103.272 52.2538C103.521 52.3691 103.646 52.6381 103.521 52.8686C103.23 53.5218 102.898 54.5207 103.064 55.7502C103.147 56.2881 103.313 56.7876 103.48 57.1718C103.687 57.1718 103.895 57.3255 103.937 57.5176C104.269 58.3629 104.394 58.7471 103.937 58.9392C103.937 58.9392 103.854 58.9777 103.771 58.9777Z" fill="white"/>
<path d="M148.523 72.2715C146.57 72.2715 144.95 71.8105 143.745 71.4647C142.581 71.1573 141.875 70.8499 141.252 70.581C141.002 70.5041 140.795 70.3889 140.587 70.312C138.094 69.3515 135.933 69.4667 133.98 69.5436C133.44 69.582 132.858 69.582 132.359 69.582C128.744 69.582 124.963 68.3909 121.098 66.0856C120.849 65.9319 120.808 65.6246 120.932 65.4325C121.099 65.2019 121.389 65.1635 121.639 65.2788C125.337 67.5072 128.911 68.6215 132.359 68.6215C132.9 68.6215 133.398 68.583 133.938 68.583C135.975 68.5062 138.301 68.3909 140.961 69.4283C141.21 69.5052 141.418 69.6204 141.667 69.6973C142.29 69.9662 142.997 70.2352 144.077 70.5425C145.407 70.9268 147.028 71.3878 149.105 71.2726C150.393 71.1957 151.681 70.9268 152.887 70.4657C153.177 70.3889 153.468 70.4657 153.551 70.7347C153.676 70.9652 153.551 71.2726 153.26 71.3494C151.931 71.8489 150.518 72.1563 149.105 72.2331C148.939 72.2715 148.731 72.2715 148.523 72.2715Z" fill="white"/>
<path d="M124.712 31.314C124.463 31.314 124.213 31.1603 124.213 30.8914C124.172 30.6224 124.38 30.3919 124.67 30.3535C125.875 30.1998 127.621 29.7387 129.241 28.4324C130.903 27.0876 131.651 25.5123 131.984 24.4365C132.067 24.1675 132.358 24.0139 132.607 24.0907C132.898 24.1675 133.064 24.4365 132.981 24.667C132.607 25.8965 131.776 27.6255 129.906 29.124C128.078 30.584 126.125 31.0835 124.795 31.2756C124.754 31.314 124.712 31.314 124.712 31.314Z" fill="white"/>
<path d="M142.456 90.2142C142.456 90.829 141.916 91.3284 141.251 91.3284C140.586 91.3284 140.046 90.829 140.046 90.2142C140.046 89.5995 140.586 89.1 141.251 89.1C141.916 89.1 142.456 89.5995 142.456 90.2142Z" fill="#0B206D"/>
<path d="M148.066 90.2142C148.066 90.829 147.526 91.3284 146.861 91.3284C146.196 91.3284 145.656 90.829 145.656 90.2142C145.656 89.5995 146.196 89.1 146.861 89.1C147.526 89.1 148.066 89.5995 148.066 90.2142Z" fill="#0B206D"/>
<path d="M153.757 90.2142C153.757 90.829 153.217 91.3284 152.552 91.3284C151.887 91.3284 151.347 90.829 151.347 90.2142C151.347 89.5995 151.887 89.1 152.552 89.1C153.217 89.1 153.757 89.5995 153.757 90.2142Z" fill="#0B206D"/>
<path d="M179.396 130.788C179.146 130.788 178.897 130.596 178.856 130.365C178.565 127.484 179.063 124.871 180.31 122.642C182.013 119.53 184.507 118.301 187.125 116.994C189.535 115.803 192.069 114.535 194.313 111.654C195.851 109.694 196.64 107.735 197.305 106.159C198.178 104.008 198.884 102.317 200.879 102.01C202.291 101.779 203.33 102.433 204.203 103.009C205.034 103.547 205.782 104.008 206.737 103.816C208.109 103.547 208.732 102.202 209.521 100.511C210.394 98.552 211.391 96.3235 213.968 95.094C216.71 93.7877 220.782 93.7876 222.07 95.7856C223.359 97.7451 221.406 100.588 221.156 100.896C220.99 101.126 220.658 101.165 220.45 101.049C220.201 100.896 220.159 100.588 220.284 100.396C220.949 99.5125 221.946 97.4761 221.156 96.2851C220.159 94.7866 216.627 94.8635 214.383 95.9393C212.181 97.0151 211.225 99.0514 210.436 100.857C209.605 102.663 208.857 104.392 206.904 104.738C205.491 105.007 204.494 104.354 203.579 103.777C202.748 103.239 202 102.778 201.003 102.932C199.673 103.163 199.133 104.277 198.219 106.467C197.554 108.081 196.723 110.117 195.103 112.192C192.693 115.265 189.95 116.61 187.54 117.84C184.964 119.146 182.72 120.26 181.141 123.104C180.019 125.178 179.562 127.637 179.811 130.327C179.853 130.596 179.645 130.826 179.354 130.865C179.437 130.788 179.437 130.788 179.396 130.788Z" fill="#0B206D"/>
<path d="M252.862 130.02C246.131 132.325 239.441 134.669 232.709 136.974C230.174 132.133 227.681 127.292 225.146 122.45C227.266 120.222 229.385 118.032 231.504 115.803C238.651 120.568 245.757 125.294 252.862 130.02Z" fill="white"/>
<path d="M228.345 122.565C226.351 122.604 223.774 122.45 220.866 121.72C215.796 120.491 212.223 118.185 210.187 116.649C208.898 110.732 210.27 106.121 212.971 105.16C213.511 104.968 214.508 104.776 216.129 105.391C219.287 105.737 222.403 106.121 225.561 106.467C228.179 107.427 229.426 108.695 230.049 109.771C230.547 110.616 230.631 111.269 231.088 112.998C231.628 114.996 232.251 116.61 232.708 117.724C231.254 119.338 229.8 120.952 228.345 122.565Z" fill="white"/>
<path d="M199.093 208.208C205.45 209.13 211.808 210.014 218.165 210.936C230.257 196.989 242.391 183.08 254.483 169.133C252.114 167.25 248.416 164.714 243.388 162.678C236.864 160.027 231.421 159.527 224.731 158.874C216.462 158.106 208.234 156.876 199.965 156.454C189.286 155.916 172.624 153.073 146.861 142.66L114.283 158.836C112.954 159.989 107.884 164.1 99.9475 164.484C98.2438 164.561 97.3297 164.522 96.8726 164.445C90.5981 163.485 87.1908 157.261 86.2351 155.378C84.7392 154.878 80.7086 153.764 75.7638 154.917C70.1957 156.262 67.0377 159.681 66.1235 160.795C86.9831 175.895 103.189 186.461 109.712 189.919C114.491 192.455 119.062 194.184 119.062 194.184C122.303 195.413 125.295 196.22 128.827 197.181C144.16 201.254 151.681 198.987 167.388 200.639C174.95 201.407 185.962 203.29 199.093 208.208Z" fill="#FBE0E5"/>
<path d="M147.774 168.211C155.627 168.211 162.026 162.294 162.026 155.032C162.026 147.771 155.627 141.854 147.774 141.854C139.92 141.854 133.521 147.771 133.521 155.032C133.521 162.294 139.92 168.211 147.774 168.211Z" fill="#FBE0E5"/>
<path d="M228.761 213.011C246.271 213.011 260.465 201.124 260.465 186.461C260.465 171.798 246.271 159.912 228.761 159.912C211.25 159.912 197.056 171.798 197.056 186.461C197.056 201.124 211.25 213.011 228.761 213.011Z" fill="#FBE0E5"/>
<path d="M277.794 163.177V209.553C277.42 209.591 277.046 209.591 276.714 209.591C270.813 209.822 262.129 209.629 251.45 207.363C243.887 192.57 236.324 177.816 228.762 163.024C242.516 161.871 259.137 161.41 277.794 163.177Z" fill="#FBE0E5"/>
<path d="M69.4058 163.101C74.5168 161.871 78.7136 160.488 81.9547 159.297C82.7026 159.028 87.0657 157.376 90.7639 154.071C91.7611 153.188 92.7169 152.189 92.7169 150.806C92.7169 148.846 91.0548 147.732 90.9301 147.655C90.7639 147.271 90.8054 147.002 90.8469 146.848C91.0547 146.349 91.8443 146.349 92.0936 145.657C92.2598 145.004 92.1766 144.159 91.5118 143.774C91.1378 143.544 90.6807 143.582 90.473 143.621C90.5561 143.467 91.304 142.391 90.8469 141.277C90.5976 140.777 90.2236 140.547 89.8081 140.432C89.2679 140.278 88.6031 140.086 87.8967 139.779C83.3259 137.934 80.2926 134.361 79.6277 132.478C79.5446 132.248 79.2537 131.403 78.672 130.25C78.5058 129.904 78.2564 129.52 78.0071 129.097C76.2203 126.292 73.935 124.717 72.6053 123.795C69.2395 121.49 65.8322 120.491 63.5052 120.03C60.7627 119.377 56.1503 118.762 51.0393 120.145C41.773 122.681 31.6341 132.171 33.3378 142.66C35.083 153.265 48.2138 159.873 54.9869 159.758C56.0257 159.758 59.1838 159.527 63.1728 160.565C65.9569 161.295 68.0761 162.332 69.4058 163.101Z" fill="#FBE0E5"/>
<path d="M86.4428 140.048C86.4843 139.663 86.6505 139.125 86.983 138.588C87.3569 138.011 87.6894 137.973 87.9387 137.396C88.0218 137.204 88.2296 136.666 88.0634 136.052C88.0218 135.936 87.8556 135.245 87.2323 134.784C86.4428 134.246 85.404 134.4 84.9885 134.438C84.0744 134.553 82.4537 134.361 79.4619 133.055C80.293 134.476 81.1241 135.86 81.9551 137.281C83.5341 138.242 84.9884 139.125 86.4428 140.048Z" fill="#FBE0E5"/>
<path d="M73.5194 137.819C73.3532 137.819 73.1454 137.742 73.0623 137.589C72.6052 136.859 71.6496 134.899 72.5222 132.901C73.3117 131.134 75.0568 130.289 76.0541 129.904C76.3449 129.827 76.6358 129.943 76.7189 130.173C76.8436 130.404 76.6773 130.711 76.428 130.788C75.597 131.095 74.1011 131.825 73.4778 133.247C72.7714 134.861 73.561 136.474 73.935 137.089C74.0596 137.32 73.9764 137.627 73.7271 137.742C73.6856 137.781 73.6025 137.819 73.5194 137.819Z" fill="#0B206D"/>
<path d="M73.8522 133.247C74.434 134.399 75.6391 135.053 76.5117 134.668C77.4258 134.284 77.6751 133.055 77.1349 131.864C76.5948 130.673 75.3481 130.058 74.4755 130.442C73.5613 130.826 73.3121 132.094 73.8522 133.247Z" fill="#0B206D"/>
<path d="M88.6446 143.275C88.2291 144.082 87.1488 145.004 84.3232 145.427C87.1488 145.811 89.6004 145.158 90.473 143.659C90.5561 143.544 91.4287 142.045 90.6392 141.008C90.3484 140.662 89.7666 140.201 89.3511 140.316C88.6863 140.509 89.2679 142.045 88.6446 143.275Z" fill="#F26E58"/>
<path d="M68.3677 126.177C68.4923 126.101 69.3649 125.524 70.2791 125.755C71.027 125.947 71.2763 126.6 71.3179 126.754L68.3677 126.177Z" fill="#0B206D"/>
<path d="M68.1186 126.37C68.451 126.485 68.9082 126.6 69.4899 126.754C70.4041 126.946 70.6534 126.907 70.695 127.061C70.8197 127.637 67.994 129.059 65.5424 131.403C63.7971 133.093 62.6752 134.822 61.9273 136.09C61.8442 135.629 61.8441 135.168 61.8857 134.784C62.3428 130.557 67.3291 126.946 68.1186 126.37Z" fill="#0B206D"/>
<path d="M89.1852 148.078C89.019 148.078 88.8113 148.001 88.7282 147.847C88.6035 147.617 88.6866 147.309 88.9359 147.194L90.3903 146.426C90.6396 146.31 90.9719 146.387 91.0966 146.618C91.2213 146.848 91.1382 147.156 90.8889 147.271L89.4345 148.039C89.3514 148.039 89.2683 148.078 89.1852 148.078Z" fill="#0B206D"/>
<path d="M202.873 201.062C230.802 201.062 253.443 183.584 253.443 162.025C253.443 140.466 230.802 122.988 202.873 122.988C174.944 122.988 152.303 140.466 152.303 162.025C152.303 183.584 174.944 201.062 202.873 201.062Z" fill="#FBE0E5"/>
<path d="M127.955 213.433L22.7013 173.552C15.3465 170.785 11.8145 162.986 14.8479 156.223C17.8397 149.423 26.2749 146.157 33.5882 148.962C77.468 176.664 112.165 184.271 136.182 185.885C147.401 186.653 168.261 186.922 169.258 192.148C170.089 196.374 157.499 202.022 146.695 206.172C143.703 212.972 135.268 216.238 127.955 213.433Z" fill="#EDA3A4"/>
<path d="M257.1 249.896C245.757 246.899 236.781 246.976 230.839 247.513C226.019 247.936 220.908 249.05 210.686 251.24C202.001 253.085 196.059 254.621 194.563 254.967C185.92 257.042 171.46 257.542 146.03 249.896C144.741 249.896 137.844 249.78 132.317 244.632C128.785 241.366 126.625 236.909 126.625 231.953V209.015C126.625 199.102 135.309 191.072 146.03 191.072H257.142C267.863 191.072 276.547 199.102 276.547 209.015V231.953C276.506 241.865 267.821 249.896 257.1 249.896Z" fill="#EDA3A4"/>
<path d="M52.4936 157.453C42.23 153.995 37.0774 152.266 34.792 149.461C30.0966 143.775 31.8002 133.977 36.4957 127.676C36.4957 127.676 44.0168 117.609 61.0119 118.762C62.3416 118.839 63.5466 119.146 64.1699 119.953C65.375 121.567 62.9649 123.488 62.3 127.1C61.1781 133.362 66.5384 138.05 63.8374 141.2C63.5881 141.508 63.3389 141.7 63.1727 141.815C65.375 143.928 68.99 146.887 74.2257 148.501C79.7106 150.191 81.3312 148.731 86.3176 150.306C93.4647 152.612 97.4953 158.029 100.362 161.948C101.194 163.062 107.842 172.053 105.432 174.359C104.601 175.165 102.731 174.973 91.5533 170.939C86.4007 169.056 82.2039 167.443 79.3783 166.328C74.7659 164.599 68.6577 162.448 61.3444 160.181C57.1891 158.875 55.8594 158.567 52.4936 157.453Z" fill="#0B206D"/>
<path d="M275.05 192.916C279.538 197.219 284.026 201.522 288.513 205.864C274.344 217.736 260.174 229.647 246.005 241.52C244.135 239.176 241.683 235.603 239.813 230.838C237.403 224.652 237.237 219.581 237.029 213.356C236.78 205.672 236.032 198.026 236.157 190.342C236.364 180.429 234.453 164.868 225.021 140.355L244.758 111.462C246.088 110.309 250.866 105.929 251.864 98.6288C251.988 97.6298 252.03 96.7077 252.03 95.7855C251.947 90.2144 249.454 86.1801 248.623 84.9122C250.534 84.2206 252.445 83.529 254.357 82.8758C257.307 81.8384 260.299 80.7626 263.249 79.7252C268.36 89.6381 273.471 99.5509 278.624 109.464C281.075 113.383 284.275 119.646 285.106 127.599C286.477 140.97 280.036 148.423 276.546 164.369C275.05 170.823 273.762 180.506 275.05 192.916Z" fill="#FBE0E5"/>
<path d="M249.287 148.539C249.952 155.801 244.093 162.14 236.281 162.755C228.427 163.37 221.571 157.952 220.906 150.729C220.242 143.467 226.101 137.128 233.912 136.513C241.766 135.898 248.622 141.316 249.287 148.539Z" fill="#FBE0E5"/>
<path d="M293.208 226.92C293.208 236.256 288.969 244.555 282.279 249.934H246.71C240.062 244.555 235.782 236.256 235.782 226.92C235.782 223.769 236.28 220.772 237.153 217.967C240.893 206.172 251.697 197.604 264.495 197.604C273.179 197.604 280.991 201.561 286.185 207.785C290.59 212.934 293.208 219.581 293.208 226.92Z" fill="#FBE0E5"/>
<path d="M253.9 93.9416C253.319 94.6332 252.695 95.2479 252.03 95.7858C251.947 90.2147 249.454 86.1804 248.623 84.9125C250.534 84.2209 252.446 83.5293 254.357 82.8761C254.482 82.9529 254.648 83.0298 254.773 83.1451C257.599 85.143 257.183 89.9841 253.9 93.9416Z" fill="#0B206D"/>
<path d="M264.496 82.1459C259.925 84.5664 255.894 86.3339 252.653 87.6018C251.905 87.9091 247.542 89.5613 242.431 89.5997C241.06 89.5997 239.606 89.5229 238.567 88.5623C237.071 87.1791 237.403 85.2965 237.445 85.1428C237.279 84.7586 237.071 84.6049 236.905 84.528C236.365 84.3359 235.824 84.797 235.118 84.4512C234.536 84.1054 233.913 83.4138 234.079 82.7606C234.204 82.338 234.536 82.1075 234.703 81.9922C234.536 81.9538 233.165 81.6464 232.666 80.5706C232.459 80.0711 232.542 79.6485 232.75 79.3027C233.04 78.8416 233.331 78.2653 233.622 77.6121C235.492 73.3473 234.91 68.8135 233.955 67.0461C233.83 66.854 233.373 66.0471 232.957 64.856C232.833 64.4718 232.666 64.0876 232.542 63.6265C231.669 60.476 232.085 57.8633 232.334 56.3648C232.999 52.5611 234.619 49.6026 235.949 47.7967C237.445 45.5683 240.187 42.1103 244.883 39.805C253.401 35.5786 267.82 35.7707 274.552 44.3388C281.366 53.0221 277.045 66.2392 272.142 70.5425C271.394 71.1956 268.984 73.1167 266.947 76.421C265.576 78.6111 264.87 80.7243 264.496 82.1459Z" fill="#FBE0E5"/>
<path d="M234.826 76.8053C234.494 76.5748 233.995 76.2674 233.33 76.1137C232.624 75.96 232.333 76.1522 231.751 75.9216C231.544 75.8448 231.004 75.6142 230.63 75.0763C230.588 74.9995 230.172 74.3847 230.256 73.6547C230.38 72.771 231.253 72.1947 231.585 71.9642C232.333 71.4263 233.33 70.2352 234.452 67.392C234.909 68.9288 235.408 70.5041 235.865 72.041C235.533 73.5779 235.2 75.1916 234.826 76.8053Z" fill="#FBE0E5"/>
<path d="M242.806 66.9308C242.64 66.9308 242.473 66.854 242.39 66.7387C242.016 66.2392 240.936 65.0482 239.066 64.5871C237.404 64.1645 235.991 64.5487 235.326 64.7792C235.036 64.856 234.745 64.7408 234.662 64.5103C234.537 64.2797 234.703 63.9723 234.952 63.8955C235.742 63.5881 237.404 63.1655 239.357 63.665C241.559 64.2029 242.847 65.5861 243.263 66.1624C243.429 66.3929 243.388 66.6619 243.138 66.8156C243.014 66.9308 242.931 66.9308 242.806 66.9308Z" fill="#0B206D"/>
<path d="M238.983 65.8552C239.108 67.1231 238.443 68.1989 237.487 68.2758C236.573 68.3526 235.7 67.3921 235.576 66.0857C235.451 64.8178 236.116 63.742 237.071 63.6652C238.027 63.5883 238.858 64.5873 238.983 65.8552Z" fill="#0B206D"/>
<path d="M235.741 80.4941C238.068 81.1088 240.436 77.6124 240.81 77.8814C241.184 78.1503 239.065 81.4162 237.112 81.9157C235.782 82.2615 234.702 81.9541 234.702 81.9541C234.12 81.762 232.749 81.2625 232.583 80.1867C232.5 79.764 232.583 79.034 232.998 78.8803C233.622 78.573 234.369 80.1483 235.741 80.4941Z" fill="#F26E58"/>
<path d="M236.779 57.4023C236.654 57.4023 235.74 57.4792 235.117 58.2092C234.618 58.8239 234.701 59.5155 234.701 59.6308L236.779 57.4023Z" fill="#0B206D"/>
<path d="M237.028 57.4025C236.82 57.7099 236.487 58.0941 236.113 58.5552C235.49 59.2852 235.282 59.362 235.324 59.5157C235.449 60.0536 238.233 59.5157 241.141 59.9384C243.177 60.2457 244.798 60.9757 245.878 61.5521C245.754 61.1294 245.546 60.7836 245.38 60.4763C243.26 57.3257 237.9 57.4025 237.028 57.4025Z" fill="#0B206D"/>
<path d="M236.988 84.8354C236.738 84.8354 236.531 84.6817 236.489 84.4896C236.406 84.2206 236.572 83.9517 236.863 83.9132L238.484 83.4906C238.774 83.4138 239.024 83.5675 239.107 83.8364C239.19 84.1054 239.024 84.3743 238.733 84.4127L237.112 84.8354C237.112 84.8354 237.029 84.8354 236.988 84.8354Z" fill="#0B206D"/>
<path d="M236.946 81.6082C237.029 81.7619 236.364 82.3766 235.575 82.4535C235.035 82.5303 234.578 82.3382 234.37 82.2229C234.121 81.9924 233.913 81.7235 233.664 81.4929C234.079 81.5698 234.702 81.685 235.45 81.6466C236.364 81.685 236.863 81.4929 236.946 81.6082Z" fill="white"/>
<path d="M298.528 228.149C297.987 231.453 293.666 234.642 294.165 239.906C294.497 243.594 289.635 250.165 285.563 249.934C281.283 251.97 271.685 255.851 259.094 255.006C250.451 254.429 232.209 250.165 230.88 247.552C229.924 245.708 230.339 243.326 231.877 241.481C232.999 233.144 234.079 224.768 235.16 216.392C223.109 184.847 217.998 160.219 219.453 150.806C220.367 145.042 222.735 140.355 222.735 140.355C225.519 134.784 229.342 130.98 232.126 128.598C237.653 120.798 243.179 112.999 248.706 105.199C249.204 105.007 249.62 104.776 250.119 104.584C257.141 101.549 264.122 98.5136 271.144 95.4783C271.227 95.4399 271.31 95.4015 271.352 95.363C271.518 95.2862 271.601 95.2478 271.768 95.2094C271.934 95.4015 272.058 95.632 272.183 95.8625C275.175 100.319 279.164 107.159 282.405 115.919C287.599 129.981 287.599 140.278 288.763 159.873C289.386 169.709 290.466 184.617 292.502 203.175C294.539 206.21 300.564 215.892 298.528 228.149Z" fill="white"/>
<path d="M295.786 80.4171C295.786 89.4462 287.891 96.7463 278.126 96.7463C268.361 96.7463 260.466 89.4462 260.466 80.4171C260.466 71.3879 268.361 64.0878 278.126 64.0878C287.891 64.0878 295.786 71.4263 295.786 80.4171Z" fill="#0B206D"/>
<path d="M234.952 46.7979C234.537 46.8747 232.168 47.259 231.212 49.0648C230.714 50.0253 230.755 51.0243 230.88 51.4854C231.669 54.5207 239.44 53.5986 245.257 56.1728C256.934 61.3214 257.889 79.2644 261.421 78.688C262.086 78.5728 262.294 77.8812 263.042 76.5748C267.072 69.6973 273.43 69.6973 277.419 64.472C280.993 59.8229 280.328 54.1365 280.203 53.1375C279.206 44.9537 271.519 38.3835 263.707 36.1935C253.651 33.4271 241.933 37.6151 234.952 46.7979Z" fill="#0B206D"/>
<path d="M236.781 74.039C233.124 74.039 230.174 71.0421 230.174 67.3536C230.174 63.6651 233.124 60.6682 236.781 60.6682C240.437 60.6682 243.388 63.6651 243.388 67.3536C243.388 71.0421 240.437 74.039 236.781 74.039ZM236.781 61.6288C233.706 61.6288 231.213 64.203 231.213 67.3536C231.213 70.5042 233.706 73.0785 236.781 73.0785C239.856 73.0785 242.349 70.5042 242.349 67.3536C242.349 64.203 239.856 61.6288 236.781 61.6288Z" fill="#0B206D"/>
<path d="M242.846 67.8146C242.597 67.8146 242.389 67.6609 242.348 67.4304C242.306 67.1614 242.472 66.9309 242.763 66.8925L256.642 64.7408C256.891 64.664 257.182 64.8561 257.224 65.125C257.265 65.394 257.099 65.6245 256.808 65.663L242.929 67.8146C242.929 67.8146 242.888 67.8146 242.846 67.8146Z" fill="#0B206D"/>
<path d="M259.136 69.9666C259.427 73.3477 257.516 76.2678 254.773 76.4599C252.072 76.652 249.621 74.0777 249.33 70.6966C249.039 67.3155 250.951 64.3954 253.693 64.2033C256.394 64.0112 258.846 66.5855 259.136 69.9666Z" fill="#FBE0E5"/>
<path d="M254.483 76.9591C253.735 76.9591 252.987 76.767 252.281 76.4212C252.031 76.3059 251.948 75.9985 252.073 75.768C252.198 75.5374 252.53 75.4606 252.779 75.5759C253.403 75.9217 254.067 76.0369 254.732 75.9985C256.145 75.8832 257.433 74.8843 258.098 73.2706C258.223 73.04 258.514 72.9248 258.763 73.0016C259.012 73.1169 259.137 73.3858 259.054 73.6164C258.223 75.5375 256.644 76.8054 254.815 76.9206C254.732 76.959 254.608 76.9591 254.483 76.9591Z" fill="#0B206D"/>
<path d="M258.931 73.1553C258.515 73.0785 258.349 72.8095 258.432 72.5406C258.598 71.8874 258.723 71.1958 258.681 70.4658C258.681 70.1968 258.889 69.9663 259.18 69.9663C259.471 69.9663 259.72 70.1584 259.72 70.4274C259.72 71.2342 259.637 72.0027 259.429 72.7711C259.346 73.0016 259.138 73.1553 258.931 73.1553Z" fill="#0B206D"/>
<path d="M259.054 69.7743C258.805 69.7743 258.597 69.6206 258.556 69.3901C258.057 66.6622 256.145 64.7026 254.026 64.7026C253.943 64.7026 253.86 64.7026 253.777 64.7026C253.278 64.7411 252.821 64.8947 252.364 65.1253C252.115 65.2405 251.782 65.2021 251.658 64.9716C251.492 64.7411 251.575 64.4337 251.824 64.3184C252.406 64.011 253.029 63.8189 253.652 63.7805C253.777 63.7805 253.902 63.7805 253.985 63.7805C256.644 63.7805 258.971 66.0858 259.553 69.2748C259.594 69.5438 259.387 69.7743 259.137 69.8127C259.137 69.7743 259.096 69.7743 259.054 69.7743Z" fill="#0B206D"/>
<path d="M253.485 73.8469C253.069 73.7317 252.903 73.4627 252.986 73.2322L254.939 67.4305C255.022 67.1615 255.313 67.0463 255.604 67.1231C255.895 67.1999 256.019 67.4689 255.936 67.7378L253.983 73.5396C253.942 73.6932 253.734 73.8469 253.485 73.8469Z" fill="#0B206D"/>
<path d="M254.441 70.4661C254.275 70.4661 254.109 70.3892 254.026 70.274L252.696 68.5834C252.53 68.3529 252.571 68.0839 252.821 67.9302C253.07 67.7765 253.361 67.815 253.527 68.0455L254.857 69.7361C255.023 69.9666 254.981 70.2355 254.732 70.3892C254.649 70.4277 254.524 70.4661 254.441 70.4661Z" fill="#0B206D"/>
<path d="M218.208 124.333L208.568 121.759L213.305 106.659C214.011 104.431 216.546 103.124 218.956 103.777L219.829 104.008C222.239 104.661 223.652 107.005 222.945 109.233L218.208 124.333Z" fill="#0B206D"/>
<path d="M210.811 131.326C206.157 130.058 203.498 125.563 204.828 121.259C206.531 120.03 208.193 118.839 209.897 117.609C213.138 118.493 216.338 119.377 219.579 120.26C220.285 122.105 220.992 123.949 221.698 125.793C220.327 130.096 215.465 132.555 210.811 131.326Z" fill="#0B206D"/>
<path d="M221.901 100.489L219.228 99.7692L217.602 104.934L220.275 105.653L221.901 100.489Z" fill="#0B206D"/>
<path d="M227.264 111.385H219.079C218.829 111.308 218.081 110.962 217.749 110.194C217.375 109.233 217.874 108.004 219.079 107.274C221.239 107.005 223.358 106.774 225.519 106.505C226.101 108.119 226.683 109.771 227.264 111.385Z" fill="white"/>
<path d="M221.863 100.512C221.198 100.32 220.492 100.166 219.827 99.9737C220.159 99.0516 220.491 98.0911 220.824 97.1689C221.613 97.3611 222.361 97.5532 223.151 97.7453C222.694 98.6674 222.278 99.5895 221.863 100.512Z" fill="#0B206D"/>
<path d="M166.473 191.072C160.656 190.111 154.672 189.151 148.564 188.306C142.663 187.46 136.846 186.73 131.195 186.039C130.405 174.435 129.616 162.794 128.826 151.19C134.394 143.237 143.203 139.279 150.475 141.124C152.013 141.508 155.046 142.584 157.996 145.773C159.16 155.762 160.323 165.79 161.487 175.78C161.03 176.971 165.476 190.38 166.473 191.072Z" fill="#0B206D"/>
<path d="M158.038 204.98C154.506 204.634 150.974 204.289 147.442 203.943C137.137 203.251 125.128 202.483 125.087 202.752C125.087 202.829 126.25 202.982 126.624 203.059C133.73 204.02 148.149 196.835 153.8 193.915C171.959 192.993 192.07 190.611 213.553 185.885C219.287 184.617 224.814 183.272 230.133 181.812C234.62 182.196 239.108 182.58 243.596 182.926C244.053 184.386 245.009 188.305 243.139 192.608C239.856 200.139 230.88 201.791 230.174 201.907C224.897 203.136 220.617 203.712 218.082 203.981C197.347 206.171 187.125 200.408 167.18 203.174C162.983 203.751 159.7 204.519 158.038 204.98Z" fill="#FBE0E5"/>
<path d="M239.606 181.774C245.382 181.774 251.2 181.735 256.976 181.735C262.17 171.554 267.281 159.182 270.937 144.774C272.433 138.895 273.514 133.285 274.345 128.022C275.093 118.301 269.026 111.769 264.538 111.808C260.549 111.846 255.771 117.11 254.815 124.641C249.745 143.659 244.676 162.717 239.606 181.774Z" fill="#FBE0E5"/>
<path d="M258.014 190.495C256.477 193.07 253.901 196.72 249.745 200.216C246.13 203.29 242.515 205.211 239.856 206.402C223.443 207.055 206.988 207.67 190.574 208.323C186.876 202.79 183.178 197.219 179.438 191.686C196.308 188.382 213.22 185.116 230.091 181.812C236.116 161.641 242.183 141.469 248.208 121.298C250.203 114.266 258.014 110.04 265.619 111.884C273.223 113.729 277.794 120.952 275.799 127.983L258.014 190.495Z" fill="white"/>
<path d="M230.091 182.312C229.675 182.235 229.509 181.966 229.592 181.697L244.385 126.754C244.468 126.485 244.759 126.331 245.008 126.408C245.299 126.485 245.465 126.715 245.382 126.984L230.589 181.928C230.548 182.158 230.34 182.312 230.091 182.312Z" fill="#93CDDB"/>
<path d="M232.749 207.171C232.458 207.171 232.251 206.979 232.209 206.71C232.209 206.441 232.417 206.21 232.708 206.21C240.727 205.941 247.459 203.79 252.653 199.871C259.426 194.722 261.753 187.806 265.16 174.358C268.609 160.68 271.56 146.579 274.011 132.44C274.053 132.171 274.344 132.018 274.593 132.056C274.884 132.094 275.091 132.363 275.008 132.594C272.557 146.733 269.606 160.872 266.158 174.589C262.709 188.267 260.34 195.298 253.318 200.639C247.957 204.673 241.018 206.902 232.749 207.171Z" fill="#93CDDB"/>
<path d="M36.0399 114.497C33.0896 114.036 31.0536 111.423 31.5522 108.695L45.0985 33.2348C45.5972 30.5069 48.4227 28.6242 51.3729 29.0853C54.3232 29.5463 56.3593 32.159 55.8607 34.887L42.3144 110.347C41.8158 113.114 38.9901 114.958 36.0399 114.497Z" fill="white"/>
<path d="M16.3008 168.211C15.1373 168.211 14.2231 167.327 14.2231 166.29V70.6193C14.2231 69.5435 15.1789 68.6982 16.3008 68.6982C17.4227 68.6982 18.3784 69.5819 18.3784 70.6193V166.29C18.3784 167.327 17.4227 168.211 16.3008 168.211Z" fill="white"/>
<path d="M40.0287 71.8105H11.9805C9.9444 71.8105 8.28223 70.2736 8.28223 68.391C8.28223 66.5083 9.9444 64.9714 11.9805 64.9714H40.0287C42.0648 64.9714 43.7268 66.5083 43.7268 68.391C43.7268 70.2736 42.0648 71.8105 40.0287 71.8105Z" fill="white"/>
<path d="M171.917 206.594C168.053 205.672 164.23 204.712 160.365 203.789C158.537 204.596 156.418 205.365 154.049 206.018C147.899 207.709 142.414 207.862 138.342 207.632C136.098 207.555 133.356 207.247 130.322 206.594C127.081 205.903 124.38 204.942 122.22 204.02C125.045 202.829 128.037 201.676 131.154 200.562C139.132 197.68 146.736 195.529 153.758 193.915C159.16 193.3 164.52 192.686 169.922 192.109C170.629 196.912 171.252 201.753 171.917 206.594Z" fill="white"/>
<path d="M32.4241 154.033C26.5236 148.231 27.1885 140.931 30.5127 138.664C33.2136 136.858 38.5739 137.704 42.937 141.2C60.5138 147.271 74.351 149.499 83.2849 153.149C92.5512 156.915 98.3685 159.988 99.8228 160.757C115.405 169.133 133.231 182.504 131.237 186.038C130.364 187.614 124.671 188.728 90.9721 177.201C71.4007 169.479 51.9124 161.756 32.4241 154.033Z" fill="#FBE0E5"/>
<path d="M100.821 210.283C97.5795 212.857 92.4684 212.703 89.435 209.937L20.5404 147.501C17.5071 144.773 17.6733 140.432 20.9144 137.858C24.1555 135.283 29.2665 135.437 32.2998 138.203L101.195 200.639C104.228 203.405 104.062 207.747 100.821 210.283Z" fill="white"/>
<path d="M82.3704 250.549C66.7466 251.394 55.3195 250.933 47.5907 250.318C40.9007 249.78 38.1166 249.204 32.4654 249.588C25.1521 250.088 20.9553 251.586 14.0575 250.549C10.484 250.011 7.65833 248.973 5.83 248.205C-0.818454 231.799 -0.693765 221.463 0.926797 214.893C1.34233 213.241 2.58889 208.707 3.62771 202.137C4.62498 195.644 4.83277 190.688 4.95743 187.23C5.49762 173.052 5.70535 160.027 5.83 152.919C11.7305 149.307 17.5895 145.734 23.49 142.122C47.6737 162.793 71.8991 183.426 96.0828 204.097C127.497 204.02 158.952 203.905 190.366 203.828C192.028 205.71 200.464 215.777 198.428 229.455C196.599 241.865 186.834 252.431 173.33 256.85C169.341 256.543 163.274 256.081 155.919 255.697C135.475 254.583 127.372 255.121 113.327 254.237C105.931 253.738 95.2934 252.777 82.3704 250.549Z" fill="#ACE3EC"/>
<path d="M89.932 213.472C89.8074 213.472 89.6827 213.434 89.5581 213.318L22.8658 153.995C22.658 153.803 22.658 153.495 22.8658 153.303C23.0735 153.111 23.4059 153.111 23.6137 153.303L90.3061 212.627C90.5139 212.819 90.5139 213.126 90.3061 213.318C90.1815 213.434 90.0567 213.472 89.932 213.472Z" fill="white"/>
<path d="M187.706 216.545H95.7912C95.5003 216.545 95.251 216.315 95.251 216.046C95.251 215.777 95.5003 215.546 95.7912 215.546H187.706C187.997 215.546 188.246 215.777 188.246 216.046C188.246 216.353 187.997 216.545 187.706 216.545Z" fill="white"/>
<path d="M224.273 183.426C224.024 183.426 223.816 183.272 223.775 183.042C223.733 182.773 223.9 182.542 224.19 182.465L230.049 181.313C230.299 181.236 230.59 181.428 230.673 181.697C230.714 181.966 230.548 182.196 230.257 182.273L224.398 183.426C224.357 183.426 224.315 183.426 224.273 183.426Z" fill="white"/>
</svg>
