<svg width="403" height="301" viewBox="0 0 403 301" fill="none" xmlns="http://www.w3.org/2000/svg">
<path d="M362.491 205.569H40.0156V149.382C40.0156 122.691 61.7503 101.058 88.5663 101.058H313.897C340.714 101.058 362.448 122.691 362.448 149.382V205.569H362.491Z" fill="white"/>
<path d="M55.4304 294.566C53.9786 294.014 52.5268 293.461 51.1177 292.866C54.8326 279.563 58.5476 266.218 62.2625 252.915L72.5534 256.91C66.8315 269.49 61.1096 282.028 55.4304 294.566Z" fill="#0B206D"/>
<path d="M347.076 294.566C348.528 294.014 349.98 293.461 351.389 292.866C347.674 279.563 343.959 266.218 340.244 252.915L329.953 256.91C335.718 269.49 341.397 282.028 347.076 294.566Z" fill="#0B206D"/>
<path d="M334.051 264.815H68.4962C46.5054 264.815 28.6992 247.092 28.6992 225.204H373.848C373.848 247.092 356.042 264.815 334.051 264.815Z" fill="white"/>
<path d="M375.086 225.204H27.4179C20.6712 225.204 15.2056 219.764 15.2056 213.049C15.2056 206.333 20.6712 200.893 27.4179 200.893H375.086C381.833 200.893 387.299 206.333 387.299 213.049C387.299 219.764 381.833 225.204 375.086 225.204Z" fill="white"/>
<g opacity="0.52">
<path d="M373.848 226.819H28.6993C27.8026 226.819 27.0767 226.096 27.0767 225.204C27.0767 224.311 27.8026 223.589 28.6993 223.589H373.848C374.745 223.589 375.471 224.311 375.471 225.204C375.428 226.096 374.745 226.819 373.848 226.819Z" fill="#61CADB"/>
</g>
<path d="M41.5523 232.514L40.3566 232.897C28.614 236.68 15.9746 230.262 12.1742 218.574L1.49909 185.678C-2.30127 173.99 4.14654 161.41 15.8892 157.627L17.0848 157.244C28.8275 153.462 41.4669 159.88 45.2672 171.567L55.9424 204.464C59.7427 216.194 53.2949 228.732 41.5523 232.514Z" fill="white"/>
<g opacity="0.52">
<path d="M33.4819 235.575C28.4006 235.575 23.3619 233.96 19.1772 230.9C18.4513 230.39 18.3232 229.369 18.8356 228.647C19.348 227.967 20.3729 227.797 21.0561 228.307C26.4364 232.26 33.4393 233.407 39.8016 231.367L40.9973 230.985C46.2921 229.284 50.5622 225.629 53.0815 220.742C55.6009 215.812 56.0706 210.244 54.3625 204.974L41.6805 167.615C41.3815 166.765 41.8513 165.872 42.7053 165.575C43.5593 165.277 44.456 165.745 44.7549 166.595L57.437 203.954C59.4012 210.031 58.8888 216.492 55.9852 222.187C53.0815 227.882 48.1283 232.047 42.0221 234.045L40.8265 234.427C38.4352 235.192 35.9586 235.575 33.4819 235.575Z" fill="#61CADB"/>
</g>
<g opacity="0.52">
<path d="M22.935 189.843C21.4832 189.843 19.9886 189.588 18.5368 188.993C12.3025 186.57 9.22809 179.557 11.662 173.352C12.8576 170.334 15.1208 167.997 18.1098 166.679C21.0562 165.404 24.3868 165.319 27.3759 166.509C30.4076 167.699 32.7562 169.952 34.0372 172.927C35.3182 175.86 35.4036 179.175 34.2079 182.15C32.3718 186.91 27.8029 189.843 22.935 189.843ZM22.9777 168.889C21.7821 168.889 20.5438 169.144 19.4335 169.612C17.2558 170.547 15.5478 172.29 14.6938 174.5C12.9003 179.047 15.1635 184.232 19.7324 186.017C24.3014 187.803 29.5109 185.55 31.3043 181.002C32.1583 178.792 32.1156 176.37 31.1762 174.202C30.2368 172.035 28.4861 170.334 26.2657 169.484C25.1554 169.059 24.0452 168.889 22.9777 168.889Z" fill="#61CADB"/>
</g>
<path d="M360.995 232.514L362.191 232.897C373.934 236.68 386.573 230.262 390.373 218.574L401.048 185.678C404.849 173.99 398.401 161.41 386.658 157.627L385.463 157.244C373.72 153.462 361.081 159.88 357.28 171.567L346.605 204.464C342.762 216.194 349.21 228.732 360.995 232.514Z" fill="white"/>
<g opacity="0.52">
<path d="M369.023 235.575C366.547 235.575 364.07 235.192 361.679 234.427L360.483 234.044C354.377 232.089 349.424 227.882 346.52 222.187C343.616 216.534 343.061 210.031 345.068 203.996L357.793 166.595C358.092 165.745 358.989 165.32 359.843 165.575C360.697 165.872 361.124 166.765 360.867 167.615L348.185 204.974C346.477 210.201 346.947 215.811 349.466 220.741C351.986 225.672 356.298 229.284 361.551 230.984L362.746 231.367C369.109 233.407 376.112 232.259 381.492 228.307C382.218 227.797 383.2 227.924 383.712 228.647C384.225 229.369 384.097 230.347 383.371 230.899C379.143 233.959 374.105 235.575 369.023 235.575Z" fill="#61CADB"/>
</g>
<g opacity="0.52">
<path d="M379.57 189.843C374.745 189.843 370.133 186.953 368.255 182.193C367.059 179.175 367.144 175.902 368.425 172.97C369.706 169.995 372.098 167.742 375.087 166.552C378.118 165.362 381.406 165.447 384.353 166.722C387.299 167.997 389.605 170.377 390.8 173.395C393.234 179.6 390.16 186.613 383.968 189.035C382.517 189.545 381.022 189.843 379.57 189.843ZM379.57 168.89C378.46 168.89 377.35 169.102 376.325 169.527C374.105 170.377 372.354 172.077 371.414 174.245C370.475 176.412 370.432 178.835 371.286 181.045C373.08 185.593 378.289 187.845 382.858 186.06C387.427 184.275 389.69 179.09 387.897 174.542C387.043 172.332 385.335 170.59 383.157 169.655C381.961 169.102 380.766 168.89 379.57 168.89Z" fill="#61CADB"/>
</g>
<g opacity="0.52">
<path d="M347.459 200.638H54.106C53.2093 200.638 52.4834 199.916 52.4834 199.023C52.4834 198.131 53.2093 197.408 54.106 197.408H347.459C348.356 197.408 349.082 198.131 349.082 199.023C349.082 199.916 348.356 200.638 347.459 200.638Z" fill="#61CADB"/>
</g>
<path d="M191.688 142.581L176.059 147.512C172.174 139.521 168.331 131.489 164.487 123.413C163.762 121.841 162.95 120.268 162.224 118.696C161.37 116.953 160.559 115.168 159.705 113.425C159.065 112.193 158.509 110.96 157.912 109.685C157.741 97.615 157.613 85.5445 157.442 73.4316C158.168 73.4741 159.278 73.4742 160.602 73.8142C166.921 75.3018 172.814 81.7195 182.251 109.94C182.464 110.62 182.721 111.3 182.934 112.023C183.148 112.575 183.276 113.17 183.489 113.723L184.087 115.465C186.222 122.563 188.955 131.744 191.688 142.581Z" fill="#FBE0E5"/>
<path d="M182.891 112.065C176.742 115.848 170.636 119.631 164.445 123.413C163.719 121.841 162.907 120.268 162.181 118.696C161.327 116.953 160.516 115.168 159.662 113.425C167.434 113 175.162 112.533 182.891 112.065Z" fill="#0B206D"/>
<path d="M155.905 120.694C165.555 117.591 175.248 114.531 184.898 111.428C179.988 100.633 175.035 89.8376 170.124 78.9998C166.879 72.2846 158.979 69.3945 152.702 72.072C147.322 74.4096 144.034 80.4873 145.101 86.735C148.731 98.0829 152.318 109.388 155.905 120.694Z" fill="#EDA3A4"/>
<path d="M169.612 195.241C173.198 198.981 179.305 199.024 183.19 196.048C187.418 192.691 187.375 186.401 183.788 182.533C183.575 182.321 183.361 182.066 183.148 181.853C182.038 180.663 180.97 179.473 179.945 178.283C179.305 178.155 174.223 177.178 170.466 180.536C166.58 184.021 165.555 190.991 169.612 195.241Z" fill="#FBE0E5"/>
<path d="M218.375 288.234C204.241 292.229 190.107 296.266 175.973 300.261C175.119 298.774 174.137 296.521 174.393 293.716C174.479 292.654 174.735 291.889 174.863 291.506C175.461 289.424 175.931 286.023 175.162 280.498C177.639 279.478 180.115 278.458 182.592 277.481C196 287.766 202.234 288.829 205.437 287.724C207.7 286.959 210.262 287.596 212.568 286.959C214.062 286.576 215.813 285.896 217.222 286.789C217.82 287.171 218.162 287.766 218.375 288.234Z" fill="#FBE0E5"/>
<path d="M147.108 201.616C139.422 207.013 130.583 204.718 113.033 203.103C112.606 203.061 112.222 202.976 111.795 202.891C103.553 201.658 96.1663 199.448 89.7185 196.898C87.9677 193.286 87.0284 188.993 87.1138 184.445C91.2984 179.09 95.4404 173.82 99.5823 168.465C104.109 168.21 108.336 168.21 112.307 168.55C136.945 170.547 145.272 176.2 149.542 180.79C154.111 185.635 154.666 188.908 154.581 190.905C154.41 196.516 149.03 200.298 147.108 201.616Z" fill="#FBE0E5"/>
<path d="M135.878 153.207C134.64 155.034 131.992 158.69 126.783 166C118.584 177.518 117.901 178.283 116.962 179.218C110.001 186.018 97.5755 190.821 90.4445 187.846C80.1109 183.595 75.4992 160.73 84.6799 132.126C87.5408 125.836 90.0601 120.353 92.9211 114.063C92.8784 111.216 92.9211 108.283 93.0919 105.265C93.647 94.5975 95.4831 84.7372 98.0025 75.812C102.016 61.489 117.431 53.4562 131.864 58.2163C136.518 59.7464 141.386 61.744 146.425 64.3366C148.09 65.1866 149.713 66.1216 151.293 67.0141C155.563 69.5217 159.748 72.4968 160.9 73.4744C167.263 78.9145 163.292 95.4476 161.925 100.973C156.203 123.839 144.29 141.052 135.878 153.207Z" fill="#FBE0E5"/>
<path d="M122.043 182.108C121.829 189.12 118.243 195.156 112.777 198.853C109.019 201.446 104.365 202.891 99.3262 202.678C91.8109 202.381 85.2777 198.513 81.4347 192.861C78.958 189.248 77.6343 184.955 77.7624 180.408C78.104 168.592 88.2668 159.327 100.522 159.837C105.432 160.049 109.916 161.75 113.546 164.555C118.883 168.635 122.256 175.052 122.043 182.108Z" fill="#FBE0E5"/>
<path d="M176.401 197.621C168.715 203.061 159.876 200.724 142.326 199.108C141.899 199.066 141.515 198.981 141.088 198.896C132.846 197.663 125.459 195.453 119.011 192.903C117.261 189.291 116.321 184.998 116.407 180.45C120.591 175.095 124.733 169.825 128.875 164.47C133.402 164.215 137.629 164.215 141.6 164.555C166.238 166.552 174.565 172.205 178.835 176.795C183.404 181.64 183.959 184.913 183.874 186.911C183.66 192.478 178.28 196.261 176.401 197.621Z" fill="#FBE0E5"/>
<path d="M146.852 178.963C146.681 185.975 143.479 192.011 138.611 195.708C135.28 198.301 131.138 199.746 126.655 199.533C119.993 199.236 114.229 195.368 110.813 189.715C108.635 186.103 107.439 181.81 107.525 177.263C107.824 165.447 116.834 156.182 127.722 156.692C132.078 156.904 136.049 158.605 139.251 161.41C144.034 165.49 147.023 171.865 146.852 178.963Z" fill="#FBE0E5"/>
<path d="M185.111 279.351C181.994 280.499 178.834 281.689 175.717 282.836C174.436 280.414 172.429 276.631 169.782 272.168C155.99 249.133 146.382 243.395 139.763 228.987C136.817 222.569 133.572 212.496 134.169 197.961C139.123 194.178 144.076 190.396 149.029 186.613C149.499 187.421 150.225 188.696 151.122 190.311C158.381 203.911 160.516 215.811 161.071 218.702C162.779 227.414 168.33 244.075 185.111 279.351Z" fill="#FBE0E5"/>
<path d="M163.42 40.2811C162.395 41.4711 161.114 43.0862 159.79 44.9988C159.107 46.0188 158.381 47.1663 157.74 48.4414C156.716 50.3114 155.733 52.4365 154.922 54.7741C154.666 55.4541 154.452 56.1766 154.196 56.9417C153.983 57.7492 153.812 58.5142 153.598 59.2792C152.531 63.9969 152.36 68.162 152.531 71.1371L127.679 60.2568C133.059 50.7365 138.44 41.2161 143.777 31.6533L163.42 40.2811Z" fill="#FBE0E5"/>
<path d="M157.741 48.4411C156.716 50.3111 155.734 52.4362 154.923 54.7737C152.062 53.0737 149.756 49.2486 149.03 44.5734C148.859 43.5109 148.816 42.4483 148.859 41.4708L157.186 40.2808C157.1 42.7033 157.228 45.4235 157.741 48.4411Z" fill="#0B206D"/>
<path d="M169.782 9.38244C170.124 11.89 170.466 14.8226 170.722 18.2227L170.807 19.0727C170.85 19.7103 170.935 20.3903 170.935 21.0703C170.935 21.1553 170.935 21.2403 170.935 21.3253L170.978 21.7928C171.063 23.5354 171.106 24.6404 171.106 25.4905C171.106 27.0205 170.978 27.2755 171.063 28.2531C171.234 29.8256 171.661 30.2506 171.875 31.6532C172.131 32.9707 172.003 33.9907 171.875 35.3083C171.106 42.066 170.722 45.4661 168.63 47.8037C163.292 53.7539 149.372 49.5037 144.674 45.5511C142.454 43.6811 140.874 41.301 140.874 41.301C139.935 39.8984 139.294 38.5384 138.867 37.4759C137.885 34.8408 136.903 31.4832 136.476 27.4455C135.707 20.6453 136.775 15.0351 137.8 11.38C139.849 9.84996 145.657 5.89731 154.111 5.51479C161.84 5.21728 167.519 8.06489 169.782 9.38244Z" fill="#FBE0E5"/>
<path d="M158.637 21.3672C159.064 20.2196 158.851 19.6671 158.637 19.3696C157.527 17.7971 152.147 18.8171 148.944 21.9622C147.919 22.9822 147.321 24.0023 147.022 24.5973C147.193 24.5548 147.449 24.4273 147.791 24.2998C149.713 23.5348 150.353 23.0672 151.677 22.5997C152.531 22.3022 153.171 22.1322 153.726 22.0047C154.965 21.7072 156.587 21.4097 158.637 21.3672Z" fill="#0B206D"/>
<path d="M170.721 18.1802L170.807 19.0302C170.849 19.6677 170.935 20.3477 170.935 21.0277C169.867 20.9002 168.586 20.8152 167.049 20.9852C166.536 19.8377 166.707 19.2852 166.921 18.9877C167.391 18.2227 168.928 17.9252 170.721 18.1802Z" fill="#0B206D"/>
<path d="M164.445 36.413C164.616 36.498 165.683 37.1355 166.964 36.668C167.775 36.3705 168.245 35.818 168.373 35.6055L164.445 36.413Z" fill="#0B206D"/>
<path d="M165.128 44.8709C164.872 44.8709 164.658 44.7009 164.615 44.4459C164.573 44.1484 164.744 43.8934 165.042 43.8084L167.177 43.4259C167.434 43.3834 167.733 43.5534 167.818 43.8509C167.861 44.1484 167.69 44.4034 167.391 44.4459L165.256 44.8284C165.213 44.8709 165.17 44.8709 165.128 44.8709Z" fill="#0B206D"/>
<path d="M169.398 39.1331C169.74 39.9831 167.605 42.1082 165.256 42.4482C161.669 43.0007 158.851 39.2606 158.68 39.0056C160.26 38.8356 162.609 38.6231 165.512 38.5806C168.758 38.5806 169.27 38.7931 169.398 39.1331Z" fill="white"/>
<path d="M157.442 16.9474C156.93 16.9899 155.564 17.0749 153.898 17.1174C149.799 17.2024 149.671 16.9049 149.03 17.16C145.401 18.69 147.835 29.2728 145.358 30.0379C143.607 30.5904 141.216 25.4902 139.593 26.0002C138.142 26.4252 138.184 31.0579 138.91 37.5181C138.355 36.0305 137.458 33.7355 136.092 31.1004C133.146 25.4052 131.181 23.9176 131.267 20.5175C131.267 19.88 131.352 16.9474 133.274 14.5674C134.854 12.5698 136.775 12.1023 136.861 10.4447C136.946 8.87218 135.195 8.27714 135.494 7.1721C135.879 5.68456 139.209 6.61959 142.753 4.45202C144.931 3.13447 144.675 2.15695 146.853 1.30692C147.28 1.13692 150.397 -0.0956211 152.19 1.30692C153.215 2.11445 152.916 3.13448 154.154 3.857C155.265 4.49452 156.503 4.28203 156.845 4.23953C158.723 3.94202 159.364 2.62446 160.218 2.96448C161.029 3.30449 160.73 4.62204 161.542 4.96205C162.31 5.25956 162.993 4.36704 164.36 3.81452C166.666 2.87949 168.972 3.687 169.527 3.89951C170.85 4.36703 173.498 5.72707 173.54 7.55463C173.54 8.48966 172.857 9.25468 170.893 10.6997C167.178 13.3773 162.865 16.5649 157.442 16.9474Z" fill="#0B206D"/>
<path d="M136.775 31.4824C137.458 34.2025 139.636 35.9875 141.643 35.4775C143.65 34.9675 144.717 32.3749 144.077 29.6548C143.436 26.9347 141.216 25.1497 139.209 25.6597C137.159 26.1697 136.092 28.8048 136.775 31.4824Z" fill="#FBE0E5"/>
<path d="M140.96 36.1156C139.807 36.1156 138.611 35.5205 137.672 34.4155C137.501 34.203 137.501 33.863 137.714 33.6505C137.928 33.4805 138.269 33.4805 138.483 33.693C139.38 34.713 140.532 35.1805 141.515 34.9255C141.984 34.798 142.411 34.543 142.753 34.1605C142.966 33.948 143.308 33.948 143.522 34.118C143.735 34.3305 143.778 34.6705 143.564 34.883C143.095 35.4355 142.454 35.7755 141.814 35.9455C141.515 36.1155 141.216 36.1156 140.96 36.1156Z" fill="#0B206D"/>
<path d="M137.671 34.0752C137.501 34.0752 137.33 33.9902 137.244 33.8202C136.86 33.2677 136.604 32.6727 136.39 32.0352C136.305 31.7376 136.476 31.4401 136.732 31.3551C137.031 31.2701 137.33 31.4401 137.415 31.6951C137.586 32.2477 137.842 32.7577 138.141 33.2252C138.312 33.4802 138.227 33.7777 137.97 33.9477C137.885 34.0327 137.757 34.0752 137.671 34.0752Z" fill="#0B206D"/>
<path d="M136.647 31.4828C136.39 31.4828 136.177 31.3128 136.134 31.0577C135.665 28.2527 136.903 25.7026 139.038 25.1926C139.55 25.0651 140.063 25.0651 140.575 25.1501C140.874 25.1926 141.045 25.4901 141.002 25.7876C140.959 26.0851 140.661 26.2551 140.362 26.2126C140.02 26.1276 139.636 26.1276 139.294 26.2126C137.714 26.5951 136.775 28.6352 137.159 30.8877C137.202 31.1852 137.031 31.4403 136.732 31.4828C136.732 31.4828 136.689 31.4828 136.647 31.4828Z" fill="#0B206D"/>
<path d="M141.771 33.31C141.6 33.31 141.429 33.225 141.344 33.0975L138.397 29.0599C138.227 28.8049 138.269 28.5074 138.526 28.3374C138.739 28.1674 139.081 28.2098 139.251 28.4649L142.198 32.5025C142.369 32.7575 142.326 33.055 142.07 33.225C141.984 33.2675 141.856 33.31 141.771 33.31Z" fill="#0B206D"/>
<path d="M140.19 30.8875C139.763 30.76 139.593 30.4625 139.678 30.2075L140.19 28.55C140.276 28.2524 140.575 28.1249 140.874 28.2099C141.173 28.2949 141.301 28.5924 141.215 28.8899L140.703 30.5475C140.618 30.7175 140.404 30.8875 140.19 30.8875Z" fill="#0B206D"/>
<path d="M175.205 300.644C189.681 296.649 204.114 292.696 218.589 288.701C218.803 288.489 219.358 287.851 219.401 286.959C219.443 285.854 218.675 284.834 217.479 284.366C213.551 283.558 209.067 282.921 204.071 282.623C201.723 282.496 199.502 282.453 197.367 282.496C195.531 285.726 193.652 288.999 191.816 292.229C186.094 293.844 180.372 295.501 174.693 297.116C174.565 297.286 174.053 297.881 174.095 298.689C174.053 299.921 175.12 300.559 175.205 300.644Z" fill="#EDA3A4"/>
<path d="M152.275 30.9304C152.147 30.9304 152.062 30.8879 151.933 30.8029C151.72 30.6329 151.677 30.2929 151.848 30.0379C152.574 29.1454 154.154 27.5303 156.673 26.9353C157.826 26.6378 159.022 26.6378 160.175 26.8503C160.474 26.8928 160.644 27.1903 160.602 27.4453C160.559 27.7428 160.26 27.9128 159.961 27.8703C158.936 27.7003 157.912 27.7003 156.887 27.9553C154.709 28.4653 153.3 29.9104 152.659 30.7179C152.574 30.8454 152.446 30.9304 152.275 30.9304Z" fill="#0B206D"/>
<path d="M159.363 28.9755C159.363 29.9955 158.638 30.8031 157.784 30.8031C156.887 30.8031 156.204 29.9955 156.204 28.9755C156.204 27.9555 156.93 27.1479 157.784 27.1479C158.638 27.1479 159.363 27.9555 159.363 28.9755Z" fill="#0B206D"/>
<path d="M164.445 29.8256C164.316 29.8256 164.231 29.7831 164.103 29.6981C163.889 29.5281 163.847 29.1881 164.017 28.933C164.743 28.0405 166.323 26.4255 168.843 25.8304C169.996 25.5754 171.191 25.5329 172.344 25.7454C172.643 25.7879 172.814 26.0855 172.771 26.3405C172.728 26.638 172.43 26.808 172.131 26.7655C171.106 26.5955 170.081 26.5955 169.056 26.8505C166.878 27.3605 165.469 28.8056 164.829 29.6131C164.786 29.7831 164.615 29.8256 164.445 29.8256Z" fill="#0B206D"/>
<path d="M171.576 27.9125C171.576 28.9326 170.85 29.7401 169.996 29.7401C169.142 29.7401 168.416 28.9326 168.416 27.9125C168.416 26.8925 169.142 26.085 169.996 26.085C170.85 26.085 171.576 26.8925 171.576 27.9125Z" fill="#0B206D"/>
<path d="M152.445 186.698C141.343 180.45 130.241 174.203 119.096 167.955C126.313 165.277 133.486 162.6 140.703 159.922C145.998 161.962 150.353 163.492 153.257 164.47C165.853 168.762 171.789 169.995 177.596 175.563C179.176 177.05 180.286 178.453 180.969 179.345C171.49 181.81 161.968 184.275 152.445 186.698Z" fill="#0B206D"/>
<path d="M91.2128 261.756C85.2347 248.41 79.2139 235.023 73.2358 221.677C74.5596 220.615 76.6946 219.297 79.5128 219.17C80.5803 219.127 81.349 219.255 81.776 219.297C83.9537 219.595 87.3697 219.595 92.75 218.022C94.1164 220.317 95.4829 222.612 96.8493 224.907C88.5227 239.57 88.3518 245.86 89.8891 248.878C90.9993 251.003 90.7004 253.596 91.6398 255.806C92.2376 257.208 93.1343 258.866 92.4938 260.353C92.1949 261.033 91.6398 261.458 91.2128 261.756Z" fill="#FBE0E5"/>
<path d="M89.7189 229.837C88.6513 226.692 87.5411 223.547 86.4736 220.359C88.9503 219.169 92.7933 217.299 97.3623 214.749C120.89 201.658 126.954 192.266 141.557 186.103C148.091 183.34 158.296 180.408 172.857 181.428C176.529 186.103 180.201 190.821 183.831 195.496C182.849 196.176 181.184 197.281 179.091 198.513C166.366 205.909 154.368 207.184 151.25 207.609C142.198 208.841 125.118 213.601 89.7189 229.837Z" fill="#FBE0E5"/>
<path d="M61.1089 232.09C71.3997 242.97 81.6906 253.85 91.9387 264.731C92.2376 264.816 93.0489 264.986 93.8603 264.603C94.8424 264.136 95.3975 262.988 95.2694 261.713C94.2446 257.845 93.0916 253.935 91.8533 249.898C91.042 247.305 90.2307 244.712 89.4194 242.205C85.0212 242.375 80.6658 242.587 76.2676 242.757C72.1684 238.507 68.0264 234.215 63.9271 229.964C63.7136 229.922 62.9877 229.752 62.2191 230.177C61.1943 230.729 61.1089 231.962 61.1089 232.09Z" fill="#EDA3A4"/>
<path d="M178.536 184.02C178.365 183.978 172.686 181.98 172.686 181.98C172.387 181.895 172.259 181.597 172.344 181.3C172.43 181.002 172.771 180.875 173.028 180.96L178.707 182.958C179.006 183.043 179.134 183.34 179.048 183.638C178.92 183.85 178.749 184.02 178.536 184.02Z" fill="#0B206D"/>
<path d="M157.655 206.078C157.399 206.078 157.186 205.908 157.143 205.653L155.606 198.513C155.563 198.216 155.734 197.961 156.033 197.876C156.332 197.833 156.588 198.003 156.673 198.301L158.21 205.441C158.253 205.738 158.082 205.993 157.783 206.078C157.741 206.078 157.698 206.078 157.655 206.078Z" fill="#0B206D"/>
<path d="M134.768 212.156C134.511 212.156 134.255 211.944 134.255 211.689L134.042 209.819C133.999 209.521 134.212 209.266 134.511 209.224C134.81 209.181 135.066 209.394 135.109 209.691L135.323 211.561C135.365 211.859 135.152 212.114 134.853 212.156C134.81 212.156 134.81 212.156 134.768 212.156Z" fill="#0B206D"/>
<path d="M133.786 210.159C119.139 207.694 104.45 205.186 89.8042 202.721C87.4556 201.404 80.4954 197.069 77.0367 188.271C71.7418 174.755 79.4706 162.643 80.2819 161.41C84.8936 160.9 135.109 156.055 153.257 185.296C155.264 188.526 157.058 192.478 158.253 197.281C150.097 201.574 141.942 205.866 133.786 210.159Z" fill="#0B206D"/>
<path d="M142.198 158.605C138.654 161.962 133.017 166.17 125.587 167.062C117.261 168.04 116.492 163.28 105.603 163.152C97.0206 163.067 92.3235 165.872 82.844 163.577C80.7516 163.067 79.0863 162.472 77.9761 162.047C78.275 159.455 78.7447 155.629 79.4279 150.997C80.3673 144.919 81.3067 139.904 82.3316 135.314C86.26 117.803 89.2917 114.106 91.7257 101.228C95.1417 83.0796 89.6334 74.1968 97.2768 65.6965C99.6253 63.0614 102.145 61.6164 104.237 60.4263C115.211 54.1361 126.484 55.1562 131.48 55.9637C138.995 72.1992 144.504 79.9344 147.962 79.0844C150.354 78.5319 151.805 73.8143 152.232 65.0165C153.556 65.3565 162.352 67.9491 166.409 76.7469C168.672 81.6346 168.416 86.4372 167.776 90.3898C164.488 111.173 144.247 154.269 142.198 158.605Z" fill="#EDA3A4"/>
<path d="M105.603 102.971C104.536 106.116 103.511 109.261 102.443 112.449C99.0699 122.564 95.6965 132.679 92.3232 142.752L76.1396 139.777C77.5061 128.642 79.0433 119.249 80.367 112.024L80.7086 110.196C80.9649 108.879 81.221 107.518 81.4772 106.286C87.2845 77.1725 92.3659 70.0323 98.4294 67.7797C99.7104 67.2697 100.778 67.0997 101.504 67.0146C102.87 79 104.237 90.9855 105.603 102.971Z" fill="#FBE0E5"/>
<path d="M102.444 112.405C95.0992 112.278 87.7974 112.108 80.4102 111.98L80.7518 110.153C81.008 108.835 81.2642 107.475 81.5204 106.243C81.7766 106.243 82.0328 106.243 82.289 106.243C88.993 108.283 95.7397 110.365 102.444 112.405Z" fill="#0B206D"/>
<path d="M108.892 113.596C98.8997 111.726 88.9504 109.856 78.9585 107.985C79.0866 99.9527 80.5811 86.4373 89.5483 73.9844C94.2453 67.4392 105.134 55.5388 111.326 58.4289C117.432 61.2765 115.553 76.917 115.339 78.5745C113.204 90.2624 111.069 101.95 108.892 113.596Z" fill="#EDA3A4"/>
<path d="M151.464 183.17C151.293 183.17 151.122 183.085 151.037 182.957L150.909 182.787C149.713 181.215 148.39 179.472 145.102 176.582C140.49 172.545 135.024 169.527 128.961 167.699C128.662 167.614 128.534 167.317 128.619 167.019C128.705 166.722 129.003 166.594 129.302 166.679C135.537 168.549 141.088 171.652 145.828 175.775C149.201 178.75 150.567 180.535 151.763 182.15L151.891 182.32C152.062 182.575 152.019 182.872 151.806 183.042C151.678 183.127 151.592 183.17 151.464 183.17Z" fill="white"/>
<path d="M134.597 206.078C134.426 206.078 134.256 205.993 134.127 205.823C133.957 205.568 134.042 205.228 134.298 205.101L154.111 193.201C154.368 193.031 154.709 193.115 154.837 193.37C155.008 193.626 154.923 193.966 154.666 194.093L134.853 205.993C134.811 206.078 134.725 206.078 134.597 206.078Z" fill="white"/>
<path d="M130.924 201.998C130.754 201.956 130.241 201.828 130.241 201.828C128.149 201.191 123.751 199.873 117.474 198.003C114.784 197.196 112.35 196.516 110.086 195.835C92.5365 190.735 87.7967 189.333 84.6796 184.488C81.9041 180.195 81.3917 174.33 83.0997 167.147C83.1851 166.85 83.484 166.68 83.7402 166.765C84.0391 166.85 84.2099 167.105 84.1245 167.402C82.4592 174.287 82.9289 179.855 85.5336 183.893C88.48 188.398 93.0917 189.758 110.343 194.773C112.563 195.41 115.04 196.133 117.73 196.941C124.05 198.811 128.448 200.128 130.54 200.766L131.095 200.936C131.394 201.021 131.522 201.318 131.437 201.616C131.394 201.871 131.181 201.998 130.924 201.998Z" fill="white"/>
<path d="M292.931 68.6714C293.828 74.9191 296.945 75.9817 296.048 79.4668C294.853 84.227 287.636 87.8821 281.487 87.0745C274.869 86.2245 269.531 80.2318 267.695 74.1966C263.126 58.8536 282.043 44.9557 276.876 37.3479C273.118 31.8228 260.991 35.9879 259.881 32.2052C258.941 29.0176 266.414 21.6649 274.527 22.4299C280.206 22.9825 284.903 27.3176 286.355 31.8653C287.636 35.8604 285.373 36.9654 286.355 41.6406C287.764 48.2708 292.675 48.2283 294.169 54.4335C295.621 60.0862 291.864 61.4887 292.931 68.6714Z" fill="#0B206D"/>
<path d="M293.144 83.3767C292.675 83.3767 292.248 83.0792 292.12 82.6116C291.949 82.0591 292.248 81.4641 292.845 81.2941C294.596 80.7416 295.664 80.0191 296.005 79.1266C296.347 78.234 295.963 77.384 295.109 75.7264C294.297 74.0264 293.272 71.9438 292.803 68.8412C292.248 64.9311 292.974 62.636 293.657 60.5534C294.255 58.6834 294.724 57.1533 294.126 54.6882C293.443 51.9681 292.077 50.5656 290.582 49.1206C288.917 47.463 287.081 45.6355 286.27 41.8953C285.757 39.3878 286.056 37.7727 286.355 36.3702C286.526 35.5626 286.654 34.8826 286.654 34.1176C286.654 33.3951 286.44 32.715 286.312 32.29C285.373 28.7199 278.797 26.1698 273.417 25.0223C272.819 24.8948 272.477 24.3423 272.605 23.7472C272.733 23.1522 273.331 22.8122 273.886 22.9397C276.918 23.5773 286.867 26.1273 288.362 31.5675C288.533 32.1625 288.746 33.0551 288.789 33.9901C288.832 35.0526 288.618 35.9027 288.447 36.7527C288.191 38.0702 287.935 39.3027 288.362 41.3853C289.002 44.4879 290.497 45.9755 292.077 47.548C293.699 49.1631 295.365 50.8206 296.176 54.1357C296.902 57.1958 296.262 59.1934 295.664 61.1485C295.066 63.061 294.425 65.0586 294.895 68.4587C295.279 71.2213 296.261 73.1338 296.987 74.7064C297.884 76.4914 298.61 78.0215 297.97 79.8065C297.372 81.3791 295.835 82.5266 293.401 83.2917C293.358 83.3767 293.23 83.3767 293.144 83.3767Z" fill="#0B206D"/>
<path d="M308.56 97.1474C282.64 96.9774 256.764 96.8499 230.887 96.7224C231.357 94.2148 232.467 90.6022 235.456 87.7971C242.331 81.2944 252.195 85.7995 257.959 80.3594C259.027 79.3818 260.137 77.8943 260.82 75.6417C261.632 73.1766 261.931 69.7765 261.375 65.0589C261.29 64.5489 261.205 63.9963 261.119 63.4013C261.504 63.4013 261.931 63.3588 262.272 63.3163C264.663 63.1463 267.012 63.0188 269.403 62.8488C268.464 61.8288 268.549 60.2987 269.318 59.6187C270.214 58.7687 271.965 58.9387 272.819 60.2987C275.21 72.9641 280.078 78.2343 284.434 80.6569C290.796 84.142 297.372 82.3994 303.307 87.8396C306.51 90.6872 307.876 94.4273 308.56 97.1474Z" fill="#FBE0E5"/>
<path d="M292.589 95.4474C292.76 95.4474 293.145 95.4474 293.486 95.7024C293.956 96.0849 294.127 96.765 293.87 97.445C276.491 97.445 259.155 97.445 241.776 97.445C241.562 96.8925 241.69 96.2974 242.117 95.9574C242.544 95.5749 243.099 95.6599 243.185 95.7024C250.102 93.9174 255.483 93.9599 259.198 94.3424C262.229 94.6399 262.998 95.1074 266.329 95.2349C272.264 95.5324 274.826 94.3849 279.651 94.0874C282.555 93.9174 286.996 94.0024 292.589 95.4474Z" fill="white"/>
<path d="M271.794 87.4147C272.179 87.5847 272.777 87.8397 273.502 88.0522C275.979 88.8172 278.071 88.6473 279.523 88.5623C284.775 88.1373 289.643 87.3722 291.266 87.1172C287.508 87.2447 283.708 87.3722 279.95 87.4997L271.794 87.4147Z" fill="#0B206D"/>
<path d="M266.97 87.4147C266.585 87.5847 265.987 87.8397 265.262 88.0522C262.785 88.8172 260.693 88.6473 259.241 88.5623C253.989 88.1373 249.121 87.3722 247.498 87.1172C251.256 87.2447 255.056 87.3722 258.814 87.4997L266.97 87.4147Z" fill="#0B206D"/>
<path d="M198.307 176.455C199.63 171.057 200.911 165.702 202.235 160.304C213.038 160.262 224.909 160.729 237.677 161.962C249.59 163.109 260.607 164.767 270.599 166.722C278.712 174.33 279.523 186.06 273.844 192.988C269.745 197.96 262.656 200.085 255.611 198.725C250.615 198.045 245.277 197.025 239.641 195.538C222.048 190.82 208.256 183.255 198.307 176.455Z" fill="#FBE0E5"/>
<path d="M295.194 164.215C292.205 159.115 288.917 155.077 285.971 151.974C287.892 142.029 289.814 132.084 291.735 122.138C295.408 120.268 297.927 116.571 297.927 112.321C297.927 109.516 296.817 106.965 295.023 105.01C295.536 102.375 296.048 99.7827 296.561 97.1476C295.109 95.4476 292.974 93.45 289.942 91.9624C280.377 87.2023 270.385 91.7924 268.762 92.5575C267.012 91.7924 257.02 87.2023 247.412 91.9624C244.423 93.45 242.245 95.4476 240.793 97.1476C241.306 99.7827 241.818 102.375 242.331 105.01C240.537 106.965 239.427 109.516 239.427 112.321C239.427 116.571 241.946 120.268 245.619 122.138C247.54 132.084 249.462 142.029 251.383 151.974C248.437 155.077 245.149 159.115 242.16 164.215C235.883 174.925 234.004 185.21 233.406 191.713C239.171 194.093 246.43 196.431 255.056 197.833C259.795 198.598 264.151 198.938 268.122 199.066C268.293 196.813 269.019 196.813 269.189 199.066C273.118 198.981 277.516 198.598 282.256 197.833C290.881 196.431 298.14 194.093 303.905 191.713C303.307 185.21 301.428 174.968 295.194 164.215Z" fill="#ACE3EC"/>
<path d="M301.001 153.972C298.952 168.592 286.91 187.633 267.183 187.633C247.028 187.633 234.901 168.847 233.364 153.972C231.997 140.881 238.103 124.22 250.487 119.715C256.721 117.463 262.443 118.993 267.183 120.31C267.61 120.438 267.567 120.438 267.951 120.523C277.516 123.158 283.836 120.098 287.978 120.778C296.005 122.18 303.051 139.266 301.001 153.972Z" fill="#ACE3EC"/>
<path d="M270.599 198.811C265.902 201.658 262.4 201.913 260.094 201.616C258.514 201.403 256.892 200.851 253.177 200.298C250.658 199.916 248.821 199.831 248.352 199.788C235.755 198.811 210.861 185.508 210.861 185.508C206.761 183.298 201.296 180.238 194.976 176.328C190.535 174.373 188.272 169.655 189.382 165.745C190.706 161.07 196.684 158.01 202.15 160.347C212.611 159.582 223.073 158.817 233.492 158.052C243.911 162.09 254.33 166.17 264.706 170.207C266.756 179.728 268.677 189.248 270.599 198.811Z" fill="#EDA3A4"/>
<path d="M202.321 166.425C207.573 168.635 209.622 174.797 207.616 179.557C206.078 183.213 202.278 185.635 197.965 185.678C196.641 184.955 195.318 184.19 193.909 183.468C192.628 182.788 191.347 182.15 190.066 181.513C189.809 181.088 186.991 176.455 189.083 171.737C191.133 167.147 196.983 164.13 202.321 166.425Z" fill="#FBE0E5"/>
<path d="M284.989 202.678C283.324 204.846 281.658 207.014 280.036 209.224C278.456 208.501 275.936 207.439 272.777 206.291C248.48 197.621 234.858 203.613 215.985 196.303C211.501 194.561 205.139 191.458 198.221 185.593C199.801 179.303 201.381 172.97 203.004 166.68C220.426 173.692 233.62 179.94 242.715 184.53C247.754 187.08 256.209 191.458 268.336 196.388C275.21 199.236 281.018 201.318 284.989 202.678Z" fill="#FBE0E5"/>
<path d="M295.323 204.676C292.718 210.839 290.113 216.959 287.508 223.122C286.654 223.292 285.544 223.377 284.647 222.781C283.025 221.676 283.196 218.999 283.11 217.681C282.939 215.004 281.317 211.264 274.698 206.674C276.321 204.761 277.986 202.806 279.609 200.893C282.598 201.276 285.331 201.658 288.106 202.083C289.729 202.296 291.608 202.593 293.743 203.741C294.426 204.081 294.938 204.421 295.323 204.676Z" fill="#FBE0E5"/>
<path d="M266.285 204.251C254.372 203.953 193.566 201.828 187.93 180.025C186.692 175.307 186.82 164.64 191.944 161.962C196.598 159.497 203.046 163.492 204.284 164.3C209.665 167.445 215.045 170.59 220.468 173.735C237.42 180.408 254.372 187.123 271.281 193.796C269.573 197.281 267.951 200.766 266.285 204.251Z" fill="#EDA3A4"/>
<path d="M265.987 198.811C270.684 201.658 274.185 201.913 276.491 201.616C278.071 201.403 279.694 200.851 283.408 200.298C285.928 199.916 287.764 199.831 288.234 199.788C300.83 198.811 325.725 185.508 325.725 185.508C329.824 183.298 335.29 180.238 341.609 176.328C346.05 174.372 348.313 169.655 347.203 165.745C345.88 161.07 339.901 158.009 334.436 160.347C327.347 160.687 316.459 161.622 303.478 164.767C292.931 167.275 289.387 169.23 283.238 170.377C273.972 172.077 259.923 171.737 240.452 161.112C248.949 173.65 257.489 186.23 265.987 198.811Z" fill="#EDA3A4"/>
<path d="M334.308 166.425C329.056 168.635 327.006 174.797 329.013 179.557C330.55 183.213 334.351 185.635 338.663 185.678C339.987 184.955 341.311 184.19 342.72 183.468C344.001 182.788 345.282 182.15 346.563 181.513C346.819 181.088 349.637 176.455 347.545 171.737C345.495 167.147 339.645 164.13 334.308 166.425Z" fill="#FBE0E5"/>
<path d="M251.64 202.678C253.305 204.846 254.97 207.014 256.593 209.224C258.173 208.501 260.692 207.439 263.852 206.291C288.149 197.621 301.77 203.613 320.644 196.303C325.127 194.561 331.49 191.458 338.407 185.593C336.827 179.303 335.247 172.97 333.625 166.68C316.203 173.692 303.008 179.94 293.913 184.53C288.875 187.08 280.42 191.458 268.293 196.388C261.418 199.236 255.611 201.318 251.64 202.678Z" fill="#FBE0E5"/>
<path d="M241.306 204.676C243.911 210.839 246.516 216.959 249.12 223.122C249.974 223.292 251.085 223.377 251.981 222.781C253.604 221.676 253.433 218.999 253.519 217.681C253.689 215.004 255.312 211.264 261.931 206.674C260.308 204.761 258.643 202.806 257.02 200.893C254.031 201.276 251.298 201.658 248.523 202.083C246.9 202.296 245.021 202.593 242.886 203.741C242.203 204.081 241.648 204.421 241.306 204.676Z" fill="#FBE0E5"/>
<path d="M270.342 204.251C282.256 203.953 343.061 201.828 348.698 180.025C349.936 175.307 349.808 164.64 344.684 161.962C340.03 159.497 333.582 163.492 332.343 164.3C326.963 167.445 321.583 170.59 316.16 173.735C299.208 180.408 282.256 187.123 265.346 193.796C267.054 197.281 268.677 200.766 270.342 204.251Z" fill="#EDA3A4"/>
<path d="M298.781 165.915C299.977 165.617 301.13 165.32 302.325 164.98C300.318 169.017 297.884 171.227 296.048 172.545C292.76 174.883 290.796 174.542 281.317 177.9C276.107 179.728 276.278 179.983 274.399 180.365C271.197 180.96 267.652 180.833 260.18 178.495C250.145 175.35 243.74 173.31 237.762 167.275C234.389 163.875 232.382 160.432 231.271 158.222C231.997 157.84 232.766 157.414 233.492 157.032C241.434 157.67 249.377 158.264 257.362 158.902C271.154 161.24 284.946 163.577 298.781 165.915Z" fill="#ACE3EC"/>
<path d="M267.14 194.306C266.926 194.306 266.755 194.178 266.67 194.008C266.542 193.753 266.67 193.413 266.926 193.286L332.173 163.747C332.429 163.62 332.77 163.747 332.899 164.002C333.027 164.257 332.899 164.597 332.642 164.725L267.396 194.263C267.31 194.306 267.225 194.306 267.14 194.306Z" fill="white"/>
<path d="M327.476 167.232C327.049 167.105 326.878 166.807 326.963 166.552L327.732 164.045C327.817 163.747 328.116 163.62 328.415 163.705C328.714 163.79 328.842 164.087 328.757 164.385L327.988 166.892C327.903 167.062 327.689 167.232 327.476 167.232Z" fill="white"/>
<path d="M271.581 191.755C271.367 191.713 208.384 166.127 208.384 166.127C208.128 166 208 165.702 208.085 165.447C208.213 165.192 208.512 165.065 208.768 165.15L271.752 190.735C272.008 190.863 272.136 191.16 272.05 191.415C272.008 191.628 271.794 191.755 271.581 191.755Z" fill="white"/>
<path d="M206.804 166.169C206.718 166.169 206.633 166.169 206.59 166.127L203.388 164.639C203.131 164.512 203.003 164.214 203.131 163.917C203.259 163.662 203.558 163.534 203.857 163.662L207.06 165.149C207.316 165.277 207.444 165.574 207.316 165.872C207.188 166.042 206.974 166.169 206.804 166.169Z" fill="white"/>
<path d="M206.847 165.66C206.633 165.66 206.42 165.489 206.334 165.277L205.48 162.429C205.395 162.132 205.566 161.834 205.822 161.749C206.121 161.664 206.42 161.834 206.505 162.089L207.359 164.937C207.444 165.235 207.274 165.532 207.017 165.617C206.932 165.659 206.889 165.66 206.847 165.66Z" fill="white"/>
<path d="M269.019 71.4766C268.25 74.8767 265.304 77.0868 262.443 76.4493C261.803 76.2792 261.248 76.0242 260.778 75.6417C261.589 73.1766 261.888 69.7765 261.333 65.0589C262.486 64.2089 263.895 63.8688 265.304 64.1664C268.165 64.8464 269.83 68.0765 269.019 71.4766Z" fill="#0B206D"/>
<path d="M271.623 66.3342C266.414 71.6468 259.368 73.2194 258.514 73.3894C257.745 73.5169 256.977 73.5594 256.251 73.4744C256.251 73.4744 255.098 73.3468 253.988 72.9643C250.828 71.7743 248.095 66.1641 247.882 65.6966C246.601 63.0615 245.661 60.979 245.661 58.1314C245.704 55.9213 246.387 55.0288 246.601 51.4162C246.686 49.4186 246.515 48.5261 246.515 47.1235V46.571C246.472 46.2735 246.472 45.891 246.472 45.551C246.472 45.2535 246.472 44.9984 246.515 44.6584C246.515 44.4034 246.558 44.1484 246.558 43.8509C246.729 40.7483 247.455 36.9657 250.102 34.2456C250.102 34.2456 252.92 31.483 258.002 30.5905C259.411 30.293 260.905 30.293 260.905 30.293H261.973C264.791 30.463 272.007 31.2705 276.406 36.7532C283.494 45.466 278.028 59.7889 271.623 66.3342Z" fill="#FBE0E5"/>
<path d="M281.274 54.4332C281.146 57.1533 279.395 59.2784 277.345 59.1509C275.338 59.0659 273.801 56.7708 273.972 54.0507C274.1 51.3307 275.851 49.2056 277.9 49.3331C279.907 49.4181 281.445 51.7132 281.274 54.4332Z" fill="#FBE0E5"/>
<path d="M277.517 59.7036C276.662 59.6611 276.022 59.4061 275.467 58.9811C275.253 58.8111 275.168 58.4711 275.381 58.2161C275.552 58.0036 275.894 57.9186 276.15 58.1311C276.534 58.4286 277.004 58.5986 277.474 58.6411C278.456 58.6836 279.481 58.0461 280.121 56.8985C280.249 56.6435 280.591 56.5585 280.847 56.686C281.103 56.8135 281.189 57.1535 281.061 57.4085C280.164 58.8536 278.883 59.7036 277.517 59.7036Z" fill="#0B206D"/>
<path d="M280.805 57.0683C280.335 56.8983 280.207 56.6008 280.293 56.3458C280.506 55.8357 280.634 55.3257 280.677 54.7732C280.72 54.4757 280.933 54.2632 281.275 54.3057C281.574 54.3482 281.787 54.6032 281.745 54.9007C281.659 55.5382 281.488 56.1758 281.275 56.7708C281.232 56.9408 281.019 57.0683 280.805 57.0683Z" fill="#0B206D"/>
<path d="M281.275 54.4335C280.976 54.4335 280.762 54.2209 280.72 53.9234C280.677 51.7134 279.396 49.9283 277.816 49.8433C277.475 49.8433 277.133 49.8858 276.791 50.0133C276.535 50.1408 276.193 50.0133 276.108 49.7158C275.98 49.4608 276.108 49.1208 276.407 49.0358C276.877 48.8233 277.389 48.7808 277.901 48.7808C280.037 48.9083 281.745 51.0759 281.787 53.8809C281.83 54.1785 281.616 54.4335 281.275 54.4335C281.318 54.4335 281.318 54.4335 281.275 54.4335Z" fill="#0B206D"/>
<path d="M276.748 57.1108C276.662 57.1108 276.577 57.1108 276.534 57.0683C276.278 56.9408 276.15 56.6433 276.278 56.3458L278.327 51.9257C278.456 51.6706 278.754 51.5431 279.053 51.6706C279.31 51.7981 279.438 52.0956 279.31 52.3931L277.26 56.8133C277.132 56.9833 276.961 57.1108 276.748 57.1108Z" fill="#0B206D"/>
<path d="M277.815 54.4754C277.644 54.4754 277.431 54.3904 277.345 54.1778L276.534 52.6903C276.406 52.4353 276.491 52.0953 276.747 51.9678C277.004 51.8403 277.345 51.9253 277.473 52.1803L278.285 53.6678C278.413 53.9228 278.327 54.2628 278.071 54.3903C277.986 54.4753 277.9 54.4754 277.815 54.4754Z" fill="#0B206D"/>
<path d="M262.273 51.6283C262.273 52.6058 263.212 53.4133 264.365 53.4133C265.518 53.4558 266.458 52.6483 266.458 51.7133C266.458 50.7357 265.518 49.9282 264.365 49.9282C263.212 49.9282 262.273 50.6508 262.273 51.6283Z" fill="#0B206D"/>
<path d="M261.546 52.3087C261.418 52.3087 261.248 52.2662 261.162 52.1387L259.967 50.8637C259.753 50.6512 259.796 50.3111 260.009 50.0986C260.223 49.8861 260.564 49.8861 260.778 50.1411L261.461 50.9061C261.589 50.7361 261.717 50.6086 261.845 50.4811C263.297 49.1211 266.201 49.4186 269.233 51.1612C269.489 51.3312 269.574 51.6287 269.403 51.8837C269.233 52.1387 268.934 52.2237 268.677 52.0537C266.115 50.5661 263.639 50.2261 262.571 51.2462C262.358 51.4162 262.187 51.6712 262.102 51.9687C262.016 52.1387 261.888 52.2662 261.717 52.3087C261.589 52.3087 261.546 52.3087 261.546 52.3087Z" fill="#0B206D"/>
<path d="M246.815 50.1836C246.558 51.1187 247.242 52.1387 248.352 52.4787C249.462 52.8187 250.572 52.3087 250.828 51.3737C251.085 50.4386 250.401 49.4186 249.291 49.0786C248.181 48.7386 247.071 49.2061 246.815 50.1836Z" fill="#0B206D"/>
<path d="M253.22 52.4787C253.092 52.4787 252.921 52.4362 252.835 52.3087C250.786 50.1836 248.48 49.2061 247.156 49.8861C246.9 50.0136 246.686 50.2261 246.473 50.4811C246.345 50.6086 246.217 50.7362 246.003 50.6937C245.832 50.6937 245.662 50.5661 245.576 50.3961L244.765 48.8236C244.637 48.5686 244.722 48.2286 244.978 48.1011C245.235 47.9736 245.576 48.0585 245.704 48.3136L246.174 49.2061C246.345 49.0786 246.473 48.9936 246.644 48.9086C248.394 48.016 251.127 49.0361 253.561 51.5437C253.775 51.7562 253.775 52.0962 253.561 52.3087C253.476 52.4362 253.348 52.4787 253.22 52.4787Z" fill="#0B206D"/>
<path d="M271.197 48.0586C269.916 47.5486 268.08 46.9111 265.817 46.6136C263.895 46.3586 262.187 46.3585 260.949 46.4861C260.991 46.231 261.077 45.9335 261.205 45.636C261.547 44.871 262.016 44.361 262.401 44.0635C263.938 44.276 265.219 44.5735 266.158 44.786C268.421 45.3385 268.976 45.636 269.361 45.891C270.386 46.5711 270.941 47.4636 271.197 48.0586Z" fill="#0B206D"/>
<path d="M261.503 43.8936C261.333 44.1061 261.076 44.4461 260.906 44.8711C260.564 45.6361 260.436 46.4012 260.521 46.4012C260.607 46.4437 261.034 45.5511 261.119 45.2961C261.29 44.9136 261.418 44.5736 261.76 44.1486C261.845 44.0211 261.93 43.9786 261.973 43.8936H261.503Z" fill="#0B206D"/>
<path d="M251.298 46.1032C250.017 46.0607 248.394 46.1457 246.473 46.4857C246.43 46.1882 246.43 45.8057 246.43 45.4657C246.43 45.1682 246.43 44.9132 246.473 44.5732C247.327 44.2756 248.437 44.0207 249.761 43.7231C250.102 44.0207 250.658 44.4882 250.999 45.2532C251.127 45.5507 251.255 45.8482 251.298 46.1032Z" fill="#0B206D"/>
<path d="M250.573 43.5532C250.743 43.7657 251 44.0632 251.256 44.4883C251.64 45.2108 251.811 45.9758 251.725 46.0183C251.64 46.0608 251.17 45.2108 251.042 44.9557C250.829 44.5732 250.701 44.2332 250.359 43.8507C250.274 43.7657 250.188 43.6807 250.146 43.6382L250.573 43.5532Z" fill="#0B206D"/>
<path d="M255.397 58.1316C254.885 57.7916 254.373 57.7066 253.817 57.6641C253.305 57.6641 252.75 57.7066 252.195 57.9616C252.707 58.3016 253.22 58.3866 253.775 58.4291C254.33 58.4291 254.885 58.3866 255.397 58.1316Z" fill="#0B206D"/>
<path d="M255.696 64.2089C255.483 64.2089 255.226 64.2089 255.013 64.2089C253.262 64.1239 251.554 63.6989 249.931 62.9764C249.675 62.8489 249.547 62.5514 249.675 62.2539C249.803 61.9989 250.102 61.8713 250.401 61.9988C251.896 62.6789 253.476 63.0614 255.098 63.1464C257.874 63.3164 260.137 62.5089 261.503 61.7864C261.76 61.6588 262.101 61.7863 262.229 62.0413C262.357 62.2964 262.272 62.6364 261.973 62.7639C260.009 63.6989 257.874 64.2089 255.696 64.2089Z" fill="#0B206D"/>
<path d="M250.743 62.7642C250.829 63.6993 253.988 63.9543 254.33 63.9968C254.8 64.0393 258.771 64.3368 259.411 62.8493C259.454 62.7643 259.582 62.4667 259.454 62.2117C259.241 61.7867 258.557 61.9992 257.404 61.7017C256.209 61.4042 255.825 60.8517 255.099 60.9367C255.056 60.9367 254.501 60.9792 254.117 60.9367C253.946 60.8942 253.775 60.8942 253.775 60.8942C253.092 60.7667 253.092 60.6392 252.836 60.6817C252.323 60.8092 251.555 61.7867 251.555 61.7867C251.128 62.0417 250.7 62.3817 250.743 62.7642Z" fill="#F26E58"/>
<path d="M254.756 66.8436C254.543 66.8436 254.329 66.8436 254.116 66.8011C253.689 66.7586 253.304 66.6736 252.877 66.5886C252.579 66.5036 252.408 66.2061 252.493 65.9511C252.579 65.6535 252.835 65.5261 253.134 65.5686C253.475 65.6536 253.817 65.7386 254.158 65.7386C254.97 65.8236 255.738 65.7385 256.55 65.4835C256.849 65.3985 257.148 65.5685 257.233 65.8236C257.318 66.1211 257.148 66.4186 256.891 66.5036C256.251 66.7161 255.482 66.8436 254.756 66.8436Z" fill="#0B206D"/>
<path d="M258.599 63.1468C258.685 63.6568 256.422 64.8469 254.073 64.6769C252.835 64.5919 251.34 64.0818 251.34 63.5718C251.34 63.0193 253.006 62.5943 254.073 62.4668C255.055 62.3393 255.867 62.5093 257.148 62.7218C258.087 62.8918 258.557 62.9768 258.599 63.1468Z" fill="white"/>
<path d="M267.738 28.6777C268.464 28.8477 275.466 30.7178 279.139 37.3055C281.487 41.5556 282.341 47.4633 280.377 48.8234C279.95 49.1209 279.694 48.9934 278.883 49.5034C276.705 50.736 276.406 52.606 275.808 52.5635C274.57 52.4785 276.107 45.3383 272.734 41.8532C269.83 38.8781 265.645 41.0881 256.55 39.2606C252.75 38.4955 249.718 37.348 247.796 36.5405C248.779 35.0529 250.914 32.2903 254.629 30.3353C255.995 29.6128 261.247 27.0627 267.738 28.6777Z" fill="#0B206D"/>
<path d="M296.56 97.1474C277.985 97.1474 259.411 97.1474 240.836 97.1474C238.658 93.6623 236.48 90.1772 234.303 86.6921C235.883 85.8846 238.018 84.9495 240.665 84.312C243.569 83.632 246.088 83.5044 247.967 83.5894C253.305 84.907 261.076 86.1395 270.427 85.332C277.131 84.737 282.768 83.2494 287.038 81.8044C290.07 81.5069 295.151 81.5494 300.318 84.227C301.428 84.822 302.41 85.4595 303.307 86.0971C301.044 89.7947 298.823 93.4923 296.56 97.1474Z" fill="#ACE3EC"/>
<path d="M320.857 120.523C323.206 125.793 325.127 130.851 326.665 135.569C323.419 138.586 320.217 141.604 316.972 144.664C314.281 139.946 311.634 135.186 308.944 130.469C308.004 128.854 307.108 127.196 306.168 125.538C301.813 117.846 297.457 110.153 293.102 102.418C289.387 97.4025 289.088 91.7498 291.266 89.6673C293.742 87.2872 300.831 88.0522 305.912 94.2574C308.474 97.8275 311.036 101.78 313.513 106.073C316.374 111.045 318.808 115.848 320.857 120.523Z" fill="#FBE0E5"/>
<path d="M320.857 120.523C316.886 123.839 312.915 127.154 308.944 130.426C308.005 128.811 307.108 127.154 306.168 125.496C311.079 123.881 315.947 122.181 320.857 120.523Z" fill="#0B206D"/>
<path d="M323.889 118.908L303.179 129.958C298.568 120.183 293.913 110.408 289.302 100.632C286.654 95.5323 288.448 89.2421 293.316 86.267C298.098 83.3769 304.418 84.5669 307.834 89.0721C313.171 99.0174 318.552 108.963 323.889 118.908Z" fill="#ACE3EC"/>
<path d="M218.248 118.696C215.6 123.838 213.465 128.768 211.672 133.444C214.746 136.589 217.821 139.776 220.895 142.964C223.799 138.374 226.702 133.784 229.649 129.193C230.674 127.621 231.656 126.006 232.681 124.433C237.42 116.953 242.16 109.515 246.9 101.993C250.828 97.1474 251.426 91.5372 249.377 89.3696C247.028 86.862 239.94 87.2871 234.517 93.2372C231.784 96.6799 229.051 100.505 226.318 104.67C223.158 109.43 220.511 114.105 218.248 118.696Z" fill="#FBE0E5"/>
<path d="M218.248 118.696C222.048 122.181 225.849 125.709 229.649 129.194C230.674 127.621 231.656 126.006 232.681 124.433C227.813 122.478 223.073 120.566 218.248 118.696Z" fill="#0B206D"/>
<path d="M215.259 116.91L235.413 128.981C240.538 119.461 245.619 109.898 250.743 100.377C253.604 95.4048 252.152 89.0296 247.455 85.8419C242.843 82.6968 236.438 83.5893 232.809 87.9245C226.959 97.5723 221.109 107.22 215.259 116.91Z" fill="#ACE3EC"/>
<path d="M259.155 176.838C258.13 178.155 257.105 179.515 256.08 180.833C244.893 176.668 231.101 169.782 217.991 158.009C214.832 155.204 212.013 152.357 209.451 149.552C208.854 148.574 207.274 145.684 207.53 141.859C207.871 137.056 210.903 134.081 211.629 133.401C213.892 135.526 216.113 137.651 218.376 139.776C221.963 141.901 224.61 143.899 226.105 145.089C238.573 154.992 240.751 163.832 253.134 172.97C255.781 174.883 258.002 176.2 259.155 176.838Z" fill="#FBE0E5"/>
<path d="M277.474 176.71C278.498 178.027 279.523 179.387 280.548 180.705C291.736 176.54 305.528 169.655 318.637 157.882C321.797 155.077 324.615 152.229 327.177 149.424C327.775 148.446 329.355 145.556 329.099 141.731C328.757 136.929 325.725 133.953 324.999 133.273C322.736 135.399 320.516 137.524 318.253 139.649C314.666 141.774 312.018 143.771 310.524 144.961C298.055 154.864 295.878 163.704 283.494 172.842C280.89 174.755 278.627 176.072 277.474 176.71Z" fill="#FBE0E5"/>
<path d="M252.75 172.63C254.629 173.267 258.386 174.287 263.083 173.565C266.969 172.97 269.787 171.44 271.41 170.42C271.752 170.59 271.922 170.845 272.008 171.057C272.093 171.312 272.051 171.567 271.922 171.822C272.947 171.057 273.588 170.207 273.972 169.612C274.613 168.592 275.424 168.125 275.723 168.295C276.064 168.465 276.064 169.4 275.595 170.462C275.723 170.547 275.851 170.675 275.936 170.802C276.363 171.355 276.321 172.205 276.064 173.012C276.107 173.352 276.15 173.735 276.15 174.16C276.107 176.37 275.082 178.113 274.314 179.133C275.296 178.708 276.235 178.325 277.217 177.9C277.9 177.815 278.157 177.9 278.199 178.027C278.456 178.708 274.356 181.98 269.488 182.745C266.926 183.128 265.048 182.788 261.461 182.065C258.941 181.555 255.696 180.663 252.024 179.133C252.195 177.05 252.494 174.84 252.75 172.63Z" fill="#FBE0E5"/>
<path d="M266.158 176.03C265.945 176.03 265.731 175.902 265.646 175.69C265.518 175.435 265.688 175.095 265.944 175.01C266.841 174.67 267.695 174.245 268.464 173.735C269.489 173.097 270.428 172.332 271.239 171.482C271.453 171.27 271.795 171.27 272.008 171.482C272.222 171.695 272.222 172.035 272.008 172.247C271.111 173.14 270.129 173.947 269.019 174.627C268.165 175.18 267.268 175.647 266.329 175.987C266.329 176.03 266.243 176.03 266.158 176.03Z" fill="#0B206D"/>
<path d="M271.667 177.772C271.581 177.772 271.496 177.73 271.411 177.687C271.154 177.517 271.069 177.22 271.24 176.965L275.254 170.42C275.424 170.165 275.723 170.08 275.98 170.25C276.236 170.42 276.321 170.717 276.15 170.972L272.136 177.517C272.008 177.645 271.838 177.772 271.667 177.772Z" fill="#0B206D"/>
<path d="M269.532 178.282C269.275 178.282 269.062 178.112 269.019 177.857C268.934 177.56 269.147 177.305 269.403 177.22L271.539 176.71C271.837 176.625 272.094 176.795 272.179 177.092C272.264 177.39 272.051 177.645 271.795 177.73L269.66 178.24C269.617 178.24 269.574 178.282 269.532 178.282Z" fill="#0B206D"/>
<path d="M272.35 179.345C272.264 179.345 272.136 179.302 272.051 179.26C271.795 179.09 271.709 178.792 271.88 178.537L275.552 172.842C275.723 172.587 276.065 172.502 276.278 172.672C276.534 172.842 276.62 173.14 276.449 173.395L272.777 179.09C272.734 179.26 272.563 179.345 272.35 179.345Z" fill="#0B206D"/>
<path d="M270.044 179.983C269.787 179.983 269.574 179.813 269.531 179.6C269.446 179.303 269.617 179.005 269.916 178.963L272.221 178.325C272.52 178.24 272.819 178.41 272.862 178.708C272.947 179.005 272.777 179.303 272.478 179.345L270.172 179.983C270.129 179.983 270.086 179.983 270.044 179.983Z" fill="#0B206D"/>
<path d="M269.361 181.64C269.104 181.64 268.848 181.428 268.848 181.173C268.806 180.875 269.019 180.62 269.318 180.578C270.172 180.493 271.026 180.238 271.837 179.94C272.563 179.643 273.289 179.26 273.93 178.793C274.186 178.623 274.485 178.665 274.656 178.92C274.826 179.175 274.784 179.473 274.527 179.643C273.801 180.153 273.033 180.578 272.222 180.918C271.325 181.258 270.385 181.513 269.446 181.64C269.403 181.64 269.403 181.64 269.361 181.64Z" fill="#0B206D"/>
<path d="M287.124 169.612C285.715 170.972 282.683 173.437 278.114 174.712C274.356 175.775 271.111 175.52 269.232 175.265C268.976 175.563 268.933 175.86 268.933 176.073C268.976 176.328 269.104 176.54 269.36 176.753C268.122 176.455 267.183 175.988 266.585 175.605C265.603 174.967 264.663 174.84 264.45 175.137C264.236 175.435 264.578 176.285 265.475 177.05C265.389 177.178 265.346 177.348 265.304 177.475C265.133 178.155 265.517 178.92 266.115 179.558C266.2 179.898 266.329 180.238 266.499 180.62C267.439 182.66 269.104 183.808 270.214 184.403C269.147 184.445 268.122 184.445 267.055 184.488C266.371 184.7 266.201 184.87 266.201 185.04C266.243 185.763 271.367 187.08 276.107 185.72C278.584 185.04 280.206 183.935 283.153 181.81C285.245 180.28 287.85 178.155 290.54 175.265C289.43 173.395 288.277 171.525 287.124 169.612Z" fill="#FBE0E5"/>
<path d="M275.338 178.282C274.57 178.282 273.801 178.24 273.033 178.112C271.752 177.942 270.513 177.602 269.318 177.135C269.061 177.007 268.891 176.71 269.019 176.455C269.104 176.2 269.446 176.072 269.702 176.157C270.812 176.582 271.965 176.88 273.161 177.05C274.1 177.177 275.039 177.22 275.979 177.177C276.278 177.177 276.534 177.39 276.534 177.687C276.534 177.985 276.32 178.24 276.022 178.24C275.851 178.282 275.595 178.282 275.338 178.282Z" fill="#0B206D"/>
<path d="M271.794 182.065C271.709 182.065 271.581 182.023 271.495 181.98L265.133 177.645C264.877 177.475 264.834 177.135 265.005 176.922C265.176 176.667 265.517 176.625 265.731 176.795L272.093 181.13C272.349 181.3 272.392 181.64 272.221 181.853C272.093 182.023 271.965 182.065 271.794 182.065Z" fill="#0B206D"/>
<path d="M271.794 182.065C271.538 182.065 271.325 181.895 271.282 181.64C271.239 181.342 271.41 181.087 271.709 181.002L273.887 180.577C274.186 180.535 274.442 180.705 274.527 181.002C274.57 181.3 274.399 181.555 274.1 181.64L271.922 182.065C271.837 182.065 271.794 182.065 271.794 182.065Z" fill="#0B206D"/>
<path d="M271.794 183.85C271.709 183.85 271.581 183.808 271.495 183.765L265.773 180.068C265.517 179.898 265.475 179.558 265.603 179.345C265.773 179.09 266.115 179.048 266.329 179.175L272.05 182.873C272.307 183.043 272.349 183.383 272.221 183.595C272.136 183.765 271.965 183.85 271.794 183.85Z" fill="#0B206D"/>
<path d="M271.794 183.85C271.538 183.85 271.325 183.68 271.282 183.383C271.239 183.085 271.453 182.83 271.709 182.788L274.1 182.405C274.399 182.363 274.655 182.575 274.698 182.83C274.741 183.128 274.527 183.383 274.271 183.425L271.88 183.808C271.88 183.808 271.837 183.85 271.794 183.85Z" fill="#0B206D"/>
<path d="M272.435 185.168C271.709 185.168 270.94 185.083 270.214 184.955C269.915 184.913 269.745 184.615 269.787 184.318C269.83 184.02 270.129 183.85 270.428 183.893C271.196 184.063 272.008 184.105 272.819 184.105C273.673 184.063 274.527 183.935 275.381 183.68C275.68 183.595 275.979 183.765 276.064 184.02C276.15 184.318 275.979 184.615 275.723 184.7C274.826 184.998 273.844 185.168 272.904 185.21C272.691 185.168 272.563 185.168 272.435 185.168Z" fill="#0B206D"/>
<path d="M252.024 122.563C250.188 122.563 248.395 122.393 246.559 122.095C246.26 122.053 246.089 121.755 246.131 121.5C246.174 121.203 246.43 121.033 246.729 121.075C250.402 121.713 254.117 121.67 257.746 120.99C261.675 120.225 265.347 118.78 268.72 116.613C268.891 116.485 269.147 116.485 269.318 116.613C271.624 118.228 275.424 120.268 280.506 120.82C285.331 121.33 289.302 120.31 291.821 119.375C292.077 119.248 292.419 119.418 292.504 119.673C292.59 119.928 292.462 120.268 292.206 120.353C288.448 121.798 284.349 122.308 280.377 121.883C275.296 121.33 271.41 119.333 268.976 117.675C265.603 119.8 261.845 121.288 257.917 122.01C256.038 122.35 254.031 122.563 252.024 122.563Z" fill="#0B206D"/>
<path d="M229.093 95.6601C225.421 95.6601 221.749 95.6601 218.077 95.6176C216.753 97.4026 215.472 99.2302 214.148 101.015C213.721 99.4427 209.665 83.2072 216.71 76.5345C218.034 75.2594 221.066 72.4118 224.396 73.1768C225.848 73.5168 226.83 74.4094 227.471 75.0894C228.325 75.5569 232.424 77.8095 233.577 82.3571C234.559 86.3098 232.766 89.7949 231.655 91.92C230.801 93.5775 229.819 94.8526 229.093 95.6601Z" fill="#FBE0E5"/>
<path d="M221.237 87.9673C223.842 90.5599 226.489 93.1099 229.094 95.7025C224.012 103.438 220.212 109.94 217.65 114.488C208.042 131.574 205.181 140.499 195.958 147.979C192.243 150.997 188.784 152.697 186.479 153.674C182.337 150.444 178.195 147.257 174.053 144.027C177.81 138.119 181.269 133.699 183.575 130.894C196.214 115.678 205.737 111.513 216.07 96.425C218.547 92.8124 220.298 89.7523 221.237 87.9673Z" fill="#FBE0E5"/>
<path d="M246.6 73.6868L212.141 77.6818C211.586 77.7668 211.073 77.3419 210.988 76.7894C210.903 76.1093 211.33 75.5993 211.885 75.5143L246.344 71.5192C246.899 71.4342 247.412 71.8592 247.497 72.4117C247.582 73.0917 247.155 73.6018 246.6 73.6868Z" fill="#0B206D"/>
<path d="M249.376 72.4116C249.504 73.6867 247.155 75.0042 244.123 75.3442C241.092 75.6842 238.487 74.9617 238.316 73.6867C238.145 72.4116 240.537 71.0941 243.568 70.7541C246.643 70.3716 249.205 71.1366 249.376 72.4116Z" fill="#0B206D"/>
<path d="M229.093 95.66C226.36 93.3224 223.585 90.9848 220.852 88.6047C221.322 84.5671 221.791 80.572 222.261 76.5344C222.774 75.7693 223.628 74.6218 224.994 73.7293C227.172 72.3267 230.289 71.6467 230.887 72.5392C231.015 72.7517 231.356 73.5593 228.538 76.5344C228.752 82.9521 228.923 89.2848 229.093 95.66Z" fill="#FBE0E5"/>
<path d="M223.884 86.0124C223.799 86.0124 223.713 86.0124 223.628 85.9274C223.372 85.7999 223.286 85.4599 223.414 85.2049L228.069 76.7897C228.197 76.5346 228.538 76.4496 228.795 76.5771C229.051 76.7046 229.136 77.0446 229.008 77.2996L224.354 85.7149C224.268 85.8849 224.055 86.0124 223.884 86.0124Z" fill="#0B206D"/>
<path d="M226.233 93.7472C226.019 93.7472 225.806 93.6197 225.72 93.4072L223.073 85.7144C222.987 85.4169 223.116 85.1194 223.414 85.0344C223.671 84.9494 224.012 85.0769 224.098 85.3744L226.745 93.0672C226.831 93.3647 226.702 93.6622 226.403 93.7472C226.361 93.7472 226.275 93.7472 226.233 93.7472Z" fill="#0B206D"/>
<path d="M217.693 82.8671C217.564 82.8671 217.479 82.8246 217.351 82.7396C217.137 82.5696 217.095 82.2296 217.266 81.9746L222.817 74.9618C222.987 74.7493 223.329 74.7069 223.585 74.8769C223.799 75.0469 223.841 75.3869 223.671 75.6419L218.12 82.6547C217.991 82.7822 217.821 82.8671 217.693 82.8671Z" fill="#0B206D"/>
<path d="M227.343 85.7994C227.258 85.7994 227.129 85.7569 227.044 85.7144C226.788 85.5444 226.745 85.2044 226.916 84.9919L230.674 79.5943C230.844 79.3392 231.186 79.2967 231.4 79.4668C231.656 79.6368 231.698 79.9768 231.528 80.1893L227.77 85.5869C227.685 85.7144 227.514 85.7994 227.343 85.7994Z" fill="#0B206D"/>
<path d="M228.325 88.0523C228.154 88.0523 228.026 87.9672 227.898 87.8397C227.727 87.6272 227.727 87.2873 227.983 87.0748L233.406 82.6546C233.62 82.4846 233.961 82.4846 234.175 82.7396C234.346 82.9521 234.346 83.2921 234.089 83.5047L228.666 87.9248C228.581 88.0098 228.453 88.0523 228.325 88.0523Z" fill="#0B206D"/>
<path d="M227.514 86.3521C227.428 86.3521 227.386 86.3521 227.3 86.3096L224.696 85.1621C224.439 85.0346 224.311 84.7371 224.439 84.4395C224.568 84.1845 224.866 84.057 225.165 84.1845L227.77 85.332C228.026 85.4595 228.154 85.757 228.026 86.0545C227.898 86.2671 227.727 86.3521 227.514 86.3521Z" fill="#0B206D"/>
<path d="M228.624 89.1996C228.411 89.1996 228.197 89.0721 228.112 88.8596L227.172 86.3521C227.087 86.0545 227.215 85.757 227.471 85.672C227.77 85.5445 228.069 85.7145 228.154 85.9696L229.094 88.4771C229.179 88.7321 229.051 89.0722 228.795 89.1572C228.752 89.1572 228.71 89.1996 228.624 89.1996Z" fill="#0B206D"/>
<path d="M153.342 177.603C134.639 177.603 119.523 162.6 119.523 144.069H187.033C187.033 162.557 171.96 177.603 153.342 177.603Z" fill="#ACE3EC"/>
<path d="M137.928 163.407C136.305 165.788 134.725 168.21 133.103 170.59C129.089 170.25 122.854 169.783 115.168 169.358C88.3096 167.87 81.1786 169.018 76.7378 164.002C74.6881 161.707 71.0159 155.587 76.0973 139.777C81.4775 140.754 86.8578 141.732 92.2808 142.752C92.2381 144.027 92.1527 145.259 92.11 146.534C93.7753 147.214 96.7216 148.447 100.479 149.807C112.564 154.227 118.072 154.95 128.534 159.2C130.626 160.007 133.914 161.41 137.928 163.407Z" fill="#FBE0E5"/>
<path d="M147.663 160.644C145.827 161.07 145.059 161.155 145.059 161.282C145.059 161.41 146.254 161.537 151.848 161.367C151.848 161.367 155.392 161.41 158.808 161.58C159.278 161.495 164.615 160.729 165.213 162.302C165.299 162.472 165.299 162.727 165.171 163.025C163.932 163.832 162.523 164.045 160.815 164.087C159.107 164.13 157.057 164.045 154.495 164.3C153.3 164.427 151.549 164.682 149.414 165.235C149.371 165.447 149.371 165.745 149.542 166.127C150.353 167.445 153.77 167.062 159.235 167.742C161.584 167.997 166.622 168.635 166.751 169.867C166.793 170.292 166.238 170.675 166.067 170.802C163.975 172.46 160.858 171.397 157.698 170.717C155.478 170.25 152.232 169.74 148.133 169.74C150.396 169.527 153.343 169.527 156.673 170.037C159.235 170.42 161.413 171.057 163.206 171.695C163.89 172.927 163.719 174.415 162.822 175.35C161.755 176.498 159.833 176.625 158.467 175.478C154.367 174.5 150.268 173.522 146.169 172.545C146.425 172.375 146.724 172.205 147.108 172.12C148.475 171.78 149.67 172.587 149.884 172.757C152.489 172.8 154.325 173.48 155.435 173.99C156.63 174.542 157.826 175.095 157.912 176.115C157.997 177.05 157.1 177.815 156.759 178.07C154.709 178.368 153.044 178.325 151.891 178.24C151.891 178.24 147.663 177.943 142.454 175.945C142.368 175.903 141.899 175.732 141.216 175.52C141.087 175.477 140.917 175.435 140.66 175.35C140.532 175.308 140.02 175.18 139.465 175.095C138.739 174.968 138.525 175.01 137.842 174.925C137.842 174.925 137.202 174.84 136.134 174.585C127.936 172.672 123.239 169.4 123.239 169.4C120.805 167.7 120.42 166.85 120.335 166.127C120.079 164.172 121.915 162.515 122.342 162.132C124.05 162.387 125.758 162.685 127.381 162.982C127.936 162.387 128.79 161.537 129.985 160.815C134.127 158.264 136.518 160.39 141.941 158.944C145.358 158.052 150.097 155.757 152.873 155.969C153.214 156.012 154.026 156.054 154.239 156.564C154.495 157.159 153.641 158.094 153.428 158.307C152.745 159.114 151.634 159.709 147.663 160.644Z" fill="#FBE0E5"/>
</svg>
