<svg width="170" height="44" viewBox="0 0 170 44" fill="none" xmlns="http://www.w3.org/2000/svg">
<path d="M14.6552 13.3511L0 43.6256H7.34507L10.7028 36.6493H27.8064L31.1291 43.6256H38.8939L24.3787 13.3511H14.6552ZM13.8157 30.1557L19.2721 18.7478L24.7284 30.1557H13.8157Z" fill="#0B0B0B"/>
<path d="M41.5035 13.3511V43.6256H63.8185C66.022 43.6256 67.9807 43.3624 69.6946 42.8359C71.4084 42.3532 72.8075 41.4757 73.9617 40.2911C75.1159 39.1064 75.9904 37.5707 76.585 35.6402C77.1796 33.7096 77.4943 31.3403 77.4943 28.4884C77.4943 25.6364 77.1796 23.2671 76.585 21.3365C75.9904 19.406 75.1159 17.8264 73.9617 16.6418C72.8075 15.4571 71.4084 14.6235 69.6946 14.097C67.9807 13.6143 66.022 13.3511 63.8185 13.3511H41.5035ZM62.6993 36.2544H49.0934V20.7223H62.6993C65.0427 20.7223 66.8265 21.2049 68.0507 22.2141C69.2749 23.2232 69.9044 24.9783 69.9044 27.5231V29.0587C69.9044 31.8229 69.2749 33.7096 68.0507 34.7188C66.8265 35.7279 65.0427 36.2544 62.6993 36.2544Z" fill="#0B0B0B"/>
<path d="M81.2329 34.5645C81.2329 36.3553 81.4886 37.8521 82.0213 39.055C82.5327 40.2578 83.2785 41.2467 84.2586 41.9684C85.2174 42.6901 86.4107 43.2247 87.8383 43.5187C89.2446 43.8395 90.8426 43.9998 92.6112 43.9998C94.2305 43.9998 95.7008 43.8662 97.0218 43.6256C98.3216 43.3851 99.4509 42.9841 100.41 42.4496C101.347 41.915 102.093 41.22 102.668 40.338C103.222 39.4559 103.563 38.4135 103.712 37.1839H99.0886C98.769 38.2264 98.0446 38.8946 96.9366 39.2153C95.8286 39.5628 94.3797 39.7232 92.6112 39.7232C91.6097 39.7232 90.6935 39.643 89.8625 39.5093C89.0315 39.3757 88.307 39.1351 87.7317 38.7877C87.1351 38.4402 86.6664 37.9323 86.3467 37.2908C86.0271 36.6761 85.8567 35.8742 85.8567 34.8852V34.0833C85.8567 33.0409 86.0271 32.2123 86.368 31.5441C86.6877 30.8758 87.1564 30.368 87.753 30.0205C88.3283 29.673 89.0528 29.4057 89.8838 29.2721C90.7148 29.1384 91.6097 29.085 92.6112 29.085C94.4862 29.085 95.9777 29.2721 97.0644 29.6463C98.1511 30.0472 98.833 30.8491 99.0673 32.0786H103.691C103.563 30.7155 103.222 29.5394 102.668 28.6038C102.114 27.6683 101.369 26.9199 100.431 26.3586C99.4935 25.7973 98.3642 25.3963 97.0431 25.1558C95.7221 24.9152 94.2518 24.8083 92.6112 24.8083C90.8426 24.8083 89.2446 24.9687 87.8383 25.3162C86.4107 25.6636 85.2174 26.1982 84.2586 26.9466C83.2785 27.7218 82.5327 28.7108 82.0213 29.967C81.4886 31.2233 81.2329 32.7736 81.2329 34.5645Z" fill="#0B0B0B"/>
<path d="M112.546 25.1825L103.618 43.6256H108.092L110.138 39.3757H120.557L122.582 43.6256H127.312L118.469 25.1825H112.546ZM112.034 35.4198L115.358 28.4702L118.682 35.4198H112.034Z" fill="#0B0B0B"/>
<path d="M128.902 25.1825V43.6256H133.525V37.4512H140.706L144.456 43.6256H149.826L145.841 37.077C146.949 36.6761 147.801 35.9811 148.398 34.9921C148.995 34.0031 149.293 32.7469 149.293 31.1966C149.293 29.2453 148.803 27.7485 147.823 26.7061C146.843 25.6904 145.458 25.1825 143.689 25.1825H128.902ZM144.669 31.4104C144.669 32.0519 144.52 32.5598 144.222 32.934C143.923 33.3082 143.369 33.4953 142.56 33.4953H133.525V29.0315H142.56C143.369 29.0315 143.923 29.2186 144.222 29.5661C144.52 29.9403 144.669 30.4482 144.669 31.0629V31.4104Z" fill="#0B0B0B"/>
<path d="M152.144 25.1825V43.6256H170V39.5628H156.768V36.1949H166.783V32.3192H156.768V29.2453H169.915V25.1825H152.144Z" fill="#0B0B0B"/>
<path d="M69.8213 3.51074C69.8213 3.51074 68.9849 11.8813 75.9658 11.8813C75.9658 11.8813 77.7055 3.51074 69.8213 3.51074Z" fill="#0B0B0B"/>
<path d="M87.572 0C78.0758 0 77.1973 7.49231 77.3716 11.3391C78.9759 5.53426 83.3494 4.25301 83.3494 4.25301C79.1743 7.41944 78.318 13.1355 78.2623 13.539C88.8665 13.0256 87.572 0 87.572 0Z" fill="#0B0B0B"/>
</svg>
