<svg width="522" height="170" viewBox="0 0 522 170" fill="none" xmlns="http://www.w3.org/2000/svg">
<path d="M0 121.084L-1 121.911V0.308838H522L521 4.85858L519 11.0628L517 16.8533L515 21.8167L513.5 26.3664L511.5 31.7434L509.5 35.0523L505.5 41.2565L501 48.7015L496.5 55.3193L493.5 59.4554L488.5 65.246L485 69.7957L482 73.1046L472.5 82.6177L464 90.4764L454.5 98.7486L447 104.953L436.5 112.398L420.5 122.325L402.5 132.251L385 140.937L368 147.969L362 150.037L355.5 152.105L348.5 154.173L342.5 156.241L333.5 158.722L326 160.377L315 162.859L309.5 163.686L305.5 164.927L300 165.34L294.5 166.167L287.5 166.995L280 168.236L271.281 169.063H224.5L213.5 168.236L206 167.408L197.5 166.581L191.5 165.754L186.5 164.927L182 164.099L177 163.272L173.5 162.445L169 161.618L165 160.791L161 159.963L158.5 159.136L155 158.309L149 156.654L146 155.827L143.5 155L140.5 154.173L138.5 153.345L135 152.518L127.5 150.037L108 142.592L78 130.183L74.5 128.529L72.5 127.701L70.5 126.874L68.5 126.047L66.5 125.22L62 123.565L59 122.738L57 121.911L54 121.084L51 120.256L47.5 119.016L44.5 118.188L40 117.361L35 116.534H24.5H22L17 117.361L12 118.188L8 119.016L5.5 119.429L3 120.256L1.5 120.67L0 121.084Z" fill="#FBE0E5"/>
<path d="M26.04 32.4V60H28.44V49.72H48.4C51.7067 49.72 54.12 48.9333 55.64 47.36C57.16 45.76 57.92 43.6667 57.92 41.08C57.92 38.4133 57.16 36.3067 55.64 34.76C54.12 33.1867 51.7067 32.4 48.4 32.4H26.04ZM55.52 41.56C55.52 43.5067 54.96 45.0267 53.84 46.12C52.72 47.1867 50.9067 47.72 48.4 47.72H28.44V34.4H48.4C50.9067 34.4 52.72 34.9467 53.84 36.04C54.96 37.1333 55.52 38.6933 55.52 40.72V41.56ZM63.2591 40.4V60H65.4591V49.24C65.4591 46.6533 66.1657 44.84 67.5791 43.8C69.0191 42.7333 70.9924 42.2 73.4991 42.2H79.2591V40.4H73.4991C71.8191 40.4 70.3124 40.6533 68.9791 41.16C67.6457 41.64 66.5924 42.4133 65.8191 43.48C65.0457 44.52 64.6591 45.88 64.6591 47.56L65.3391 47.36V40.4H63.2591ZM80.2891 50.2C80.2891 52.6267 80.8491 54.5867 81.9691 56.08C83.0891 57.5733 84.6624 58.6667 86.6891 59.36C88.7157 60.0533 91.0757 60.4 93.7691 60.4C95.6891 60.4 97.5424 60.24 99.3291 59.92C101.116 59.5733 102.689 58.9867 104.049 58.16C105.436 57.3067 106.462 56.0933 107.129 54.52H104.929C104.369 55.56 103.542 56.3867 102.449 57C101.356 57.5867 100.062 58 98.5691 58.24C97.1024 58.48 95.5024 58.6 93.7691 58.6C90.0357 58.6 87.2224 57.9333 85.3291 56.6C83.4357 55.24 82.4891 53.2933 82.4891 50.76V49.72C82.4891 47.72 82.9957 46.1467 84.0091 45C85.0491 43.8533 86.4224 43.04 88.1291 42.56C89.8357 42.0533 91.7157 41.8 93.7691 41.8C96.2491 41.8 98.3291 42.04 100.009 42.52C101.689 43 102.956 43.7867 103.809 44.88C104.662 45.9733 105.089 47.44 105.089 49.28V50.24H107.289V49.48C107.289 47.32 106.742 45.5467 105.649 44.16C104.582 42.7467 103.036 41.7067 101.009 41.04C99.0091 40.3467 96.5957 40 93.7691 40C91.0757 40 88.7157 40.36 86.6891 41.08C84.6624 41.7733 83.0891 42.8667 81.9691 44.36C80.8491 45.8533 80.2891 47.8 80.2891 50.2ZM82.1291 48.44V50.24H106.529V48.44H82.1291ZM136.667 60H138.867V47.96C138.867 46.0133 138.347 44.4533 137.307 43.28C136.293 42.1067 134.88 41.2667 133.067 40.76C131.253 40.2533 129.147 40 126.747 40C125.173 40 123.653 40.12 122.187 40.36C120.747 40.6 119.453 41 118.307 41.56C117.187 42.12 116.293 42.88 115.627 43.84C114.96 44.7733 114.627 45.9467 114.627 47.36H115.027V40.4H112.947V60H115.147V49.56C115.147 46.76 116.133 44.7733 118.107 43.6C120.107 42.4 122.88 41.8 126.427 41.8C128.8 41.8 130.733 42.0133 132.227 42.44C133.747 42.84 134.867 43.5733 135.587 44.64C136.307 45.7067 136.667 47.2 136.667 49.12V60ZM144.434 54.56C144.434 55.36 144.581 56.12 144.874 56.84C145.168 57.5333 145.701 58.1467 146.474 58.68C147.248 59.2133 148.314 59.64 149.674 59.96C151.061 60.2533 152.834 60.4 154.994 60.4C157.528 60.4 159.808 60.1333 161.834 59.6C163.861 59.04 165.474 58.2133 166.674 57.12C167.874 56.0267 168.474 54.6533 168.474 53L168.034 53.8V60H170.114V48.36C170.114 45.4533 169.061 43.3333 166.954 42C164.874 40.6667 161.661 40 157.314 40C153.501 40 150.594 40.5333 148.594 41.6C146.594 42.6667 145.381 44.2267 144.954 46.28H147.154C147.608 44.6533 148.728 43.5067 150.514 42.84C152.328 42.1467 154.594 41.8 157.314 41.8C160.861 41.8 163.514 42.3333 165.274 43.4C167.034 44.44 167.914 46.0933 167.914 48.36V51.04C167.914 52.9333 167.328 54.44 166.154 55.56C165.008 56.6533 163.448 57.44 161.474 57.92C159.528 58.3733 157.368 58.6 154.994 58.6C152.088 58.6 149.968 58.28 148.634 57.64C147.301 56.9733 146.634 56 146.634 54.72V54.44C146.634 53.16 147.234 52.24 148.434 51.68C149.634 51.12 151.288 50.84 153.394 50.84H168.154V49.04H153.114C150.874 49.04 149.114 49.28 147.834 49.76C146.581 50.24 145.701 50.8933 145.194 51.72C144.688 52.5467 144.434 53.4933 144.434 54.56ZM177.651 54.84C177.651 56.6 178.064 57.9067 178.891 58.76C179.744 59.5867 181.104 60 182.971 60H191.291V58.2H183.371C181.984 58.2 181.051 57.9067 180.571 57.32C180.091 56.7333 179.851 55.9067 179.851 54.84V34H177.651V54.84ZM174.851 42.2H191.291V40.4H174.851V42.2ZM194.005 54.56C194.005 55.36 194.151 56.12 194.445 56.84C194.738 57.5333 195.271 58.1467 196.045 58.68C196.818 59.2133 197.885 59.64 199.245 59.96C200.631 60.2533 202.405 60.4 204.565 60.4C207.098 60.4 209.378 60.1333 211.405 59.6C213.431 59.04 215.045 58.2133 216.245 57.12C217.445 56.0267 218.045 54.6533 218.045 53L217.605 53.8V60H219.685V48.36C219.685 45.4533 218.631 43.3333 216.525 42C214.445 40.6667 211.231 40 206.885 40C203.071 40 200.165 40.5333 198.165 41.6C196.165 42.6667 194.951 44.2267 194.525 46.28H196.725C197.178 44.6533 198.298 43.5067 200.085 42.84C201.898 42.1467 204.165 41.8 206.885 41.8C210.431 41.8 213.085 42.3333 214.845 43.4C216.605 44.44 217.485 46.0933 217.485 48.36V51.04C217.485 52.9333 216.898 54.44 215.725 55.56C214.578 56.6533 213.018 57.44 211.045 57.92C209.098 58.3733 206.938 58.6 204.565 58.6C201.658 58.6 199.538 58.28 198.205 57.64C196.871 56.9733 196.205 56 196.205 54.72V54.44C196.205 53.16 196.805 52.24 198.005 51.68C199.205 51.12 200.858 50.84 202.965 50.84H217.725V49.04H202.685C200.445 49.04 198.685 49.28 197.405 49.76C196.151 50.24 195.271 50.8933 194.765 51.72C194.258 52.5467 194.005 53.4933 194.005 54.56ZM226.775 30.8V60H228.975V30.8H226.775ZM245.914 50.2C245.914 52.52 246.421 54.44 247.434 55.96C248.447 57.4533 249.981 58.5733 252.034 59.32C254.114 60.04 256.727 60.4 259.874 60.4C263.687 60.4 266.647 59.8667 268.754 58.8C270.861 57.7333 272.261 56.3067 272.954 54.52H270.754C270.221 55.4 269.501 56.1467 268.594 56.76C267.687 57.3467 266.514 57.8 265.074 58.12C263.661 58.44 261.927 58.6 259.874 58.6C257.127 58.6 254.887 58.3067 253.154 57.72C251.447 57.1333 250.181 56.2533 249.354 55.08C248.527 53.88 248.114 52.3467 248.114 50.48V49.96C248.114 48.12 248.527 46.6 249.354 45.4C250.181 44.1733 251.447 43.2667 253.154 42.68C254.887 42.0933 257.127 41.8 259.874 41.8C261.927 41.8 263.647 41.9467 265.034 42.24C266.421 42.5333 267.554 43.0133 268.434 43.68C269.341 44.32 270.087 45.1867 270.674 46.28H272.874C272.261 44.1733 270.887 42.6 268.754 41.56C266.647 40.52 263.687 40 259.874 40C256.727 40 254.114 40.3867 252.034 41.16C249.981 41.9333 248.447 43.08 247.434 44.6C246.421 46.12 245.914 47.9867 245.914 50.2ZM302.901 50.48C302.901 52.3733 302.434 53.92 301.501 55.12C300.594 56.32 299.248 57.2 297.461 57.76C295.674 58.32 293.448 58.6 290.781 58.6C288.141 58.6 285.914 58.32 284.101 57.76C282.314 57.2 280.954 56.32 280.021 55.12C279.114 53.92 278.661 52.3733 278.661 50.48V49.96C278.661 48.0667 279.114 46.52 280.021 45.32C280.954 44.12 282.314 43.24 284.101 42.68C285.914 42.0933 288.141 41.8 290.781 41.8C293.448 41.8 295.674 42.0933 297.461 42.68C299.248 43.24 300.594 44.12 301.501 45.32C302.434 46.52 302.901 48.0667 302.901 49.96V50.48ZM276.461 50.2C276.461 52.68 277.034 54.6667 278.181 56.16C279.328 57.6533 280.968 58.7333 283.101 59.4C285.234 60.0667 287.794 60.4 290.781 60.4C293.821 60.4 296.408 60.0667 298.541 59.4C300.674 58.7333 302.301 57.6533 303.421 56.16C304.541 54.6667 305.101 52.68 305.101 50.2C305.101 47.7733 304.541 45.8133 303.421 44.32C302.301 42.8267 300.674 41.7333 298.541 41.04C296.408 40.3467 293.821 40 290.781 40C287.794 40 285.234 40.3467 283.101 41.04C280.968 41.7333 279.328 42.8267 278.181 44.32C277.034 45.8133 276.461 47.7733 276.461 50.2ZM330.517 60H332.717V47.76C332.717 46 332.344 44.5467 331.597 43.4C330.851 42.2533 329.731 41.4 328.237 40.84C326.744 40.28 324.877 40 322.637 40C321.384 40 320.144 40.1333 318.917 40.4C317.717 40.6667 316.611 41.0933 315.597 41.68C314.611 42.2667 313.824 43.0267 313.237 43.96C312.651 44.8933 312.357 46.0267 312.357 47.36H312.917V40.4H310.837V60H313.037V48.88C313.037 47.1467 313.464 45.76 314.317 44.72C315.197 43.68 316.331 42.9333 317.717 42.48C319.131 42.0267 320.637 41.8 322.237 41.8C323.891 41.8 325.331 41.96 326.557 42.28C327.811 42.6 328.784 43.24 329.477 44.2C330.171 45.16 330.517 46.5867 330.517 48.48V60ZM350.197 48.48V60H352.397V48.04C352.397 45.2667 351.531 43.24 349.797 41.96C348.064 40.6533 345.504 40 342.117 40C340.277 40 338.557 40.2933 336.957 40.88C335.357 41.44 334.064 42.32 333.077 43.52C332.117 44.6933 331.637 46.1867 331.637 48L332.717 48.88C332.717 47.4667 332.971 46.3067 333.477 45.4C334.011 44.4667 334.717 43.7467 335.597 43.24C336.477 42.7067 337.437 42.3333 338.477 42.12C339.544 41.9067 340.624 41.8 341.717 41.8C343.371 41.8 344.837 41.96 346.117 42.28C347.397 42.6 348.397 43.24 349.117 44.2C349.837 45.1333 350.197 46.56 350.197 48.48ZM359.47 40.4V68H361.67V46.36L361.51 46.24V40.4H359.47ZM385.91 50.48C385.91 52.4 385.443 53.96 384.51 55.16C383.603 56.3333 382.243 57.2 380.43 57.76C378.643 58.32 376.43 58.6 373.79 58.6C371.07 58.6 368.803 58.3067 366.99 57.72C365.203 57.1333 363.87 56.24 362.99 55.04C362.11 53.84 361.67 52.32 361.67 50.48V49.96C361.67 48.12 362.11 46.6 362.99 45.4C363.87 44.2 365.203 43.3067 366.99 42.72C368.803 42.1067 371.07 41.8 373.79 41.8C376.43 41.8 378.643 42.0933 380.43 42.68C382.243 43.24 383.603 44.12 384.51 45.32C385.443 46.52 385.91 48.0667 385.91 49.96V50.48ZM360.47 50.2C360.47 53.9067 361.577 56.5333 363.79 58.08C366.003 59.6267 369.337 60.4 373.79 60.4C376.83 60.4 379.417 60.0667 381.55 59.4C383.683 58.7333 385.31 57.6533 386.43 56.16C387.55 54.6667 388.11 52.68 388.11 50.2C388.11 47.7733 387.55 45.8133 386.43 44.32C385.31 42.8267 383.683 41.7333 381.55 41.04C379.417 40.3467 376.83 40 373.79 40C369.337 40 366.003 40.7867 363.79 42.36C361.577 43.9333 360.47 46.5467 360.47 50.2ZM393.845 30.8V60H396.045V30.8H393.845ZM401.773 50.2C401.773 52.6267 402.333 54.5867 403.453 56.08C404.573 57.5733 406.147 58.6667 408.173 59.36C410.2 60.0533 412.56 60.4 415.253 60.4C417.173 60.4 419.027 60.24 420.813 59.92C422.6 59.5733 424.173 58.9867 425.533 58.16C426.92 57.3067 427.947 56.0933 428.613 54.52H426.413C425.853 55.56 425.027 56.3867 423.933 57C422.84 57.5867 421.547 58 420.053 58.24C418.587 58.48 416.987 58.6 415.253 58.6C411.52 58.6 408.707 57.9333 406.813 56.6C404.92 55.24 403.973 53.2933 403.973 50.76V49.72C403.973 47.72 404.48 46.1467 405.493 45C406.533 43.8533 407.907 43.04 409.613 42.56C411.32 42.0533 413.2 41.8 415.253 41.8C417.733 41.8 419.813 42.04 421.493 42.52C423.173 43 424.44 43.7867 425.293 44.88C426.147 45.9733 426.573 47.44 426.573 49.28V50.24H428.773V49.48C428.773 47.32 428.227 45.5467 427.133 44.16C426.067 42.7467 424.52 41.7067 422.493 41.04C420.493 40.3467 418.08 40 415.253 40C412.56 40 410.2 40.36 408.173 41.08C406.147 41.7733 404.573 42.8667 403.453 44.36C402.333 45.8533 401.773 47.8 401.773 50.2ZM403.613 48.44V50.24H428.013V48.44H403.613ZM444.551 50.76L456.271 60H459.431L446.111 49.52L445.631 49.32L434.271 40.4H431.111L444.111 50.6L444.551 50.76ZM444.111 49.64L430.831 60H433.711L445.671 50.64L446.111 50.48L458.991 40.4H456.111L444.711 49.36L444.111 49.64Z" fill="#EB9B9B"/>
</svg>
