<svg width="715" height="455" viewBox="0 0 715 455" fill="none" xmlns="http://www.w3.org/2000/svg">
<path d="M542.341 0.800352L549.063 0H586.451L599.054 1.6007L613.757 4.40194L628.041 9.20405L646.525 17.6077L662.068 28.4125L676.351 42.4186L689.374 60.8267L699.036 80.0352L705.758 96.8426L710.379 115.651L713.32 134.859L715 154.068L714.16 177.678L712.059 197.287L709.119 213.694L705.338 230.101L701.137 241.706L694.415 258.514L686.854 274.521L680.132 288.127L670.89 302.533L660.388 316.539L648.625 330.545L639.383 340.95L626.36 353.355L612.917 363.76L596.113 374.965L583.091 382.968L568.807 390.172L546.542 399.376L516.716 408.58L491.51 414.982L462.523 419.384L444.459 420.985H415.473L384.806 418.584L362.541 414.182L344.057 410.981L331.454 410.18H314.65L310.87 410.981L279.783 412.181L253.317 417.383L232.312 426.587L215.508 434.991L200.385 440.994L185.682 443.795L169.298 447.397L155.855 449.798L148.293 451.799L134.85 453.799L116.786 455L109.645 453.799L103.343 451.799L97.4618 449.798L91.5805 447.397L84.0188 443.795L78.5576 440.994L68.8954 434.991L57.973 426.587L48.3108 417.383L39.0687 406.979L31.087 396.574L24.7855 386.97L19.3243 377.366L14.2832 366.561L8.82197 352.955L6.30141 344.551L4.20094 336.148L2.52056 328.544L1.26028 319.34L0 310.136V284.925L1.68038 273.72L3.36075 266.117L4.62103 260.114L7.1416 252.511L9.66216 245.308L14.7033 234.503L19.3243 226.099L25.6257 217.696L33.1874 208.492L42.4295 200.088L52.0917 192.485L62.1739 185.682L72.2562 179.679L86.9595 173.276L98.302 168.474L110.905 164.872L128.549 161.271L139.891 159.67H169.718L178.54 160.871L203.746 165.673L221.39 168.474L236.933 171.675L253.317 173.676L271.801 174.477L281.883 173.676L286.504 172.876L289.865 172.476L292.806 171.675L297.006 170.075L303.308 167.674L308.349 165.673L314.65 161.271L324.313 154.468L332.714 146.865L342.797 136.86L354.979 124.055L367.582 110.048L376.404 99.6438L380.605 94.8417L386.907 88.0387L399.509 74.8329L409.592 64.8285L416.313 58.4257L428.496 48.8215L441.939 38.4169L452.021 32.0141L460.003 27.6121L465.044 24.4107L473.026 20.8091L480.167 17.6077L491.09 13.2058L504.533 9.20405L521.337 4.40194L537.3 1.6007L542.341 0.800352Z" fill="#FBE0E5"/>
<path d="M141.04 322.4V350H143.44V339.72H163.4C166.707 339.72 169.12 338.933 170.64 337.36C172.16 335.76 172.92 333.667 172.92 331.08C172.92 328.413 172.16 326.307 170.64 324.76C169.12 323.187 166.707 322.4 163.4 322.4H141.04ZM170.52 331.56C170.52 333.507 169.96 335.027 168.84 336.12C167.72 337.187 165.907 337.72 163.4 337.72H143.44V324.4H163.4C165.907 324.4 167.72 324.947 168.84 326.04C169.96 327.133 170.52 328.693 170.52 330.72V331.56ZM178.259 330.4V350H180.459V339.24C180.459 336.653 181.166 334.84 182.579 333.8C184.019 332.733 185.992 332.2 188.499 332.2H194.259V330.4H188.499C186.819 330.4 185.312 330.653 183.979 331.16C182.646 331.64 181.592 332.413 180.819 333.48C180.046 334.52 179.659 335.88 179.659 337.56L180.339 337.36V330.4H178.259ZM195.289 340.2C195.289 342.627 195.849 344.587 196.969 346.08C198.089 347.573 199.662 348.667 201.689 349.36C203.716 350.053 206.076 350.4 208.769 350.4C210.689 350.4 212.542 350.24 214.329 349.92C216.116 349.573 217.689 348.987 219.049 348.16C220.436 347.307 221.462 346.093 222.129 344.52H219.929C219.369 345.56 218.542 346.387 217.449 347C216.356 347.587 215.062 348 213.569 348.24C212.102 348.48 210.502 348.6 208.769 348.6C205.036 348.6 202.222 347.933 200.329 346.6C198.436 345.24 197.489 343.293 197.489 340.76V339.72C197.489 337.72 197.996 336.147 199.009 335C200.049 333.853 201.422 333.04 203.129 332.56C204.836 332.053 206.716 331.8 208.769 331.8C211.249 331.8 213.329 332.04 215.009 332.52C216.689 333 217.956 333.787 218.809 334.88C219.662 335.973 220.089 337.44 220.089 339.28V340.24H222.289V339.48C222.289 337.32 221.742 335.547 220.649 334.16C219.582 332.747 218.036 331.707 216.009 331.04C214.009 330.347 211.596 330 208.769 330C206.076 330 203.716 330.36 201.689 331.08C199.662 331.773 198.089 332.867 196.969 334.36C195.849 335.853 195.289 337.8 195.289 340.2ZM197.129 338.44V340.24H221.529V338.44H197.129ZM251.667 350H253.867V337.96C253.867 336.013 253.347 334.453 252.307 333.28C251.293 332.107 249.88 331.267 248.067 330.76C246.253 330.253 244.147 330 241.747 330C240.173 330 238.653 330.12 237.187 330.36C235.747 330.6 234.453 331 233.307 331.56C232.187 332.12 231.293 332.88 230.627 333.84C229.96 334.773 229.627 335.947 229.627 337.36H230.027V330.4H227.947V350H230.147V339.56C230.147 336.76 231.133 334.773 233.107 333.6C235.107 332.4 237.88 331.8 241.427 331.8C243.8 331.8 245.733 332.013 247.227 332.44C248.747 332.84 249.867 333.573 250.587 334.64C251.307 335.707 251.667 337.2 251.667 339.12V350ZM259.434 344.56C259.434 345.36 259.581 346.12 259.874 346.84C260.168 347.533 260.701 348.147 261.474 348.68C262.248 349.213 263.314 349.64 264.674 349.96C266.061 350.253 267.834 350.4 269.994 350.4C272.528 350.4 274.808 350.133 276.834 349.6C278.861 349.04 280.474 348.213 281.674 347.12C282.874 346.027 283.474 344.653 283.474 343L283.034 343.8V350H285.114V338.36C285.114 335.453 284.061 333.333 281.954 332C279.874 330.667 276.661 330 272.314 330C268.501 330 265.594 330.533 263.594 331.6C261.594 332.667 260.381 334.227 259.954 336.28H262.154C262.608 334.653 263.728 333.507 265.514 332.84C267.328 332.147 269.594 331.8 272.314 331.8C275.861 331.8 278.514 332.333 280.274 333.4C282.034 334.44 282.914 336.093 282.914 338.36V341.04C282.914 342.933 282.328 344.44 281.154 345.56C280.008 346.653 278.448 347.44 276.474 347.92C274.528 348.373 272.368 348.6 269.994 348.6C267.088 348.6 264.968 348.28 263.634 347.64C262.301 346.973 261.634 346 261.634 344.72V344.44C261.634 343.16 262.234 342.24 263.434 341.68C264.634 341.12 266.288 340.84 268.394 340.84H283.154V339.04H268.114C265.874 339.04 264.114 339.28 262.834 339.76C261.581 340.24 260.701 340.893 260.194 341.72C259.688 342.547 259.434 343.493 259.434 344.56ZM292.651 344.84C292.651 346.6 293.064 347.907 293.891 348.76C294.744 349.587 296.104 350 297.971 350H306.291V348.2H298.371C296.984 348.2 296.051 347.907 295.571 347.32C295.091 346.733 294.851 345.907 294.851 344.84V324H292.651V344.84ZM289.851 332.2H306.291V330.4H289.851V332.2ZM309.005 344.56C309.005 345.36 309.151 346.12 309.445 346.84C309.738 347.533 310.271 348.147 311.045 348.68C311.818 349.213 312.885 349.64 314.245 349.96C315.631 350.253 317.405 350.4 319.565 350.4C322.098 350.4 324.378 350.133 326.405 349.6C328.431 349.04 330.045 348.213 331.245 347.12C332.445 346.027 333.045 344.653 333.045 343L332.605 343.8V350H334.685V338.36C334.685 335.453 333.631 333.333 331.525 332C329.445 330.667 326.231 330 321.885 330C318.071 330 315.165 330.533 313.165 331.6C311.165 332.667 309.951 334.227 309.525 336.28H311.725C312.178 334.653 313.298 333.507 315.085 332.84C316.898 332.147 319.165 331.8 321.885 331.8C325.431 331.8 328.085 332.333 329.845 333.4C331.605 334.44 332.485 336.093 332.485 338.36V341.04C332.485 342.933 331.898 344.44 330.725 345.56C329.578 346.653 328.018 347.44 326.045 347.92C324.098 348.373 321.938 348.6 319.565 348.6C316.658 348.6 314.538 348.28 313.205 347.64C311.871 346.973 311.205 346 311.205 344.72V344.44C311.205 343.16 311.805 342.24 313.005 341.68C314.205 341.12 315.858 340.84 317.965 340.84H332.725V339.04H317.685C315.445 339.04 313.685 339.28 312.405 339.76C311.151 340.24 310.271 340.893 309.765 341.72C309.258 342.547 309.005 343.493 309.005 344.56ZM341.775 320.8V350H343.975V320.8H341.775ZM360.914 340.2C360.914 342.52 361.421 344.44 362.434 345.96C363.447 347.453 364.981 348.573 367.034 349.32C369.114 350.04 371.727 350.4 374.874 350.4C378.687 350.4 381.647 349.867 383.754 348.8C385.861 347.733 387.261 346.307 387.954 344.52H385.754C385.221 345.4 384.501 346.147 383.594 346.76C382.687 347.347 381.514 347.8 380.074 348.12C378.661 348.44 376.927 348.6 374.874 348.6C372.127 348.6 369.887 348.307 368.154 347.72C366.447 347.133 365.181 346.253 364.354 345.08C363.527 343.88 363.114 342.347 363.114 340.48V339.96C363.114 338.12 363.527 336.6 364.354 335.4C365.181 334.173 366.447 333.267 368.154 332.68C369.887 332.093 372.127 331.8 374.874 331.8C376.927 331.8 378.647 331.947 380.034 332.24C381.421 332.533 382.554 333.013 383.434 333.68C384.341 334.32 385.087 335.187 385.674 336.28H387.874C387.261 334.173 385.887 332.6 383.754 331.56C381.647 330.52 378.687 330 374.874 330C371.727 330 369.114 330.387 367.034 331.16C364.981 331.933 363.447 333.08 362.434 334.6C361.421 336.12 360.914 337.987 360.914 340.2ZM417.901 340.48C417.901 342.373 417.434 343.92 416.501 345.12C415.594 346.32 414.248 347.2 412.461 347.76C410.674 348.32 408.448 348.6 405.781 348.6C403.141 348.6 400.914 348.32 399.101 347.76C397.314 347.2 395.954 346.32 395.021 345.12C394.114 343.92 393.661 342.373 393.661 340.48V339.96C393.661 338.067 394.114 336.52 395.021 335.32C395.954 334.12 397.314 333.24 399.101 332.68C400.914 332.093 403.141 331.8 405.781 331.8C408.448 331.8 410.674 332.093 412.461 332.68C414.248 333.24 415.594 334.12 416.501 335.32C417.434 336.52 417.901 338.067 417.901 339.96V340.48ZM391.461 340.2C391.461 342.68 392.034 344.667 393.181 346.16C394.328 347.653 395.968 348.733 398.101 349.4C400.234 350.067 402.794 350.4 405.781 350.4C408.821 350.4 411.408 350.067 413.541 349.4C415.674 348.733 417.301 347.653 418.421 346.16C419.541 344.667 420.101 342.68 420.101 340.2C420.101 337.773 419.541 335.813 418.421 334.32C417.301 332.827 415.674 331.733 413.541 331.04C411.408 330.347 408.821 330 405.781 330C402.794 330 400.234 330.347 398.101 331.04C395.968 331.733 394.328 332.827 393.181 334.32C392.034 335.813 391.461 337.773 391.461 340.2ZM445.517 350H447.717V337.76C447.717 336 447.344 334.547 446.597 333.4C445.851 332.253 444.731 331.4 443.237 330.84C441.744 330.28 439.877 330 437.637 330C436.384 330 435.144 330.133 433.917 330.4C432.717 330.667 431.611 331.093 430.597 331.68C429.611 332.267 428.824 333.027 428.237 333.96C427.651 334.893 427.357 336.027 427.357 337.36H427.917V330.4H425.837V350H428.037V338.88C428.037 337.147 428.464 335.76 429.317 334.72C430.197 333.68 431.331 332.933 432.717 332.48C434.131 332.027 435.637 331.8 437.237 331.8C438.891 331.8 440.331 331.96 441.557 332.28C442.811 332.6 443.784 333.24 444.477 334.2C445.171 335.16 445.517 336.587 445.517 338.48V350ZM465.197 338.48V350H467.397V338.04C467.397 335.267 466.531 333.24 464.797 331.96C463.064 330.653 460.504 330 457.117 330C455.277 330 453.557 330.293 451.957 330.88C450.357 331.44 449.064 332.32 448.077 333.52C447.117 334.693 446.637 336.187 446.637 338L447.717 338.88C447.717 337.467 447.971 336.307 448.477 335.4C449.011 334.467 449.717 333.747 450.597 333.24C451.477 332.707 452.437 332.333 453.477 332.12C454.544 331.907 455.624 331.8 456.717 331.8C458.371 331.8 459.837 331.96 461.117 332.28C462.397 332.6 463.397 333.24 464.117 334.2C464.837 335.133 465.197 336.56 465.197 338.48ZM474.47 330.4V358H476.67V336.36L476.51 336.24V330.4H474.47ZM500.91 340.48C500.91 342.4 500.443 343.96 499.51 345.16C498.603 346.333 497.243 347.2 495.43 347.76C493.643 348.32 491.43 348.6 488.79 348.6C486.07 348.6 483.803 348.307 481.99 347.72C480.203 347.133 478.87 346.24 477.99 345.04C477.11 343.84 476.67 342.32 476.67 340.48V339.96C476.67 338.12 477.11 336.6 477.99 335.4C478.87 334.2 480.203 333.307 481.99 332.72C483.803 332.107 486.07 331.8 488.79 331.8C491.43 331.8 493.643 332.093 495.43 332.68C497.243 333.24 498.603 334.12 499.51 335.32C500.443 336.52 500.91 338.067 500.91 339.96V340.48ZM475.47 340.2C475.47 343.907 476.577 346.533 478.79 348.08C481.003 349.627 484.337 350.4 488.79 350.4C491.83 350.4 494.417 350.067 496.55 349.4C498.683 348.733 500.31 347.653 501.43 346.16C502.55 344.667 503.11 342.68 503.11 340.2C503.11 337.773 502.55 335.813 501.43 334.32C500.31 332.827 498.683 331.733 496.55 331.04C494.417 330.347 491.83 330 488.79 330C484.337 330 481.003 330.787 478.79 332.36C476.577 333.933 475.47 336.547 475.47 340.2ZM508.845 320.8V350H511.045V320.8H508.845ZM516.773 340.2C516.773 342.627 517.333 344.587 518.453 346.08C519.573 347.573 521.147 348.667 523.173 349.36C525.2 350.053 527.56 350.4 530.253 350.4C532.173 350.4 534.027 350.24 535.813 349.92C537.6 349.573 539.173 348.987 540.533 348.16C541.92 347.307 542.947 346.093 543.613 344.52H541.413C540.853 345.56 540.027 346.387 538.933 347C537.84 347.587 536.547 348 535.053 348.24C533.587 348.48 531.987 348.6 530.253 348.6C526.52 348.6 523.707 347.933 521.813 346.6C519.92 345.24 518.973 343.293 518.973 340.76V339.72C518.973 337.72 519.48 336.147 520.493 335C521.533 333.853 522.907 333.04 524.613 332.56C526.32 332.053 528.2 331.8 530.253 331.8C532.733 331.8 534.813 332.04 536.493 332.52C538.173 333 539.44 333.787 540.293 334.88C541.147 335.973 541.573 337.44 541.573 339.28V340.24H543.773V339.48C543.773 337.32 543.227 335.547 542.133 334.16C541.067 332.747 539.52 331.707 537.493 331.04C535.493 330.347 533.08 330 530.253 330C527.56 330 525.2 330.36 523.173 331.08C521.147 331.773 519.573 332.867 518.453 334.36C517.333 335.853 516.773 337.8 516.773 340.2ZM518.613 338.44V340.24H543.013V338.44H518.613ZM559.551 340.76L571.271 350H574.431L561.111 339.52L560.631 339.32L549.271 330.4H546.111L559.111 340.6L559.551 340.76ZM559.111 339.64L545.831 350H548.711L560.671 340.64L561.111 340.48L573.991 330.4H571.111L559.711 339.36L559.111 339.64Z" fill="#EB9B9B"/>
</svg>
