<svg width="600" height="169" viewBox="0 0 600 169" fill="none" xmlns="http://www.w3.org/2000/svg">
<path d="M600.849 120.951L602 121.779V0H0L1.15106 4.55637L3.45312 10.7696L5.75525 16.5686L8.05737 21.5392L9.78394 26.0956L12.0861 31.4804L14.3881 34.7941L18.9924 41.0074L24.1721 48.4632L29.3518 55.0907L32.805 59.2328L38.5602 65.0319L42.5889 69.5882L46.0421 72.902L56.9771 82.4289L66.761 90.299L77.696 98.5833L86.3289 104.797L98.4149 112.252L116.832 122.194L137.551 132.135L157.694 140.833L177.262 147.875L184.168 149.946L191.65 152.017L199.707 154.088L206.614 156.159L216.973 158.645L225.606 160.301L238.268 162.787L244.598 163.615L249.203 164.858L255.533 165.272L261.864 166.1L269.922 166.929L278.554 168.172L288.591 169H342.438L355.099 168.172L363.732 167.343L373.516 166.515L380.423 165.686L386.178 164.858L391.358 164.029L397.113 163.201L401.141 162.373L406.321 161.544L410.925 160.716L415.53 159.887L418.407 159.059L422.436 158.23L429.342 156.574L432.795 155.745L435.673 154.917L439.126 154.088L441.428 153.26L445.457 152.431L454.09 149.946L476.535 142.49L511.067 130.064L515.096 128.407L517.398 127.578L519.7 126.75L522.002 125.922L524.304 125.093L529.484 123.436L532.937 122.608L535.239 121.779L538.692 120.951L542.145 120.123L546.174 118.88L549.627 118.051L554.807 117.223L560.562 116.395H572.648H575.526L581.281 117.223L587.036 118.051L591.641 118.88L594.518 119.294L597.396 120.123L599.122 120.537L600.849 120.951Z" fill="#FBE0E5"/>
</svg>
